<svg xmlns="http://www.w3.org/2000/svg" width="52" height="52" viewBox="0 0 52 52">
    <defs>
        <linearGradient id="a" x1="0%" y1="0%" y2="100%">
            <stop offset="0%" stop-color="#002C78"/>
            <stop offset="100%" stop-color="#001443"/>
        </linearGradient>
    </defs>
    <g fill="none" fill-rule="evenodd">
        <circle cx="26" cy="26" r="26" fill="url(#a)"/>
        <g fill-rule="nonzero">
            <path fill="#2199FC" d="M35.964 20.417c.318.007.598.129.844.325 3.232 2.778 3.232 2.873 3.694 3.27l.206.223c.388.67.277 1.31-.265 1.893l-3.877 3.289c-.597.39-.227.22-1.157.364-.726-.31-1.04-.467-1.072-1.357l.025-1.643c-1.553.356-3.196.953-4.22 1.918-1.976 2.009-2.569 2.748-2.569 7.49 0 4.61.167 4.911-1.578 4.911-1.416 0-1.494-.042-1.23-5.146.131-2.832.219-3.092.348-4.13.732-5.883 5.926-7.595 9.286-8.332l.025-1.628c.044-.865.708-1.41 1.54-1.447z"/>
            <path fill="#C1E3FF" d="M16.036 20.417a1.533 1.533 0 0 1 1.54 1.447l.023 1.584 1.778.579c2.535.625 5.531 2.601 5.531 3.622 0 .988-.67 2.623-1.23 2.623-.263 0-.55-.467-.67-.687-.36-.653-1.755-1.87-3.467-2.595-.562-.212-1.301-.248-1.905-.329l.027 1.763c-.032.89-.346 1.048-1.072 1.357-.93-.144-.56.026-1.157-.364l-3.877-3.29c-.542-.582-.653-1.222-.265-1.892l.206-.223c.462-.397.462-.492 3.694-3.27.265-.227.506-.293.844-.325zM26.171 10.028c.405.027.736.232 1.033.493l3.289 3.877c.39.597.22.228.365 1.158-.31.725-.468 1.04-1.358 1.072l-1.628-.022c0 7.52-.066 7.882-.725 8.606-.922.955-2.147.988-2.378 0l-.011-8.648-1.818-.024c-1.207-.034-1.892-1.489-1.122-2.384 2.778-3.232 2.873-3.232 3.27-3.694l.223-.205c.191-.11.399-.192.619-.22.08-.01.16-.006.241-.01z"/>
        </g>
    </g>
</svg>
