<svg xmlns="http://www.w3.org/2000/svg" width="52" height="52" viewBox="0 0 52 52">
    <defs>
        <linearGradient id="a" x1="0%" y1="0%" y2="100%">
            <stop offset="0%" stop-color="#002C78"/>
            <stop offset="100%" stop-color="#001443"/>
        </linearGradient>
    </defs>
    <g fill="none" fill-rule="evenodd">
        <circle cx="26" cy="26" r="26" fill="url(#a)"/>
        <g fill-rule="nonzero">
            <path fill="#C1E3FF" d="M33.282 28.538H27.4V26.15c0-.876-.72-1.592-1.6-1.592h-1.6c-.88 0-1.6.716-1.6 1.592V28.538h-7.2c-.28 0-.552-.047-.8-.143A2.39 2.39 0 0 1 13 26.15v-5.574c0-.876.72-1.593 1.6-1.593h4.8v-1.593c0-1.314 1.08-2.389 2.4-2.389h6.4c1.32 0 2.4 1.075 2.4 2.39v1.592h4.8c.88 0 1.6.717 1.6 1.593v5.574c0 .334-.07.651-.195.94a7.958 7.958 0 0 0-3.523 1.45zM21 17.39v1.593h8v-1.593a.8.8 0 0 0-.8-.796h-6.4a.8.8 0 0 0-.8.796z"/>
            <path fill="#2199FC" d="M24.077 26.077h1.846v3.077h-1.846z"/>
            <path fill="#C1E3FF" d="M31.465 30.385a7.963 7.963 0 0 0-1.412 5.538H16.159c-.885 0-1.609-.712-1.609-1.582v-3.956h8.265c.281.474.796.79 1.392.79h1.61c.595 0 1.11-.316 1.391-.79h4.257z"/>
            <path fill="#2199FC" d="M38 29a6 6 0 1 0 0 12 6 6 0 0 0 0-12zm.01 9.638a.6.6 0 1 1 0-1.2.6.6 0 0 1 0 1.2zm.945-6.487v.003a.99.99 0 0 1-.035.24l-.537 3.721a.381.381 0 1 1-.763 0l-.538-3.72a.927.927 0 0 1-.034-.24v-.017a.954.954 0 1 1 1.91 0c-.003.004-.003.008-.003.013z"/>
        </g>
    </g>
</svg>
