<svg xmlns="http://www.w3.org/2000/svg" width="52" height="52" viewBox="0 0 52 52">
    <defs>
        <linearGradient id="a" x1="0%" y1="0%" y2="100%">
            <stop offset="0%" stop-color="#002C78"/>
            <stop offset="100%" stop-color="#001443"/>
        </linearGradient>
    </defs>
    <g fill="none" fill-rule="evenodd">
        <circle cx="26" cy="26" r="26" fill="url(#a)"/>
        <path fill="#C1E3FF" d="M30.734 18.648c.398 1.974.799 3.535 2.19 5.312.135.173.192.198.242.198.049 0 .106-.025.242-.198 1.39-1.777 1.791-3.338 2.19-5.312 1.287.668 2.9.998 3.707 2.027.717.924 1.018 1.829 1.025 2.74a3.585 3.585 0 0 1-.006.281c-.025.426-.507.563-.864.65-2.18.387-4.297.656-6.294.654-1.998.003-4.115-.267-6.295-.654-.357-.087-.84-.224-.864-.65a4.329 4.329 0 0 1-.007-.282c.007-.91.308-1.815 1.025-2.739.808-1.029 2.421-1.358 3.709-2.027zM33.165 10c3.052.001 3.014 2.666 3.014 2.666l.02 1.417c.25-.003.31.244.31.737 0 .738-.453 1.51-.863 1.91-.01.044-.026.095-.042.145-.362 1.174-1.305 2.04-2.437 2.074-1.132-.033-2.078-.9-2.442-2.074-.012-.043-.029-.094-.041-.145-.41-.4-.862-1.172-.862-1.91 0-.493.06-.74.31-.737l.02-1.417s-.039-2.664 3.013-2.666zm-.61 9.74h1.218c.07-.001.13.073.117.141l-.184.938a.122.122 0 0 1-.117.095h-.85a.123.123 0 0 1-.117-.095l-.183-.938c-.013-.068.047-.142.117-.141zm.195 1.414h.816c.053 0 .105.04.116.092l.23.993c-.226.476-.475.939-.75 1.384a14.992 14.992 0 0 1-.743-1.385l.227-.993a.12.12 0 0 1 .104-.09z"/>
        <path fill="#2199FC" fill-rule="nonzero" d="M42.2 27.64c.004.005.364.224.394.861.016.35-.284.808-1.303 1.19 0 0-4.294 1.764-9.33 4.983 0 0-.577.362-1.252.315-3.356-.404-6.991-.403-7.364-.39-2.168.08-4.703.335-6.99 2.401 0 0-5.38-1.207-6.355-4.432 0-.003 6.459-1.856 10.034-4.813 1.179-.976 2.42-.744 2.898-.698.696.066 2.06.601 3.96.842.985.124 2.399.212 3.715.321 2.048.17 2.708.559 2.687 1.726-.007.414-.393 1.453-2.013 1.393-.354-.013-1.202-.087-1.792-.12-.54-.031-1.474-.04-2.662 0-.28.009-.597.023-.905.039-.734.037-1.414.08-1.414.08s1.662.368 2.022.413c1.106.138 2.543.344 3.868.37 1.327.027 2.349-.146 3.012-.726.972-.956.704-1.89.54-2.4 0 0 5.74-1.692 6.132-1.751.79-.12 1.772.004 2.119.396z"/>
    </g>
</svg>
