<svg xmlns="http://www.w3.org/2000/svg" xmlns:xlink="http://www.w3.org/1999/xlink" width="347" height="244" viewBox="0 0 347 244">
    <defs>
        <path id="b" d="M239 134H28.983v-8.083H0V16.792l13.883-.19L14.065.31 239 0z"/>
        <filter id="a" width="172.4%" height="234.3%" x="-36.2%" y="-57.8%" filterUnits="objectBoundingBox">
            <feOffset dy="11" in="SourceAlpha" result="shadowOffsetOuter1"/>
            <feGaussianBlur in="shadowOffsetOuter1" result="shadowBlurOuter1" stdDeviation="7.5"/>
            <feColorMatrix in="shadowBlurOuter1" result="shadowMatrixOuter1" values="0 0 0 0 0 0 0 0 0 0 0 0 0 0 0 0 0 0 0.2 0"/>
            <feMorphology in="SourceAlpha" operator="dilate" radius="4" result="shadowSpreadOuter2"/>
            <feOffset dy="9" in="shadowSpreadOuter2" result="shadowOffsetOuter2"/>
            <feGaussianBlur in="shadowOffsetOuter2" result="shadowBlurOuter2" stdDeviation="23"/>
            <feColorMatrix in="shadowBlurOuter2" result="shadowMatrixOuter2" values="0 0 0 0 0 0 0 0 0 0 0 0 0 0 0 0 0 0 0.12 0"/>
            <feMorphology in="SourceAlpha" operator="dilate" radius="1.5" result="shadowSpreadOuter3"/>
            <feOffset dy="24" in="shadowSpreadOuter3" result="shadowOffsetOuter3"/>
            <feGaussianBlur in="shadowOffsetOuter3" result="shadowBlurOuter3" stdDeviation="19"/>
            <feColorMatrix in="shadowBlurOuter3" result="shadowMatrixOuter3" values="0 0 0 0 0 0 0 0 0 0 0 0 0 0 0 0 0 0 0.14 0"/>
            <feMerge>
                <feMergeNode in="shadowMatrixOuter1"/>
                <feMergeNode in="shadowMatrixOuter2"/>
                <feMergeNode in="shadowMatrixOuter3"/>
            </feMerge>
        </filter>
        <linearGradient id="c" x1="0%" y1="34.282%" y2="65.718%">
            <stop offset="0%" stop-color="#5FEFC0"/>
            <stop offset="34.382%" stop-color="#5CECC6"/>
            <stop offset="100%" stop-color="#4CD9ED"/>
        </linearGradient>
        <linearGradient id="d" x1="83.804%" x2="9.424%" y1="86.299%" y2="24.194%">
            <stop offset="0%" stop-color="#D30202"/>
            <stop offset="100%" stop-color="#F00"/>
        </linearGradient>
        <linearGradient id="e" x1="50%" x2="50%" y1="-65.182%" y2="100%">
            <stop offset="0%" stop-color="#FFF"/>
            <stop offset="100%" stop-color="#FFF" stop-opacity=".569"/>
        </linearGradient>
    </defs>
    <g fill="none" fill-rule="evenodd">
        <g transform="translate(54 45)">
            <g opacity=".7">
                <use fill="#000" filter="url(#a)" xlink:href="#b"/>
                <use fill="#FAFAFA" xlink:href="#b"/>
            </g>
            <path fill="url(#c)" d="M239 134H28.983v-8.083H0V16.792l13.883-.19L14.065.31 239 0z" opacity=".774"/>
            <path fill="#0F1C3B" fill-rule="nonzero" d="M63.159 77.77c.6.074 1.056.278 1.371.611.315.334.472.75.472 1.25 0 .378-.095.72-.287 1.03-.191.308-.48.554-.866.736-.386.182-.857.273-1.413.273-.463 0-.909-.066-1.338-.2A3.423 3.423 0 0 1 60 80.92l.519-.936c.234.198.52.354.857.468a3.22 3.22 0 0 0 1.042.171c.426 0 .761-.088 1.005-.264a.84.84 0 0 0 .366-.718.83.83 0 0 0-.347-.708c-.232-.17-.586-.255-1.061-.255h-.593v-.825l1.473-1.75h-2.946v-1.01h4.419v.806l-1.575 1.87zm4.873-2.677v6.484h-1.205v-5.475h-1.37v-1.01h2.575zm1.39 3.427h2.547v.964H69.42v-.964zm9.884 3.057l-.01-4.298-2.13 3.557h-.537l-2.131-3.501v4.242h-1.149v-6.484h.992l2.575 4.298 2.529-4.298h.991l.01 6.484h-1.14zm4.669-5.002c.729 0 1.286.174 1.672.523.386.35.58.876.58 1.58v2.9h-1.094v-.603a1.347 1.347 0 0 1-.607.496c-.262.114-.579.171-.95.171-.37 0-.694-.063-.972-.19a1.503 1.503 0 0 1-.644-.528 1.34 1.34 0 0 1-.227-.764c0-.445.165-.801.496-1.07.33-.269.85-.403 1.56-.403h1.28v-.074c0-.346-.104-.611-.311-.797-.207-.185-.514-.278-.922-.278a2.66 2.66 0 0 0-.82.13 2.014 2.014 0 0 0-.68.361l-.455-.843a2.81 2.81 0 0 1 .936-.454c.364-.105.75-.157 1.158-.157zm-.158 4.224c.29 0 .549-.066.774-.199.225-.133.384-.323.477-.57v-.574h-1.195c-.667 0-1 .22-1 .658 0 .21.083.376.25.5.166.123.398.185.694.185zm4.994-3.446c.333-.519.92-.778 1.76-.778v1.102a1.47 1.47 0 0 0-.269-.028c-.45 0-.803.132-1.056.394-.253.263-.38.64-.38 1.135v2.4h-1.158V76.63h1.103v.723zm2.538 1.167h2.548v.964h-2.548v-.964zm8.161 2.038v1.02h-4.78v-.807l2.576-2.445c.29-.278.486-.52.588-.727.102-.207.153-.413.153-.617 0-.302-.102-.534-.306-.694-.204-.16-.503-.241-.899-.241-.66 0-1.167.225-1.519.676l-.843-.648c.253-.34.595-.604 1.024-.792.43-.189.91-.283 1.44-.283.704 0 1.266.167 1.686.5.42.334.63.788.63 1.362 0 .352-.074.682-.222.991-.148.31-.432.661-.852 1.056l-1.733 1.65h3.057zm3.4 1.112a2.51 2.51 0 0 1-1.39-.394c-.407-.262-.728-.645-.963-1.148-.234-.504-.352-1.101-.352-1.793s.118-1.29.352-1.793c.235-.503.556-.886.964-1.148a2.51 2.51 0 0 1 1.39-.394c.518 0 .983.131 1.394.394.41.262.733.645.968 1.148.234.504.352 1.101.352 1.793s-.118 1.29-.352 1.793c-.235.503-.558.886-.968 1.148-.411.263-.876.394-1.395.394zm0-1.047c.464 0 .83-.191 1.098-.574.269-.383.403-.954.403-1.714s-.134-1.33-.403-1.714a1.272 1.272 0 0 0-1.098-.574c-.457 0-.82.191-1.088.574-.269.383-.403.954-.403 1.714s.134 1.33.403 1.714c.268.383.631.574 1.088.574zm8.227-.065v1.02h-4.78v-.807l2.575-2.445c.29-.278.486-.52.588-.727.102-.207.153-.413.153-.617 0-.302-.102-.534-.306-.694-.204-.16-.503-.241-.898-.241-.661 0-1.168.225-1.52.676l-.843-.648c.254-.34.595-.604 1.024-.792.43-.189.91-.283 1.44-.283.705 0 1.267.167 1.687.5.42.334.63.788.63 1.362 0 .352-.075.682-.223.991-.148.31-.432.661-.852 1.056l-1.732 1.65h3.057zm3.64-2.983c.427 0 .81.082 1.15.246.339.164.604.397.796.7.191.302.287.65.287 1.046 0 .42-.105.79-.315 1.107-.21.318-.494.564-.852.737-.358.173-.76.259-1.205.259-.889 0-1.58-.278-2.07-.834-.491-.556-.737-1.352-.737-2.39 0-.729.133-1.35.399-1.867a2.761 2.761 0 0 1 1.116-1.176c.479-.269 1.033-.403 1.663-.403.333 0 .647.036.94.107.294.07.548.174.765.31l-.445.908c-.321-.21-.732-.315-1.232-.315-.624 0-1.112.191-1.464.574-.352.383-.528.936-.528 1.658v.01a1.8 1.8 0 0 1 .732-.505c.296-.115.63-.172 1-.172zm-.203 3.15c.376 0 .682-.1.917-.301.234-.2.352-.468.352-.801 0-.34-.118-.609-.352-.806-.235-.198-.55-.297-.945-.297-.39 0-.706.105-.95.315-.244.21-.366.476-.366.797 0 .315.12.576.357.783.238.207.567.31.987.31z"/>
            <path fill="#0070DC" fill-rule="nonzero" d="M40.637 31.493h-3.313l-.632 1.53H35l3.18-7.136h1.631l3.191 7.135h-1.733l-.632-1.529zm-.52-1.253l-1.131-2.732-1.132 2.732h2.263zm9.042-2.702v5.484H47.65v-.652c-.21.238-.462.42-.754.545a2.373 2.373 0 0 1-.948.189c-.72 0-1.291-.207-1.713-.622-.42-.414-.632-1.03-.632-1.845v-3.099h1.59v2.865c0 .883.371 1.325 1.112 1.325.38 0 .686-.124.917-.372.231-.248.347-.617.347-1.106v-2.712h1.59zm5.015 5.22a1.635 1.635 0 0 1-.576.26 2.912 2.912 0 0 1-.718.086c-.653 0-1.157-.167-1.514-.5-.357-.333-.535-.822-.535-1.467v-2.253h-.846V27.66h.846v-1.336h1.59v1.336h1.366v1.223h-1.366v2.232c0 .231.06.41.178.535.12.126.288.189.505.189.251 0 .465-.068.642-.204l.428 1.121zm3.507.346c-.578 0-1.096-.12-1.555-.362a2.69 2.69 0 0 1-1.075-1.004 2.767 2.767 0 0 1-.387-1.458c0-.543.129-1.03.387-1.457a2.69 2.69 0 0 1 1.075-1.004 3.288 3.288 0 0 1 1.555-.362c.578 0 1.094.12 1.55.362.455.24.811.575 1.07 1.004.258.428.387.914.387 1.457 0 .544-.129 1.03-.387 1.458a2.699 2.699 0 0 1-1.07 1.004c-.456.241-.972.362-1.55.362zm0-1.305c.408 0 .742-.137 1.004-.413.262-.275.392-.644.392-1.106 0-.462-.13-.83-.392-1.106-.262-.275-.596-.413-1.004-.413-.408 0-.744.138-1.01.413-.264.276-.397.644-.397 1.106 0 .462.133.831.398 1.106.265.276.601.413 1.009.413zm11.09-4.342c.687 0 1.232.202 1.637.606.404.405.606 1.011.606 1.82v3.14h-1.59v-2.896c0-.435-.09-.759-.27-.973-.18-.214-.437-.321-.77-.321-.373 0-.67.12-.887.362-.217.241-.326.6-.326 1.075v2.752h-1.59v-2.895c0-.863-.347-1.294-1.04-1.294-.367 0-.659.12-.876.362-.218.241-.327.6-.327 1.075v2.752h-1.59v-5.484h1.52v.632c.203-.23.453-.408.748-.53.296-.122.62-.183.974-.183.387 0 .737.076 1.05.229.312.153.564.376.754.668a2.25 2.25 0 0 1 .851-.663 2.685 2.685 0 0 1 1.127-.234zm6.28 5.647c-.578 0-1.096-.12-1.555-.362a2.69 2.69 0 0 1-1.075-1.004 2.767 2.767 0 0 1-.387-1.458c0-.543.129-1.03.387-1.457a2.69 2.69 0 0 1 1.075-1.004 3.288 3.288 0 0 1 1.555-.362c.578 0 1.094.12 1.55.362.455.24.812.575 1.07 1.004.258.428.387.914.387 1.457 0 .544-.129 1.03-.387 1.458a2.699 2.699 0 0 1-1.07 1.004c-.456.241-.972.362-1.55.362zm0-1.305c.408 0 .742-.137 1.004-.413.262-.275.393-.644.393-1.106 0-.462-.131-.83-.393-1.106-.262-.275-.596-.413-1.004-.413-.408 0-.744.138-1.01.413-.264.276-.397.644-.397 1.106 0 .462.133.831.398 1.106.265.276.601.413 1.009.413zm7.604.958a1.635 1.635 0 0 1-.575.26 2.912 2.912 0 0 1-.72.087c-.652 0-1.156-.167-1.513-.5-.357-.333-.535-.822-.535-1.467v-2.253h-.846V27.66h.846v-1.336h1.59v1.336h1.366v1.223h-1.366v2.232c0 .231.06.41.179.535.118.126.287.189.504.189.252 0 .466-.068.642-.204l.428 1.121zm.897-5.219h1.59v5.484h-1.59v-5.484zm.796-.764c-.293 0-.53-.085-.714-.255a.827.827 0 0 1-.275-.632c0-.252.092-.462.275-.632.184-.17.421-.255.714-.255.292 0 .53.082.713.245a.784.784 0 0 1 .275.611.866.866 0 0 1-.275.658c-.183.173-.421.26-.713.26zm7.716.764l-2.314 5.484h-1.64l-2.305-5.484h1.641l1.52 3.731 1.57-3.73h1.528zm6.025 2.763c0 .02-.01.163-.03.428h-4.15c.075.34.252.608.53.805.279.197.626.296 1.04.296.286 0 .539-.043.76-.128.22-.085.426-.219.616-.402l.846.917c-.516.591-1.27.887-2.263.887-.618 0-1.165-.12-1.64-.362a2.653 2.653 0 0 1-1.102-1.004 2.767 2.767 0 0 1-.387-1.458c0-.537.127-1.02.382-1.452a2.678 2.678 0 0 1 1.05-1.01 3.083 3.083 0 0 1 1.493-.361c.537 0 1.023.115 1.458.346a2.53 2.53 0 0 1 1.025.994c.248.432.372.933.372 1.504zm-2.844-1.641c-.36 0-.663.101-.908.305-.244.204-.394.483-.448.836h2.701a1.315 1.315 0 0 0-.448-.83 1.34 1.34 0 0 0-.897-.311zm11.722.683h1.509v2.895a4.31 4.31 0 0 1-1.346.672 5.224 5.224 0 0 1-1.539.235c-.74 0-1.406-.158-1.998-.474a3.529 3.529 0 0 1-1.391-1.315c-.337-.56-.505-1.195-.505-1.901 0-.707.168-1.34.505-1.901.336-.561.803-1 1.401-1.315.598-.316 1.271-.474 2.019-.474.625 0 1.192.105 1.702.316.51.21.938.516 1.285.917l-1.06.979c-.51-.537-1.125-.806-1.846-.806-.455 0-.86.095-1.213.286-.353.19-.628.458-.825.805a2.37 2.37 0 0 0-.296 1.193c0 .441.099.836.296 1.182.197.347.47.617.82.81.35.194.75.291 1.198.291.476 0 .904-.102 1.284-.306v-2.09zm4.445-1.081c.19-.265.447-.466.77-.601a2.856 2.856 0 0 1 1.116-.204v1.468a5.74 5.74 0 0 0-.357-.02c-.455 0-.812.127-1.07.381-.259.255-.388.638-.388 1.147v2.59h-1.59v-5.485h1.519v.724zm5.484 4.842c-.578 0-1.096-.12-1.555-.362a2.69 2.69 0 0 1-1.075-1.004 2.767 2.767 0 0 1-.387-1.458c0-.543.129-1.03.387-1.457a2.69 2.69 0 0 1 1.075-1.004 3.288 3.288 0 0 1 1.555-.362c.578 0 1.094.12 1.55.362.455.24.812.575 1.07 1.004.258.428.387.914.387 1.457 0 .544-.129 1.03-.387 1.458a2.699 2.699 0 0 1-1.07 1.004c-.456.241-.972.362-1.55.362zm0-1.305c.408 0 .742-.137 1.004-.413.262-.275.393-.644.393-1.106 0-.462-.131-.83-.393-1.106-.262-.275-.596-.413-1.004-.413-.408 0-.744.138-1.01.413-.264.276-.397.644-.397 1.106 0 .462.133.831.398 1.106.265.276.601.413 1.009.413zm9.592-4.26v5.483h-1.508v-.652c-.211.238-.462.42-.755.545a2.373 2.373 0 0 1-.948.189c-.72 0-1.29-.207-1.712-.622-.422-.414-.632-1.03-.632-1.845v-3.099h1.59v2.865c0 .883.37 1.325 1.111 1.325.38 0 .686-.124.917-.372.232-.248.347-.617.347-1.106v-2.712h1.59zm4.72-.082c.51 0 .973.117 1.391.351.418.235.746.564.984.99.238.424.357.918.357 1.482s-.12 1.059-.357 1.484a2.525 2.525 0 0 1-.984.988 2.795 2.795 0 0 1-1.391.352c-.7 0-1.25-.22-1.651-.663V35h-1.59v-7.462h1.518v.632c.394-.475.969-.713 1.723-.713zm-.275 4.342c.407 0 .742-.137 1.004-.413.261-.275.392-.644.392-1.106 0-.462-.13-.83-.392-1.106-.262-.275-.597-.413-1.004-.413-.408 0-.743.138-1.004.413-.262.276-.393.644-.393 1.106 0 .462.131.831.393 1.106.261.276.596.413 1.004.413zm11.763-.306h-3.313l-.632 1.53h-1.692l3.18-7.136h1.632l3.19 7.135h-1.733l-.632-1.529zm-.52-1.253l-1.131-2.732-1.132 2.732h2.263zm8.45-.897h1.51v2.895a4.31 4.31 0 0 1-1.346.672 5.224 5.224 0 0 1-1.54.235c-.74 0-1.406-.158-1.997-.474a3.529 3.529 0 0 1-1.392-1.315c-.336-.56-.504-1.195-.504-1.901 0-.707.168-1.34.504-1.901.337-.561.804-1 1.402-1.315.598-.316 1.27-.474 2.018-.474.626 0 1.193.105 1.703.316.51.21.938.516 1.284.917l-1.06.979c-.51-.537-1.125-.806-1.845-.806-.455 0-.86.095-1.213.286-.354.19-.629.458-.826.805a2.37 2.37 0 0 0-.295 1.193c0 .441.098.836.295 1.182.197.347.47.617.82.81.35.194.75.291 1.199.291.475 0 .903-.102 1.284-.306v-2.09z"/>
            <g fill-rule="nonzero">
                <path fill="#0F1C3B" d="M12.829 22H25.17c1.01 0 1.829.819 1.829 1.829V36.17c0 1.01-.819 1.829-1.829 1.829H12.83A1.829 1.829 0 0 1 11 36.171V23.83c0-1.01.819-1.829 1.829-1.829zm0 .914a.914.914 0 0 0-.915.915V36.17c0 .505.41.915.915.915H25.17c.505 0 .915-.41.915-.915V23.83a.914.914 0 0 0-.915-.915H12.83z"/>
                <path fill="#FFF" d="M12.903 23a.903.903 0 0 0-.903.903v12.194c0 .499.404.903.903.903h12.194a.903.903 0 0 0 .903-.903V23.903a.903.903 0 0 0-.903-.903H12.903z" opacity=".66"/>
                <path fill="#2199FC" d="M21.395 27.029v.96l-2.377 5.44H17.41l2.295-5.194h-2.121v1.043h-1.317v-2.25z"/>
            </g>
            <circle cx="219.5" cy="20.5" r="13.5" fill="#FFF"/>
            <path fill="url(#d)" fill-rule="nonzero" d="M219.5 12a8.5 8.5 0 1 0 0 17 8.5 8.5 0 0 0 0-17zm.014 13.654a.85.85 0 1 1 0-1.7.85.85 0 0 1 0 1.7zm1.338-9.19v.004c-.002.118-.019.232-.048.34l-.761 5.272a.54.54 0 1 1-1.082 0l-.761-5.272a1.314 1.314 0 0 1-.048-.34v-.023a1.351 1.351 0 1 1 2.704 0c-.004.006-.004.012-.004.02z"/>
            <path fill="#0F1C3B" fill-rule="nonzero" d="M15.978 79.7v.87H11v-7h4.841v.87H11.98v2.15h3.44v.85h-3.44v2.26h3.998zm4.763.87l-1.5-2.03-1.518 2.03h-1.049l2.048-2.71-1.95-2.59h1.049l1.43 1.91 1.422-1.91h1.029l-1.96 2.59 2.067 2.71h-1.068zm4.851-5.35c.503 0 .954.113 1.353.34.398.227.71.543.935.95.226.407.339.877.339 1.41 0 .533-.113 1.005-.339 1.415-.225.41-.537.728-.935.955-.399.227-.85.34-1.353.34-.372 0-.714-.073-1.024-.22a2.138 2.138 0 0 1-.789-.64v2.74h-.94v-7.24h.901v.84c.21-.293.474-.515.794-.665.32-.15.673-.225 1.058-.225zm-.078 4.57c.333 0 .632-.078.896-.235.265-.157.474-.377.628-.66.153-.283.23-.608.23-.975s-.077-.692-.23-.975a1.643 1.643 0 0 0-.627-.655 1.755 1.755 0 0 0-.897-.23 1.687 1.687 0 0 0-1.514.89c-.154.28-.23.603-.23.97s.075.692.225.975c.15.283.36.503.627.66.268.157.565.235.892.235zm4.008-4.52h.94v5.3h-.94v-5.3zm.47-1.02a.62.62 0 0 1-.637-.62c0-.173.06-.322.182-.445a.612.612 0 0 1 .455-.185.63.63 0 0 1 .456.175.58.58 0 0 1 .181.435.625.625 0 0 1-.637.64zm3.166 1.91a1.62 1.62 0 0 1 .725-.7c.32-.16.709-.24 1.166-.24v.93a1.8 1.8 0 0 0-.215-.01c-.51 0-.91.155-1.2.465-.292.31-.437.752-.437 1.325v2.64h-.94v-5.3h.9v.89zm7.712-.89l-2.518 5.83c-.222.54-.482.92-.78 1.14-.297.22-.654.33-1.072.33-.255 0-.502-.042-.74-.125a1.514 1.514 0 0 1-.593-.365l.402-.72c.267.26.578.39.93.39.23 0 .42-.062.574-.185.153-.123.292-.335.416-.635l.167-.37-2.293-5.29h.98l1.813 4.24 1.793-4.24h.921zm10.043 2.275h2.636v.83h-2.636v-.83z"/>
            <g fill="#0F1C3B" fill-rule="nonzero">
                <path d="M68.785 60.106H67.57v1.473h-1.235v-1.473H62.57v-.834l3.382-4.177h1.362l-3.186 3.992h2.245v-1.306h1.196v1.306h1.215v1.02zm2.912-5.011v6.484h-1.275v-5.475h-1.45v-1.01h2.725zm4.479 2.482c.45 0 .856.082 1.215.246.36.163.64.397.843.7.203.302.304.65.304 1.046 0 .42-.11.789-.333 1.107a2.174 2.174 0 0 1-.902.736c-.379.173-.803.26-1.274.26-.941 0-1.671-.278-2.19-.834-.52-.556-.78-1.353-.78-2.39 0-.729.14-1.35.421-1.867a2.835 2.835 0 0 1 1.182-1.176c.506-.269 1.093-.403 1.76-.403.352 0 .684.036.994.107.31.07.58.174.809.31l-.47.908c-.34-.21-.775-.315-1.305-.315-.66 0-1.176.191-1.548.574-.373.383-.559.936-.559 1.658v.01c.203-.223.46-.391.774-.505a3.078 3.078 0 0 1 1.059-.172zm-.216 3.15c.399 0 .722-.1.97-.301a.978.978 0 0 0 .373-.802c0-.34-.124-.608-.372-.805-.249-.198-.582-.297-1-.297-.412 0-.747.105-1.005.315a.984.984 0 0 0-.387.797c0 .315.126.576.377.782.252.207.6.31 1.044.31zm9.361-.62h-1.215v1.472H82.87v-1.473h-3.764v-.834l3.382-4.177h1.362l-3.186 3.992h2.245v-1.306h1.196v1.306h1.215v1.02zM16.846 60.028H13.2l-.755 1.62h-1.01l3.108-6.483h.97l3.117 6.484h-1.029l-.755-1.621zm-.343-.741l-1.48-3.178-1.48 3.178h2.96zm3.911-1.723c.164-.284.406-.5.726-.649.32-.148.709-.222 1.166-.222v.862a1.943 1.943 0 0 0-.216-.01c-.51 0-.91.144-1.2.431-.291.287-.436.696-.436 1.227v2.446h-.941v-4.91h.901v.825zm7.813 1.658c0 .068-.007.157-.02.269h-4.215c.059.432.26.78.603 1.042.343.262.77.393 1.28.393.62 0 1.12-.197 1.499-.593l.52.575c-.236.26-.528.457-.878.593a3.21 3.21 0 0 1-1.171.203c-.55 0-1.036-.106-1.46-.32a2.358 2.358 0 0 1-.986-.893 2.453 2.453 0 0 1-.348-1.297c0-.475.113-.905.338-1.287.226-.383.536-.681.931-.894.396-.213.842-.32 1.338-.32.497 0 .94.107 1.329.32.388.213.692.51.911.894.22.382.329.82.329 1.315zm-2.569-1.779c-.45 0-.828.13-1.132.39a1.54 1.54 0 0 0-.534 1.018h3.333a1.55 1.55 0 0 0-.534-1.014c-.304-.262-.682-.394-1.133-.394zm5.764-.75c.719 0 1.27.167 1.652.5.382.334.573.83.573 1.492v2.964h-.892V61c-.157.229-.38.403-.671.524-.291.12-.636.18-1.034.18-.582 0-1.048-.132-1.397-.398a1.252 1.252 0 0 1-.525-1.047c0-.432.167-.78.5-1.042.333-.262.863-.393 1.588-.393h1.49v-.176c0-.383-.118-.677-.353-.88-.235-.204-.581-.306-1.039-.306-.307 0-.608.048-.902.143a2.366 2.366 0 0 0-.745.385l-.392-.667c.268-.204.588-.36.96-.468a4.237 4.237 0 0 1 1.187-.162zm-.216 4.326c.36 0 .67-.076.932-.227a1.32 1.32 0 0 0 .568-.644v-.685h-1.45c-.798 0-1.196.253-1.196.76 0 .246.1.44.303.583.203.142.484.213.843.213zm19.673-2.297h2.637v.769h-2.637v-.77zM94.133 56.623c.654 0 1.172.18 1.554.537.382.359.573.89.573 1.594v2.825h-.94v-2.723c0-.476-.117-.834-.349-1.075-.232-.24-.563-.361-.995-.361-.477 0-.856.14-1.137.421-.28.281-.421.684-.421 1.21v2.528h-.941v-2.723c0-.476-.116-.834-.348-1.075-.232-.24-.564-.361-.995-.361-.477 0-.856.14-1.137.421-.281.281-.421.684-.421 1.21v2.528h-.941v-4.91h.901v.732c.19-.253.438-.446.745-.579a2.62 2.62 0 0 1 1.05-.199c.404 0 .764.077 1.077.232.314.154.556.38.726.676.196-.284.469-.506.818-.667.35-.16.743-.24 1.181-.24zM100.495 57.954c.083 0 .15.022.198.066a.225.225 0 0 1 .074.175v.437h-3.094v-.242a.413.413 0 0 1 .137-.3l1.37-1.298c.113-.11.216-.215.306-.315s.166-.2.226-.298c.06-.098.107-.198.14-.299.031-.101.048-.208.048-.32a.72.72 0 0 0-.047-.27.535.535 0 0 0-.339-.315.855.855 0 0 0-.27-.04.842.842 0 0 0-.254.037.707.707 0 0 0-.36.258.656.656 0 0 0-.093.195c-.036.09-.082.15-.138.18-.056.03-.137.036-.243.02l-.405-.068a1.52 1.52 0 0 1 .18-.537c.09-.155.202-.283.336-.387.134-.103.288-.18.461-.232a1.94 1.94 0 0 1 .56-.078c.208 0 .398.029.571.086.173.058.32.14.443.247.123.106.218.233.287.383.068.15.103.315.103.498 0 .157-.025.302-.074.436a1.773 1.773 0 0 1-.196.383c-.082.122-.178.24-.289.354-.11.114-.225.23-.346.348l-1.017.981c.098-.027.195-.048.292-.063.097-.015.189-.022.276-.022h1.157z"/>
            </g>
            <g fill="#0F1C3B" fill-rule="nonzero">
                <path d="M206.862 125.727l-1.405-2.05c-.06.007-.148.01-.266.01h-1.553v2.04h-1.278v-7h2.831c.597 0 1.116.1 1.558.3.443.2.782.487 1.018.86.236.374.354.817.354 1.33 0 .527-.126.98-.379 1.36-.252.38-.614.664-1.086.85l1.583 2.3h-1.377zm-.029-4.51c0-.446-.144-.79-.433-1.03-.288-.24-.71-.36-1.268-.36h-1.494v2.79h1.494c.557 0 .98-.121 1.268-.365.289-.243.433-.588.433-1.035zm7.53 1.87c0 .087-.007.21-.02.37h-4.119c.072.394.26.705.565.935.305.23.684.345 1.136.345.576 0 1.052-.193 1.425-.58l.659.77a2.22 2.22 0 0 1-.895.65c-.36.147-.767.22-1.219.22-.576 0-1.084-.116-1.523-.35a2.496 2.496 0 0 1-1.018-.975 2.79 2.79 0 0 1-.358-1.415c0-.52.116-.988.348-1.405.233-.416.556-.741.969-.975.413-.233.878-.35 1.396-.35.51 0 .968.115 1.37.345.404.23.718.554.944.97.227.417.34.899.34 1.445zm-2.654-1.76c-.394 0-.726.119-.998.355-.272.237-.438.552-.497.945h2.979a1.482 1.482 0 0 0-.482-.94c-.268-.24-.603-.36-1.002-.36zm6.989 4.11c-.145.12-.32.21-.526.27a2.33 2.33 0 0 1-.654.09c-.577 0-1.022-.153-1.337-.46-.314-.306-.472-.753-.472-1.34v-2.57h-.865v-1h.865v-1.22h1.229v1.22h1.406v1h-1.406v2.54c0 .26.062.459.187.595.124.137.304.205.54.205.276 0 .505-.073.688-.22l.345.89zm3.017-5.11c.774 0 1.365.189 1.775.565.41.377.614.945.614 1.705v3.13h-1.16v-.65c-.15.234-.365.412-.644.535-.278.124-.614.185-1.007.185-.394 0-.738-.068-1.033-.205a1.601 1.601 0 0 1-.683-.57 1.464 1.464 0 0 1-.24-.825c0-.48.175-.865.525-1.155.351-.29.903-.435 1.657-.435h1.356v-.08c0-.373-.11-.66-.33-.86-.219-.2-.545-.3-.977-.3a2.78 2.78 0 0 0-.87.14 2.126 2.126 0 0 0-.723.39l-.481-.91c.275-.213.606-.376.993-.49.386-.113.796-.17 1.228-.17zm-.167 4.56c.308 0 .582-.071.821-.215.24-.143.408-.348.506-.615v-.62h-1.268c-.708 0-1.061.237-1.061.71 0 .227.088.407.265.54.177.134.423.2.737.2zm4.129-4.5h1.228v5.34h-1.228v-5.34zm.619-.88a.782.782 0 0 1-.56-.215.708.708 0 0 1-.226-.535c0-.213.075-.391.226-.535a.782.782 0 0 1 .56-.215c.223 0 .41.069.56.205.151.137.226.309.226.515a.76.76 0 0 1-.786.78zm2.221-1.2h1.23v7.42h-1.23v-7.42zM128.037 125.807a4.636 4.636 0 0 1-1.499-.245c-.481-.163-.86-.375-1.135-.635l.364-.78a3 3 0 0 0 1.007.585c.41.15.83.225 1.263.225.57 0 .996-.098 1.278-.295.282-.196.423-.458.423-.785a.78.78 0 0 0-.231-.585 1.54 1.54 0 0 0-.57-.345c-.226-.08-.546-.17-.959-.27a9.751 9.751 0 0 1-1.253-.38 2.073 2.073 0 0 1-.816-.585c-.226-.263-.339-.618-.339-1.065 0-.373.097-.71.29-1.01.193-.3.487-.54.88-.72.393-.18.881-.27 1.465-.27.406 0 .806.054 1.199.16.393.107.73.26 1.012.46l-.324.8a3.53 3.53 0 0 0-1.887-.57c-.558 0-.975.104-1.254.31-.278.207-.418.474-.418.8 0 .24.08.435.236.585.158.15.353.267.585.35.233.084.55.172.949.265.518.127.934.254 1.248.38.315.127.585.32.811.58.226.26.34.61.34 1.05 0 .367-.099.702-.296 1.005-.196.304-.494.544-.894.72-.4.177-.891.265-1.475.265zm6.724-5.43c.505 0 .957.114 1.356.34.4.227.713.544.94.95.225.407.338.877.338 1.41 0 .534-.113 1.005-.339 1.415-.226.41-.539.729-.939.955-.4.227-.851.34-1.356.34a2.38 2.38 0 0 1-1.027-.22 2.143 2.143 0 0 1-.792-.64v2.74H132v-7.24h.904v.84c.21-.293.475-.515.796-.665.321-.15.675-.225 1.062-.225zm-.079 4.57a1.68 1.68 0 0 0 1.529-.895c.154-.283.23-.608.23-.975 0-.366-.076-.691-.23-.975a1.645 1.645 0 0 0-.63-.655 1.765 1.765 0 0 0-.899-.23 1.69 1.69 0 0 0-1.519.89 1.98 1.98 0 0 0-.23.97c0 .367.075.692.226.975.15.284.36.504.629.66.269.157.567.235.894.235zm5.918-4.57c.72 0 1.273.18 1.656.54.384.36.575.897.575 1.61v3.2h-.894v-.7a1.498 1.498 0 0 1-.674.565c-.291.13-.637.195-1.037.195-.583 0-1.05-.143-1.4-.43a1.389 1.389 0 0 1-.526-1.13c0-.466.167-.841.501-1.125.334-.283.865-.425 1.592-.425h1.495v-.19c0-.413-.118-.73-.354-.95-.236-.22-.584-.33-1.042-.33-.308 0-.61.052-.905.155a2.318 2.318 0 0 0-.747.415l-.393-.72c.269-.22.59-.388.963-.505.374-.116.77-.175 1.19-.175zm-.216 4.67c.36 0 .671-.081.933-.245.263-.163.453-.395.57-.695v-.74h-1.454c-.8 0-1.2.274-1.2.82 0 .267.102.477.305.63.203.154.485.23.846.23zm6.468.74c-.531 0-1.005-.116-1.42-.35a2.541 2.541 0 0 1-.979-.965 2.746 2.746 0 0 1-.354-1.395c0-.52.118-.985.354-1.395.236-.41.562-.73.978-.96.416-.23.89-.345 1.42-.345.472 0 .893.097 1.264.29.37.194.657.474.86.84l-.718.47a1.614 1.614 0 0 0-.61-.57 1.714 1.714 0 0 0-.805-.19c-.341 0-.647.077-.92.23a1.626 1.626 0 0 0-.638.655 2.009 2.009 0 0 0-.231.975c0 .374.077.702.23.985.155.284.368.502.64.655.272.154.578.23.919.23.295 0 .563-.063.806-.19.242-.126.445-.316.61-.57l.717.46c-.203.367-.49.649-.86.845-.37.197-.792.295-1.263.295zm8.05-2.68c0 .074-.006.17-.02.29h-4.226c.059.467.26.842.604 1.125.344.284.772.425 1.283.425.623 0 1.124-.213 1.504-.64l.521.62c-.236.28-.53.494-.88.64-.35.147-.742.22-1.174.22-.55 0-1.04-.115-1.465-.345a2.438 2.438 0 0 1-.988-.965 2.804 2.804 0 0 1-.349-1.4c0-.513.113-.976.34-1.39.225-.413.537-.735.933-.965.397-.23.844-.345 1.342-.345.498 0 .942.115 1.332.345.39.23.694.552.914.965.22.414.33.887.33 1.42zm-2.575-1.92c-.452 0-.83.14-1.136.42-.304.28-.483.647-.535 1.1h3.342a1.715 1.715 0 0 0-.536-1.095c-.305-.283-.683-.425-1.135-.425zm8.03-1.59H158v-.87h5.691v.87h-2.36v6.13h-.972v-6.13zm8.877.83l-2.526 5.83c-.223.54-.484.92-.782 1.14-.298.22-.657.33-1.076.33a2.24 2.24 0 0 1-.742-.125 1.519 1.519 0 0 1-.595-.365l.403-.72c.269.26.58.39.934.39a.89.89 0 0 0 .575-.185c.154-.123.293-.335.418-.635l.167-.37-2.3-5.29h.983l1.818 4.24 1.799-4.24h.924zm3.647-.05c.504 0 .957.114 1.356.34.4.227.713.544.94.95.225.407.338.877.338 1.41 0 .534-.113 1.005-.339 1.415-.226.41-.539.729-.939.955-.4.227-.852.34-1.356.34a2.38 2.38 0 0 1-1.027-.22 2.143 2.143 0 0 1-.792-.64v2.74h-.943v-7.24h.904v.84c.21-.293.475-.515.796-.665.321-.15.675-.225 1.062-.225zm-.079 4.57a1.68 1.68 0 0 0 1.529-.895c.154-.283.23-.608.23-.975 0-.366-.076-.691-.23-.975a1.645 1.645 0 0 0-.63-.655 1.765 1.765 0 0 0-.899-.23 1.69 1.69 0 0 0-1.519.89 1.98 1.98 0 0 0-.23.97c0 .367.075.692.226.975.15.284.36.504.629.66.268.157.567.235.894.235zm8.73-1.84c0 .074-.007.17-.02.29h-4.227c.059.467.26.842.604 1.125.344.284.772.425 1.283.425.623 0 1.124-.213 1.504-.64l.52.62c-.235.28-.528.494-.879.64-.35.147-.742.22-1.175.22-.55 0-1.038-.115-1.464-.345a2.438 2.438 0 0 1-.988-.965 2.804 2.804 0 0 1-.349-1.4c0-.513.113-.976.34-1.39.225-.413.536-.735.933-.965.396-.23.844-.345 1.342-.345.498 0 .942.115 1.332.345.39.23.694.552.914.965.22.414.33.887.33 1.42zm-2.576-1.92c-.452 0-.83.14-1.136.42-.304.28-.483.647-.535 1.1h3.342a1.715 1.715 0 0 0-.536-1.095c-.305-.283-.683-.425-1.135-.425zm11.48 1.38h2.645v.83h-2.644v-.83z"/>
            </g>
        </g>
        <path fill="#FFF" d="M95.681 178.889l43.247 27.523v4.364L82.983 179z" opacity=".398"/>
        <path fill="url(#e)" d="M198.345 39.969L239 8.193H28.983V.109L0 0l69.288 35.605h7.949l7.691 4.364z" transform="translate(54 170.807)"/>
    </g>
</svg>
