<svg xmlns="http://www.w3.org/2000/svg" width="52" height="52" viewBox="0 0 52 52">
    <defs>
        <linearGradient id="a" x1="16.055%" x2="84.276%" y1="14.723%" y2="85.852%">
            <stop offset="0%" stop-color="#002C78"/>
            <stop offset="100%" stop-color="#001443"/>
        </linearGradient>
    </defs>
    <g fill="none" fill-rule="evenodd">
        <circle cx="26" cy="26" r="26" fill="url(#a)"/>
        <g fill-rule="nonzero">
            <path fill="#C1E3FF" d="M42.2 31.64c.004.005.364.224.394.861.016.35-.284.808-1.303 1.19 0 0-4.294 1.764-9.33 4.983 0 0-.577.362-1.252.315-3.356-.404-6.991-.403-7.364-.39-2.168.08-4.703.335-6.99 2.401 0 0-5.38-1.207-6.355-4.432 0-.003 6.459-1.856 10.034-4.813 1.179-.976 2.42-.744 2.898-.698.696.066 2.06.601 3.96.842.985.124 2.399.212 3.715.321 2.048.17 2.708.559 2.687 1.726-.007.414-.393 1.453-2.013 1.393-.354-.013-1.202-.087-1.792-.12-.54-.031-1.474-.04-2.662 0-.28.009-.597.023-.905.039-.734.037-1.414.08-1.414.08s1.662.368 2.022.413c1.106.138 2.543.344 3.868.37 1.327.027 2.349-.146 3.012-.726.972-.956.704-1.89.54-2.4 0 0 5.74-1.692 6.132-1.751.79-.12 1.772.004 2.119.396z"/>
            <path fill="#2199FC" d="M27.898 12.136h5.752a.71.71 0 0 1 .15 1.4l-.1.017 4.357 7.179a4.777 4.777 0 0 1-3.862 7.263l-.224.005h-6.188a4.777 4.777 0 0 1-4.212-7.042l.122-.213 4.354-7.185h-.149a.712.712 0 0 1-.096-1.418l.096-.006h5.752zM31.35 18c-1.475 0-2.816 1.037-3.347 2.58h-.81a.19.19 0 0 0-.193.193v.658c0 .11.084.194.194.194h.59c-.008.135-.017.261-.017.38 0 .117.009.244.017.37h-.59a.19.19 0 0 0-.194.194v.658c0 .11.084.193.194.193h.81c.53 1.543 1.87 2.58 3.346 2.58.893 0 1.753-.37 2.41-1.045a.203.203 0 0 0 .06-.144.208.208 0 0 0-.068-.143l-.741-.649c-.076-.067-.194-.067-.262.008a1.999 1.999 0 0 1-1.408.607c-.741 0-1.45-.455-1.854-1.205h1.922a.19.19 0 0 0 .194-.194v-.658a.19.19 0 0 0-.194-.193h-2.26c-.016-.127-.016-.253-.016-.371s.008-.245.025-.38h2.25a.19.19 0 0 0 .195-.194v-.657a.19.19 0 0 0-.194-.194h-1.922c.404-.742 1.104-1.205 1.854-1.205.515 0 1.012.219 1.408.615.076.076.194.076.262.008l.733-.674c.042-.034.059-.084.067-.143a.229.229 0 0 0-.05-.144C33.095 18.371 32.243 18 31.35 18zm-2.447-9.974c1.313.376 2.656.637 4.014.78a.71.71 0 0 1 .446 1.186l-.565.954h-3.892l-.823-1.906a.71.71 0 0 1 .82-1.014z"/>
        </g>
    </g>
</svg>
