<svg xmlns="http://www.w3.org/2000/svg" width="200" height="108" viewBox="0 0 200 108">
    <g fill="none" fill-rule="evenodd">
        <path d="M0 0h201v108H0z"/>
        <g fill-rule="nonzero">
            <path fill="#F36627" d="M48 60.998V71.87h5.155V55.844L48 60.998M65.367 71.87h1.169V46.54l-1.169 1.169v24.161m2.104 0h1.169V44.89l-1.169 1.17v25.81m2.173 0h1.168V43.172l-1.168 1.168v27.53"/>
            <path fill="#494C4F" d="M64.294 71.87h-1.169V38.825l1.17 1.169v31.874m-2.174 0h-1.168V37.108l1.168 1.168V71.87m-5.72 0h1.168V61.802l-1.168-.948V71.87m-2.173 0h1.168V60.408l-1.168-.948v12.41"/>
            <path fill="#494C4F" d="M51.563 44.317v11.652l2.887-2.887.687.558 1.168.948.55.446 1.169.948.618.502v15.385h1.169V36l-8.248 8.317"/>
            <path fill="#F36627" d="M86.462 57.253h1.454c2.273 0 2.728-1.431 2.728-5.84 0-3.682-.319-5.569-2.796-5.569h-1.386v11.41zm-3.273-13.818h5.364c4.523 0 5.363 3.091 5.363 7.887 0 5.727-1.227 8.341-5.568 8.341h-5.16V43.435zm18.75 14.137c1.932 0 2.25-1.66 2.25-6.023 0-4.341-.318-6.023-2.25-6.023s-2.25 1.682-2.25 6.023c0 4.364.318 6.023 2.25 6.023zm0-14.456c4.909 0 5.523 3.5 5.523 8.433 0 4.932-.614 8.432-5.523 8.432-4.91 0-5.523-3.5-5.523-8.432s.614-8.433 5.523-8.433zm8.658.319h4.864l2.319 11.455h.045l2.341-11.455h4.841v16.228h-3V46.708h-.046l-2.886 12.955h-2.546l-2.886-12.955h-.045v12.955h-3V43.435zm20.955 0v11.318c0 1.614.363 2.82 1.91 2.82 1.544 0 1.908-1.206 1.908-2.82V43.435h3.273v11.318c0 4.115-2.523 5.228-5.182 5.228-2.66 0-5.183-.886-5.183-5.228V43.435h3.274zm12.931 11.16v.477c0 1.523.432 2.5 2.16 2.5 1 0 1.954-.637 1.954-2 0-1.455-.727-2.046-2.91-2.773-2.909-.977-4.25-2.227-4.25-4.91 0-3.181 1.91-4.773 5.023-4.773 2.91 0 5.023 1.25 5.023 4.364v.455h-3.136c0-1.546-.5-2.41-1.773-2.41-1.478 0-1.863.91-1.863 1.887 0 1 .294 1.637 1.681 2.205l2.523 1.09c2.455 1.092 3.091 2.297 3.091 4.297 0 3.432-2.09 4.977-5.636 4.977-3.706 0-5.16-1.727-5.16-4.728v-.658h3.273z"/>
            <path fill="#494C4F" d="M83.948 70.026c0 .2.034.368.102.508.068.14.162.255.283.345.12.09.26.154.417.196.157.041.327.06.511.06.198 0 .368-.021.508-.068.14-.046.254-.105.34-.178a.636.636 0 0 0 .19-.25.745.745 0 0 0 .057-.286c0-.198-.045-.344-.134-.439a.765.765 0 0 0-.294-.2 6.055 6.055 0 0 0-.641-.191c-.245-.06-.546-.14-.903-.236a1.93 1.93 0 0 1-.555-.229 1.31 1.31 0 0 1-.352-.315 1.105 1.105 0 0 1-.185-.37 1.48 1.48 0 0 1-.054-.4c0-.26.054-.486.162-.677.11-.191.253-.35.432-.476.179-.125.382-.218.61-.279a2.723 2.723 0 0 1 1.455.015c.227.065.441.172.63.316.181.14.325.313.431.518.107.206.16.444.16.715h-.907c-.024-.334-.138-.57-.34-.708-.204-.137-.463-.206-.777-.206-.106 0-.215.01-.326.032-.111.022-.213.058-.305.109a.67.67 0 0 0-.228.207.56.56 0 0 0-.091.326c0 .184.057.327.17.431.114.105.263.184.446.237.02.004.096.025.23.061.132.037.28.077.445.12l.483.127c.157.04.269.071.337.09.169.054.316.126.442.218s.231.197.316.315c.084.119.147.246.188.381.041.135.062.271.062.406 0 .29-.06.538-.178.744a1.504 1.504 0 0 1-.468.504 2.037 2.037 0 0 1-.66.287c-.246.06-.5.09-.754.09a3.115 3.115 0 0 1-.834-.11 1.941 1.941 0 0 1-.682-.333 1.628 1.628 0 0 1-.464-.576 1.926 1.926 0 0 1-.182-.83h.907zm8.022-2.835c-.275 0-.514.055-.714.167a1.4 1.4 0 0 0-.49.445 2.03 2.03 0 0 0-.28.635 2.924 2.924 0 0 0 0 1.45c.061.238.155.45.28.636.126.185.29.334.49.445.2.111.439.167.714.167.275 0 .514-.056.715-.167.196-.107.364-.26.49-.445a2.02 2.02 0 0 0 .278-.635 2.924 2.924 0 0 0 0-1.45 2.03 2.03 0 0 0-.279-.636 1.4 1.4 0 0 0-.49-.445 1.45 1.45 0 0 0-.714-.167zm0-.74c.387 0 .734.072 1.04.217.3.139.565.34.78.588.217.254.383.547.49.863.114.329.17.677.17 1.045.003.357-.055.712-.17 1.05-.106.317-.273.61-.49.864a2.295 2.295 0 0 1-.78.584 2.45 2.45 0 0 1-1.04.214 2.45 2.45 0 0 1-1.04-.214 2.295 2.295 0 0 1-.78-.584 2.6 2.6 0 0 1-.49-.863 3.195 3.195 0 0 1-.17-1.051c0-.368.057-.716.17-1.045.106-.316.273-.61.49-.863.215-.249.48-.45.78-.588a2.409 2.409 0 0 1 1.04-.217zm5.02.123h3.575v.784h-2.67v1.355h2.343v.74h-2.342v2.3h-.907v-5.179zm5.519 0h4.191v.784h-1.645v4.395h-.907v-4.395h-1.639v-.784zm5.997 0h.921l.936 3.96h.015l1.044-3.96h.928l1.016 3.96h.014l.965-3.96h.92l-1.428 5.178h-.921l-1.037-3.96h-.015l-1.058 3.96h-.937l-1.363-5.178zm9.687 3.12h1.58l-.776-2.227h-.021l-.783 2.226zm.319-3.12h.964l1.995 5.178h-.972l-.486-1.37h-2.067l-.486 1.37h-.935l1.987-5.178zm5.88 2.357h1.488c.29 0 .51-.069.66-.206.15-.138.224-.345.224-.62a.958.958 0 0 0-.072-.403.588.588 0 0 0-.2-.243.735.735 0 0 0-.29-.116 1.9 1.9 0 0 0-.337-.03h-1.472v1.618zm-.906-2.357h2.474c.57 0 .998.124 1.283.37.285.247.428.59.428 1.03 0 .247-.036.451-.109.613a1.34 1.34 0 0 1-.253.391.986.986 0 0 1-.287.214 2.221 2.221 0 0 1-.206.087v.015c.077.01.16.034.25.073.089.038.172.1.25.184.077.085.141.195.192.33.05.136.076.306.076.508 0 .305.023.582.069.83.046.25.117.427.214.534h-.972a.846.846 0 0 1-.12-.37 4.156 4.156 0 0 1-.018-.392 3.782 3.782 0 0 0-.043-.613 1.058 1.058 0 0 0-.16-.427.673.673 0 0 0-.315-.251 1.407 1.407 0 0 0-.512-.08h-1.334v2.133h-.907v-5.179zm6.818 0h3.728v.784h-2.821v1.355h2.61v.74h-2.61v1.516h2.872v.784h-3.78v-5.179zm11.53 3.12h1.58l-.776-2.227h-.022l-.782 2.226zm.319-3.12h.964l1.995 5.178h-.972l-.486-1.37h-2.067l-.486 1.37h-.936l1.988-5.178zm9.682 5.179h-.58l-.138-.61c-.242.276-.484.467-.725.574-.242.106-.52.159-.834.159-.387 0-.734-.072-1.04-.214a2.296 2.296 0 0 1-.781-.584 2.598 2.598 0 0 1-.49-.863 3.195 3.195 0 0 1-.17-1.051c0-.368.057-.716.17-1.045.107-.316.273-.61.49-.863.215-.249.481-.45.78-.588a2.413 2.413 0 0 1 1.04-.217c.28 0 .548.038.802.112.244.07.474.183.678.334.198.147.363.332.494.555.13.222.212.479.246.769h-.885a1.133 1.133 0 0 0-.156-.446 1.136 1.136 0 0 0-.301-.323 1.329 1.329 0 0 0-.406-.196 1.698 1.698 0 0 0-.471-.065c-.276 0-.514.055-.715.167-.196.107-.364.26-.49.445a2.03 2.03 0 0 0-.279.635 2.924 2.924 0 0 0 0 1.45c.06.238.154.45.28.636.125.185.288.334.49.445.2.111.438.167.714.167a1.68 1.68 0 0 0 .616-.09c.17-.06.325-.157.453-.283.124-.124.217-.274.28-.454.065-.191.099-.392.101-.594h-1.378v-.69h2.205v2.727zm-68.73-8.337h68.902v-.545H83.105v.545z"/>
        </g>
    </g>
</svg>
