<svg xmlns="http://www.w3.org/2000/svg" width="52" height="52" viewBox="0 0 52 52">
    <defs>
        <linearGradient id="a" x1="16.055%" x2="84.276%" y1="14.723%" y2="85.852%">
            <stop offset="0%" stop-color="#002C78"/>
            <stop offset="100%" stop-color="#001443"/>
        </linearGradient>
    </defs>
    <g fill="none" fill-rule="evenodd">
        <circle cx="26" cy="26" r="26" fill="url(#a)"/>
        <g fill-rule="nonzero">
            <path fill="#C1E3FF" d="M26.239 28.566a.868.868 0 0 1-.878 0l-10.992-6.49a.244.244 0 0 0-.369.21v9.859c0 1.024.83 1.855 1.855 1.855h19.89a1.856 1.856 0 0 0 1.856-1.855v-9.86a.245.245 0 0 0-.37-.21L26.24 28.566z"/>
            <path fill="#2199FC" d="M26.288 26.532l11.186-6.605a.243.243 0 0 0 .12-.228c-.08-.95-.88-1.699-1.849-1.699h-19.89c-.97 0-1.769.75-1.849 1.7-.007.091.04.179.12.227l11.186 6.605a.958.958 0 0 0 .976 0z"/>
        </g>
    </g>
</svg>
