<svg xmlns="http://www.w3.org/2000/svg" width="52" height="52" viewBox="0 0 52 52">
    <defs>
        <linearGradient id="a" x1="16.055%" x2="84.276%" y1="14.723%" y2="85.852%">
            <stop offset="0%" stop-color="#002C78"/>
            <stop offset="100%" stop-color="#001443"/>
        </linearGradient>
    </defs>
    <g fill="none" fill-rule="evenodd">
        <circle cx="26" cy="26" r="26" fill="url(#a)"/>
        <g fill-rule="nonzero">
            <g fill="#C1E3FF">
                <path d="M31.731 11L37 16.426v18.658a2.646 2.646 0 0 1-2.65 2.646l-2.469-.001-.7-1.823h2.969a1.021 1.021 0 0 0 1.026-1.022V17.16l-.154-.158h-3.899v-4.016l-.159-.163h-11.12a1.02 1.02 0 0 0-1.02 1.021l.001 17.877a21.94 21.94 0 0 1-1.824.98L17 13.642A2.643 2.643 0 0 1 19.643 11h12.088z"/>
                <path d="M22.207 20.66h9.94a.959.959 0 0 0 0-1.916h-9.94a.959.959 0 0 0 0 1.917zM22.207 24.706h9.94a.959.959 0 0 0 0-1.916h-9.94a.959.959 0 1 0 0 1.916z"/>
            </g>
            <path fill="#2199FC" d="M25.583 26.03c.008-.003.016-.002.024-.004.014-.003.027-.007.041-.007.014 0 .026.003.039.006.008.002.018 0 .027.004.002 0 .003.003.006.004.012.004.022.012.033.02.01.006.02.011.028.02.007.007.011.016.018.024.008.012.017.023.022.036l.002.003 2.029 5.284c.9-.233 1.888.32 2.266 1.305.358.933.05 1.944-.684 2.412l-.127.073 2.028 5.285c.006.017.007.03.008.045.001.01.004.02.003.03 0 .011-.004.022-.007.033-.004.013-.006.026-.011.037-.002.003-.001.005-.002.007l-.01.014-.013.014-.017.021a.192.192 0 0 1-.06.038.19.19 0 0 1-.074.012c-.007 0-.013-.003-.019-.004a.19.19 0 0 1-.055-.015c-.002-.001-.004 0-.006-.002-.444-.235-.915-.46-1.424-.662l-.39-.146-4.591-11.962a13.73 13.73 0 0 0 .807-1.814l.003-.006c.005-.011.013-.022.02-.033.007-.01.012-.02.02-.028.007-.007.016-.011.023-.017.013-.009.024-.018.037-.024.003 0 .004-.002.006-.003zm-1.155 2.35l4.37 11.383c-2.026-.629-4.636-.818-8.338.182l2.016 3.926.003.01.006.009c.003.008.002.017.004.026.003.013.006.025.006.037a.165.165 0 0 1-.004.035l-.003.018-.005.017c-.004.012-.01.021-.017.031a.18.18 0 0 1-.02.03l-.03.023-.02.016a.183.183 0 0 1-.02.009l-1.75.672-.035.01-.035.002c-.008 0-.016-.003-.025-.005a.174.174 0 0 1-.043-.01c-.009-.003-.016-.009-.024-.014l-.017-.01-.017-.013c-.007-.007-.012-.016-.018-.025-.007-.008-.014-.014-.019-.023l-2.143-4.072c-.203.072-.403.142-.611.22l-2.241-5.838c5.235-2.04 7.689-4.393 9.03-6.647zm-9.377 6.792l2.233 5.817a3.126 3.126 0 0 1-3.859-1.856 3.127 3.127 0 0 1 1.626-3.961z"/>
        </g>
    </g>
</svg>
