<svg xmlns="http://www.w3.org/2000/svg" width="200" height="108" viewBox="0 0 200 108">
    <defs>
        <linearGradient id="a" x1="49.965%" x2="49.965%" y1=".054%" y2="100.004%">
            <stop offset="0%" stop-color="#00B8F1"/>
            <stop offset="21.986%" stop-color="#06A5E5"/>
            <stop offset="21.986%" stop-color="#06A5E5"/>
            <stop offset="79.431%" stop-color="#1870C5"/>
            <stop offset="100%" stop-color="#1D61BC"/>
        </linearGradient>
    </defs>
    <g fill="none" fill-rule="evenodd">
        <path d="M0 0h201v108H0z"/>
        <path fill="url(#a)" fill-rule="nonzero" d="M0 0v39.48h40.33L79.805.004H0z" transform="translate(60 34)"/>
        <path fill="#1870C5" fill-rule="nonzero" d="M111.083 69.444v2.945h.445V71.11h.5l.805 1.278h.5l-.86-1.278c.43-.053.777-.303.777-.833 0-.58-.355-.834-1.056-.834h-1.11zm.445.39h.61c.301 0 .64.048.64.416 0 .46-.343.5-.722.5h-.528v-.917zm.555-1.473c-1.41 0-2.61 1.086-2.61 2.556 0 1.48 1.2 2.583 2.61 2.583a2.55 2.55 0 0 0 2.556-2.583c0-1.47-1.165-2.556-2.556-2.556zm0 .417c1.15 0 2.056.929 2.056 2.139 0 1.23-.905 2.139-2.056 2.139-1.17 0-2.11-.909-2.11-2.14 0-1.21.94-2.138 2.11-2.138z"/>
        <path fill="#FFF" d="M107.82 52.89h-1.73v-6.326h1.73c2.309 0 4.147.761 4.147 3.123 0 2.44-1.838 3.204-4.147 3.204m-18.618 4.522a7.185 7.185 0 0 1-2.517-.446l2.492-7.858h.053l2.44 7.88a7.334 7.334 0 0 1-2.466.424m18.157-15.988h-7.855v18.678l-6.862-18.678h-6.802L79.979 57.04c-.62-3.936-4.697-5.299-7.903-6.315-2.112-.68-4.361-1.679-4.34-2.786.017-.904 1.207-1.744 3.555-1.618 1.582.08 2.977.208 5.748 1.547l2.729-4.753c-2.528-1.292-6.031-2.103-8.897-2.109h-.018c-3.343 0-6.129 1.09-7.857 2.874-1.2 1.248-1.85 2.827-1.88 4.584-.044 2.407.842 4.115 2.697 5.482 1.57 1.15 3.573 1.89 5.342 2.445 2.182.673 3.963 1.26 3.943 2.513a1.821 1.821 0 0 1-.518 1.221c-.543.565-1.377.774-2.532.8-2.226.044-3.876-.303-6.506-1.857l-2.426 4.82a18.125 18.125 0 0 0 8.892 2.366h.41c2.755-.053 4.981-.84 6.76-2.27l.288-.25-.786 2.111h7.133l1.199-3.643c1.253.424 2.68.662 4.192.662 1.474 0 2.865-.222 4.096-.628l1.152 3.61h11.64V58.3h2.54c6.132 0 9.764-3.122 9.764-8.361 0-5.831-3.527-8.506-11.036-8.506"/>
    </g>
</svg>
