<svg xmlns="http://www.w3.org/2000/svg" width="52" height="52" viewBox="0 0 52 52">
    <defs>
        <linearGradient id="a" x1="16.055%" x2="84.276%" y1="14.723%" y2="85.852%">
            <stop offset="0%" stop-color="#002C78"/>
            <stop offset="100%" stop-color="#001443"/>
        </linearGradient>
    </defs>
    <g fill="none" fill-rule="evenodd">
        <circle cx="26" cy="26" r="26" fill="url(#a)"/>
        <g fill-rule="nonzero">
            <path fill="#C1E3FF" d="M36.484 21.25v10.938c0 .703-.547 1.25-1.25 1.25h-.731c.059-.378.099-.794.099-1.211 0-4.886-3.974-8.86-8.86-8.86-4.885 0-8.86 3.915-8.86 8.801 0 .276.016.765.056 1.27h-.688c-.703 0-1.25-.547-1.25-1.25V21.25h21.484zM24.531 15c.117 0 .235.078.313.195l.898 1.328h9.492c.703 0 1.25.547 1.25 1.25v2.149H15v-2.149c0-.703.586-1.25 1.25-1.25h1.484l.899-1.328c.039-.117.195-.195.312-.195z"/>
            <path fill="#2199FC" d="M28.36 35.742c-.157 1.406-.352 2.696-.626 3.79-1.523.39-2.382.35-3.984 0-.234-.86-.39-1.837-.547-2.852.39-.157.703-.47.86-.899 1.289.078 2.656.078 4.296-.039zm-9.61-.625c.742.156 1.523.313 2.383.43a1.537 1.537 0 0 0 1.289 1.21c.117.9.234 1.72.43 2.462-1.836-.782-3.32-2.227-4.102-4.102zm13.984 0c-.78 1.875-2.265 3.32-4.101 4.102.234-1.055.43-2.266.547-3.555 1.289-.117 2.5-.312 3.554-.547zm-10.117-.586c.508 0 .82.43.742.782-.039.351-.312.585-.664.664-.351.078-.82-.274-.82-.704 0-.039 0-.703.742-.742zm4.727-5c.078.547.547 1.016 1.133 1.133.039 1.367.039 2.89-.04 4.258-1.171.1-2.487.115-3.675.092L24.18 35c-.04-.469-.547-1.094-1.172-1.21-.04-1.25-.04-2.813.078-4.22 1.367-.117 2.812-.117 4.258-.039zm2.89.196c1.016.117 1.993.312 2.813.507.39 1.446.312 3.008 0 3.985a23.942 23.942 0 0 1-3.79.625c.079-1.328.118-2.89.04-4.219.43-.156.781-.469.937-.898zm-7.968-.118c-.078 1.407-.118 2.93-.078 4.18-.47.156-.82.508-.977.938a23.623 23.623 0 0 1-2.773-.508c-.079-.508-.586-1.875 0-3.985a24.481 24.481 0 0 1 3.828-.625zm6.562-1.132a.742.742 0 1 1 0 1.484c-.39-.078-.742-.313-.742-.82a.728.728 0 0 1 .742-.664zm-5.976-3.282a30.315 30.315 0 0 0-.547 3.594c-1.29.117-2.5.313-3.555.547.742-1.797 2.188-3.36 4.102-4.14zm5.78.04c1.837.78 3.36 2.226 4.141 4.1a34.194 34.194 0 0 0-2.421-.429c-.118-.625-.665-1.133-1.29-1.25-.117-.781-.312-1.758-.43-2.422zm-.937-.352c.117.547.39 1.836.547 2.812-.43.157-.742.508-.898.938-1.407 0-2.852 0-4.219.078.117-1.406.352-2.695.625-3.828 1.445-.39 3.047-.313 3.945 0z"/>
        </g>
    </g>
</svg>
