<svg xmlns="http://www.w3.org/2000/svg" width="52" height="52" viewBox="0 0 52 52">
    <defs>
        <linearGradient id="a" x1="16.055%" x2="84.276%" y1="14.723%" y2="85.852%">
            <stop offset="0%" stop-color="#002C78"/>
            <stop offset="100%" stop-color="#001443"/>
        </linearGradient>
    </defs>
    <g fill="none" fill-rule="evenodd">
        <circle cx="26" cy="26" r="26" fill="url(#a)"/>
        <g fill-rule="nonzero">
            <path fill="#C1E3FF" d="M20.845 31.416c.66 2.066 1.666 3.685 2.857 4.56a10.506 10.506 0 0 1-6.719-4.56zm7.649 3.98l.07.407c-.24.066-.484.124-.73.173.227-.167.447-.36.66-.58zm-.697-3.98l.485 2.772c-.579.751-1.25 1.25-1.993 1.406v-4.178h1.508zm-2.56 0v4.17c-1.424-.327-2.577-1.927-3.322-4.17h3.322zm-5.248-5.285c.037 1.507.233 2.94.549 4.224h-4.169a10.528 10.528 0 0 1-1.107-4.224zm5.248 0v4.224h-3.62c-.325-1.284-.511-2.717-.549-4.224h4.17zm5.277 0c-.005.238-.013.474-.026.708l-.368-.133c-1.466-.606-2.918.642-2.766 2.16l.005.049.252 1.44h-1.322v-4.224zm5.76 0c-.045.909-.203 1.788-.461 2.621l-4.32-1.553c.027-.35.045-.708.053-1.068zm-15.727-5.286a19.318 19.318 0 0 0-.558 4.225h-4.727c.074-1.517.465-2.94 1.107-4.225zm4.69 0v4.225h-4.169c.038-1.498.224-2.94.55-4.225h3.62zm4.728 0c.325 1.284.511 2.727.549 4.225h-4.225v-4.225zm5.201 0a10.568 10.568 0 0 1 1.108 4.225h-4.728a19.898 19.898 0 0 0-.558-4.225zm-11.446-5.62c-1.2.874-2.214 2.493-2.875 4.56h-3.862c1.526-2.318 3.927-4.002 6.737-4.56zm4.095 0a10.525 10.525 0 0 1 6.728 4.56H30.69c-.67-2.067-1.675-3.686-2.875-4.56zm-1.526.39c1.442.307 2.624 1.917 3.378 4.17h-3.378zm-1.052.01v4.16h-3.322c.745-2.234 1.908-3.825 3.322-4.16z"/>
            <path fill="#2199FC" d="M29.64 27.93c-.518-.231-1.037.23-.979.806l1.614 9.222c.115.634.98.807 1.383.23l1.614-2.536 4.265 5.072c.23.346.691.346 1.037.115l1.268-1.095c.288-.23.346-.691.115-1.037l-4.322-5.072 2.824-1.153c.634-.23.634-1.152 0-1.383l-8.818-3.17z"/>
        </g>
    </g>
</svg>
