<svg xmlns="http://www.w3.org/2000/svg" xmlns:xlink="http://www.w3.org/1999/xlink" width="340" height="80" viewBox="0 0 340 80">
    <defs>
        <path id="a" d="M0 0h340v80H0z"/>
    </defs>
    <g fill="none" fill-rule="evenodd">
        <mask id="b" fill="#fff">
            <use xlink:href="#a"/>
        </mask>
        <path fill="#000" fill-rule="nonzero" d="M131.547 53.899l-6.679-21.664h3.823l3.472 12.504 1.295 4.651c.055-.23.431-1.72 1.13-4.467l3.473-12.688h3.802L145.13 44.8l1.089 4.14 1.253-4.181 3.74-12.525h3.596l-6.822 21.664h-3.843l-3.472-12.974-.843-3.693L135.41 53.9h-3.863zm26.385-25.683v-4.223h3.699v4.223h-3.7zm0 25.683V32.235h3.699v21.664h-3.7zm9.33 0V32.235h3.328v3.08c1.603-2.38 3.918-3.57 6.946-3.57 1.315 0 2.524.235 3.627.704 1.102.47 1.928 1.084 2.476 1.846s.931 1.666 1.15 2.713c.138.68.206 1.87.206 3.57v13.32h-3.699V40.722c0-1.496-.144-2.615-.431-3.356-.288-.741-.798-1.333-1.531-1.775-.733-.442-1.593-.663-2.58-.663-1.575 0-2.934.497-4.078 1.49-1.144.992-1.716 2.876-1.716 5.65V53.9h-3.699zm37.645-7.936l3.637.47c-.397 2.488-1.414 4.436-3.051 5.844-1.637 1.407-3.648 2.111-6.031 2.111-2.987 0-5.388-.969-7.203-2.907-1.815-1.938-2.723-4.715-2.723-8.333 0-2.339.39-4.386 1.172-6.14.78-1.754 1.969-3.07 3.565-3.947 1.596-.877 3.332-1.316 5.21-1.316 2.37 0 4.308.595 5.815 1.785 1.506 1.19 2.472 2.88 2.897 5.07l-3.596.55c-.343-1.455-.949-2.55-1.819-3.284-.87-.735-1.921-1.102-3.154-1.102-1.863 0-3.377.663-4.541 1.99-1.165 1.325-1.747 3.423-1.747 6.292 0 2.91.562 5.025 1.685 6.344 1.123 1.32 2.59 1.98 4.397 1.98 1.453 0 2.665-.443 3.638-1.327.972-.884 1.589-2.244 1.85-4.08zm21.042 5.263c-1.37 1.156-2.688 1.972-3.955 2.448-1.268.476-2.627.714-4.08.714-2.397 0-4.24-.581-5.527-1.744-1.288-1.163-1.932-2.648-1.932-4.457 0-1.06.244-2.03.73-2.907a6.01 6.01 0 0 1 1.91-2.111 9.018 9.018 0 0 1 2.662-1.204c.726-.19 1.822-.374 3.288-.55 2.986-.354 5.185-.776 6.596-1.265.014-.504.02-.823.02-.96 0-1.495-.349-2.55-1.047-3.161-.946-.83-2.35-1.244-4.213-1.244-1.74 0-3.024.302-3.853.907-.829.606-1.442 1.676-1.839 3.213l-3.617-.49c.33-1.536.87-2.777 1.624-3.722.753-.945 1.842-1.673 3.267-2.183 1.425-.51 3.076-.765 4.952-.765 1.863 0 3.377.218 4.542.653 1.164.435 2.02.982 2.568 1.642.548.66.932 1.493 1.151 2.499.123.625.185 1.754.185 3.386v4.896c0 3.413.079 5.572.236 6.477.158.904.47 1.771.935 2.6h-3.863c-.383-.761-.63-1.652-.74-2.672zm-.308-8.2c-1.342.544-3.356 1.006-6.041 1.387-1.521.218-2.596.462-3.227.734-.63.272-1.116.67-1.459 1.194a3.119 3.119 0 0 0-.513 1.744c0 .979.373 1.795 1.12 2.448.746.652 1.839.979 3.277.979 1.425 0 2.692-.31 3.802-.928 1.11-.62 1.925-1.466 2.445-2.54.397-.83.596-2.053.596-3.672v-1.346zm7.994 4.406l3.657-.571c.206 1.455.778 2.57 1.716 3.345.939.776 2.25 1.163 3.935 1.163 1.7 0 2.96-.343 3.781-1.03.822-.687 1.233-1.493 1.233-2.417 0-.83-.363-1.483-1.089-1.959-.507-.326-1.767-.74-3.78-1.244-2.713-.68-4.593-1.268-5.641-1.765-1.048-.496-1.843-1.183-2.384-2.06a5.428 5.428 0 0 1-.812-2.907c0-.965.223-1.86.668-2.682a5.959 5.959 0 0 1 1.819-2.05c.575-.422 1.36-.779 2.352-1.071a11.265 11.265 0 0 1 3.196-.439c1.712 0 3.216.245 4.51.734 1.295.49 2.25 1.153 2.867 1.99.616.836 1.041 1.954 1.274 3.355l-3.617.49c-.164-1.116-.64-1.986-1.428-2.611-.787-.626-1.9-.939-3.339-.939-1.699 0-2.911.279-3.637.837-.726.557-1.09 1.21-1.09 1.958 0 .476.151.904.453 1.285.301.394.774.72 1.418.98.37.135 1.459.448 3.267.938 2.617.693 4.442 1.26 5.476 1.703 1.035.442 1.846 1.084 2.435 1.928.59.843.884 1.89.884 3.141 0 1.224-.36 2.377-1.079 3.458-.72 1.08-1.757 1.917-3.113 2.509-1.356.591-2.89.887-4.603.887-2.836 0-4.997-.585-6.483-1.754-1.487-1.17-2.435-2.904-2.846-5.202zm36.762 3.794c-1.37 1.156-2.688 1.972-3.956 2.448-1.267.476-2.627.714-4.079.714-2.397 0-4.24-.581-5.527-1.744-1.288-1.163-1.932-2.648-1.932-4.457 0-1.06.243-2.03.73-2.907a6.01 6.01 0 0 1 1.91-2.111 9.018 9.018 0 0 1 2.662-1.204c.726-.19 1.822-.374 3.288-.55 2.986-.354 5.185-.776 6.596-1.265.013-.504.02-.823.02-.96 0-1.495-.349-2.55-1.048-3.161-.945-.83-2.35-1.244-4.212-1.244-1.74 0-3.024.302-3.853.907-.829.606-1.442 1.676-1.84 3.213l-3.616-.49c.329-1.536.87-2.777 1.623-3.722.754-.945 1.843-1.673 3.268-2.183 1.424-.51 3.075-.765 4.952-.765 1.863 0 3.377.218 4.541.653 1.165.435 2.021.982 2.569 1.642.548.66.932 1.493 1.15 2.499.124.625.186 1.754.186 3.386v4.896c0 3.413.078 5.572.236 6.477.158.904.47 1.771.935 2.6h-3.863c-.384-.761-.63-1.652-.74-2.672zm-.308-8.2c-1.343.544-3.357 1.006-6.042 1.387-1.52.218-2.596.462-3.226.734-.63.272-1.116.67-1.459 1.194a3.119 3.119 0 0 0-.514 1.744c0 .979.374 1.795 1.12 2.448.747.652 1.84.979 3.278.979 1.425 0 2.692-.31 3.802-.928 1.11-.62 1.924-1.466 2.445-2.54.397-.83.596-2.053.596-3.672v-1.346z" mask="url(#b)"/>
        <g mask="url(#b)">
            <path fill="#878787" d="M69 54h41V24.937L90.636 7 69 21.944z"/>
            <path fill="#1D1D1B" d="M91 7L69 21.937V54h21.752z"/>
            <path fill="#F18648" d="M66 54h39V29.351L85.56 16 66 28.377z"/>
            <path fill="#BC3D1F" d="M66 28.38V54h19.94L86 16z"/>
            <path fill="#C6C6C6" d="M64 54h34V33.947L81 26l-17 7.947z"/>
            <path fill="#FFF" d="M81.005 26L99 33.95V54H81z"/>
        </g>
    </g>
</svg>
