<svg xmlns="http://www.w3.org/2000/svg" width="200" height="108" viewBox="0 0 200 108">
    <g fill="none" fill-rule="evenodd">
        <path d="M0 0h201v108H0z"/>
        <g fill="#004482" fill-rule="nonzero">
            <path d="M42.953 53.108L39.08 50.94V39.061l3.872 2.27v11.777zm-3.872 15.77V56.534L60.527 39.06V51.73L39.081 68.878zM155.068 39.73h5.635l-4.561 21.851h-5.696l4.622-21.851zm-21.183 16.946h3.77c2.21 0 3.892-.852 5.048-2.554.892-1.338 1.338-2.879 1.338-4.663 0-3.202-1.44-4.804-4.338-4.804h-3.284l-2.534 12.02zm-2.088-16.946h8.19c6.506 0 9.75 3.08 9.75 9.223 0 3.628-1.034 6.567-3.122 8.858-2.31 2.513-5.534 3.75-9.69 3.75h-9.79l4.662-21.831zm-18.851 9.648h4.54c2.555 0 3.832-.993 3.832-2.98 0-1.5-1.034-2.23-3.082-2.23h-4.195l-1.095 5.21zm-3.69-9.648H120c2.27 0 3.932.365 5.027 1.074 1.338.892 2.007 2.412 2.007 4.581 0 3.588-1.662 5.635-4.987 6.101v.041c1.48.365 2.23 1.581 2.23 3.649 0 .567-.02 1.297-.06 2.169-.041.871-.062 1.52-.062 1.905 0 1.135.122 1.905.365 2.31h-5.756c-.122-.567-.183-.972-.183-1.236 0-.344.02-.932.06-1.763.041-.831.062-1.5.062-2.027 0-1.966-.953-2.94-2.838-2.94h-3.79l-1.663 7.967h-5.696l4.54-21.831zM91.582 53.473h5.027l-.851-7.905h-.04l-4.136 7.905zm2.412-13.743h5.777l3.588 21.851h-5.757l-.527-3.872h-7.743l-2.19 3.872h-5.979L93.993 39.73zM72.486 53.33L67.42 39.75h5.899l2.614 9.081 6.122-9.081h6.872L78.122 53.372l-1.744 8.21h-5.635l1.743-8.25z"/>
        </g>
    </g>
</svg>
