<svg xmlns="http://www.w3.org/2000/svg" width="52" height="52" viewBox="0 0 52 52">
    <defs>
        <linearGradient id="a" x1="16.055%" x2="84.276%" y1="14.723%" y2="85.852%">
            <stop offset="0%" stop-color="#002C78"/>
            <stop offset="100%" stop-color="#001443"/>
        </linearGradient>
    </defs>
    <g fill="none" fill-rule="evenodd">
        <circle cx="26" cy="26" r="26" fill="url(#a)"/>
        <g fill-rule="nonzero">
            <path fill="#2199FC" d="M27.763 14v4.863c0 1.097.89 1.986 1.987 1.986h4.863v9.925a5.032 5.032 0 0 0-4.746 6.71h-11.86A1.008 1.008 0 0 1 17 36.476V15.008c0-.557.451-1.008 1.008-1.008h9.755zm.557 19.57H20.3c-.201 0-.365.219-.365.49 0 .27.164.488.365.488h8.02c.201 0 .364-.219.364-.489s-.163-.49-.364-.49zm2.868-3.396H20.425a.49.49 0 0 0 0 .978h10.763a.49.49 0 1 0 0-.978zm0-3.454H20.425a.49.49 0 0 0 0 .979h10.763a.49.49 0 1 0 0-.979zm0-3.396H20.425a.49.49 0 1 0 0 .979h10.763a.49.49 0 1 0 0-.979zM26.5 19.93h-6.28c-.157 0-.285.219-.285.489s.128.489.286.489H26.5c.157 0 .285-.219.285-.49 0-.27-.128-.488-.285-.488zM28.742 14l5.87 5.871H29.75a1.008 1.008 0 0 1-1.008-1.008V14z"/>
            <path fill="#C1E3FF" d="M34.613 31.613a4.194 4.194 0 1 1 0 8.387 4.194 4.194 0 0 1 0-8.387zm1.702 2.516l-2.158 2.157-1.042-1.042-.599.599 1.641 1.64 2.757-2.755-.6-.599z"/>
        </g>
    </g>
</svg>
