<svg xmlns="http://www.w3.org/2000/svg" width="52" height="52" viewBox="0 0 52 52">
    <defs>
        <linearGradient id="a" x1="16.055%" x2="84.276%" y1="14.723%" y2="85.852%">
            <stop offset="0%" stop-color="#002C78"/>
            <stop offset="100%" stop-color="#001443"/>
        </linearGradient>
    </defs>
    <g fill="none" fill-rule="evenodd">
        <circle cx="26" cy="26" r="26" fill="url(#a)"/>
        <g fill-rule="nonzero">
            <path fill="#C1E3FF" d="M36.371 20.31l2.032-2.42a.557.557 0 0 0-.068-.784l-1.638-1.375a.555.555 0 0 0-.783.07l-1.89 2.253a11.906 11.906 0 0 0-5.415-2.187v-2h2.415a.49.49 0 0 0 .491-.49v-1.886a.49.49 0 0 0-.49-.491h-8.093a.49.49 0 0 0-.49.49v1.887c0 .271.22.49.49.49h2.416v1.99a11.939 11.939 0 0 0-5.424 2.185l-1.881-2.241a.555.555 0 0 0-.782-.07l-1.639 1.375a.555.555 0 0 0-.068.783l2.024 2.413a11.96 11.96 0 0 0-1.636 2.757.972.972 0 1 0 1.79.757 10.02 10.02 0 0 1 9.247-6.128c5.533 0 10.035 4.5 10.035 10.035 0 5.533-4.502 10.034-10.035 10.034h-.004c-.734 0-1.468-.08-2.179-.238a.973.973 0 0 0-.421 1.899 12.06 12.06 0 0 0 2.6.283h.004c6.605 0 11.98-5.373 11.98-11.978a11.92 11.92 0 0 0-2.588-7.413z"/>
            <path fill="#2199FC" d="M29.034 28.093c3.275-3.896 3.471-5.022 3.25-5.244-.222-.22-1.348-.027-5.244 3.25-1.854 1.559-1.27 2.453-.865 2.859.407.406 1.3.99 2.859-.865z"/>
            <path fill="#C1E3FF" d="M20.737 26.08H10.111c-.614 0-1.111.498-1.111 1.111v1.382c0 .614.497 1.111 1.111 1.111h10.626c.614 0 1.111-.497 1.111-1.11V27.19c0-.613-.497-1.111-1.11-1.111z"/>
            <path fill="#2199FC" d="M20.737 30.603H10.111A1.11 1.11 0 0 0 9 31.713v1.382a1.11 1.11 0 0 0 1.111 1.111h10.626c.614 0 1.111-.497 1.111-1.111v-1.381c0-.614-.497-1.111-1.11-1.111z"/>
            <path fill="#C1E3FF" d="M20.737 35.126H10.111A1.11 1.11 0 0 0 9 36.236v1.382a1.11 1.11 0 0 0 1.111 1.11h10.626c.614 0 1.111-.496 1.111-1.11v-1.381a1.11 1.11 0 0 0-1.11-1.111z"/>
        </g>
    </g>
</svg>
