<svg xmlns="http://www.w3.org/2000/svg" width="52" height="52" viewBox="0 0 52 52">
    <defs>
        <linearGradient id="a" x1="16.055%" x2="84.276%" y1="14.723%" y2="85.852%">
            <stop offset="0%" stop-color="#002C78"/>
            <stop offset="100%" stop-color="#001443"/>
        </linearGradient>
    </defs>
    <g fill="none" fill-rule="evenodd">
        <circle cx="26" cy="26" r="26" fill="url(#a)"/>
        <path fill="#2199FC" d="M13.762 21.768c2.324-2.357 6.148-2.357 8.497 0a5.996 5.996 0 0 1 1.4 6.32l8.047 8.101c.25.251.5 1.856.025 2.333l-8.147-8.201c-.525-.527-1.35.275-.8.827l8.248 8.252c-1.25.526-2.85 1.454-3.974-1.154-.25 0-.45.025-.65-.15l-.25-.276c-.275-.276-.175-1.129-.175-1.53-.375 0-1.25.1-1.524-.176l-.925-.928c-.175-.175-.175-.351-.175-.577-.225 0-.4.025-.575-.15l-.85-.878c-.224-.2-.174-.502-.174-.777-.275 0-.55.05-.75-.151l-.95-.953c-2.2.803-4.649.25-6.298-1.405a6.04 6.04 0 0 1 0-8.527zm.587 3.156a1.828 1.828 0 0 0 2.575 0c.707-.708.707-1.84 0-2.575a1.828 1.828 0 0 0-2.575 0c-.708.736-.708 1.867 0 2.575z"/>
        <path fill="#C1E3FF" fill-rule="nonzero" d="M31.494 17.794l-3.247 1.835L25 21.465l.035-3.724.053-3.741 3.194 1.906zM39.965 17.794l-3.247 1.835-3.247 1.836.035-3.724.053-3.741 3.194 1.906z"/>
    </g>
</svg>
