<svg xmlns="http://www.w3.org/2000/svg" xmlns:xlink="http://www.w3.org/1999/xlink" width="68" height="69" viewBox="0 0 68 69">
    <defs>
        <linearGradient id="a" x1="84.343%" x2="10.909%" y1="86.704%" y2="17.937%">
            <stop offset="0%" stop-color="#2199FC"/>
            <stop offset="100%" stop-color="#8CCBFF"/>
        </linearGradient>
        <circle id="c" cx="34" cy="34" r="26"/>
        <filter id="b" width="148.1%" height="148.1%" x="-24%" y="-22.1%" filterUnits="objectBoundingBox">
            <feOffset dy="1" in="SourceAlpha" result="shadowOffsetOuter1"/>
            <feGaussianBlur in="shadowOffsetOuter1" result="shadowBlurOuter1" stdDeviation="4"/>
            <feColorMatrix in="shadowBlurOuter1" result="shadowMatrixOuter1" values="0 0 0 0 0 0 0 0 0 0 0 0 0 0 0 0 0 0 0.2 0"/>
            <feOffset dy="3" in="SourceAlpha" result="shadowOffsetOuter2"/>
            <feGaussianBlur in="shadowOffsetOuter2" result="shadowBlurOuter2" stdDeviation="2"/>
            <feColorMatrix in="shadowBlurOuter2" result="shadowMatrixOuter2" values="0 0 0 0 0 0 0 0 0 0 0 0 0 0 0 0 0 0 0.12 0"/>
            <feOffset dy="3" in="SourceAlpha" result="shadowOffsetOuter3"/>
            <feGaussianBlur in="shadowOffsetOuter3" result="shadowBlurOuter3" stdDeviation="1.5"/>
            <feColorMatrix in="shadowBlurOuter3" result="shadowMatrixOuter3" values="0 0 0 0 0 0 0 0 0 0 0 0 0 0 0 0 0 0 0.14 0"/>
            <feMerge>
                <feMergeNode in="shadowMatrixOuter1"/>
                <feMergeNode in="shadowMatrixOuter2"/>
                <feMergeNode in="shadowMatrixOuter3"/>
            </feMerge>
        </filter>
        <linearGradient id="d" x1="6.66%" x2="93.046%" y1="16.763%" y2="83.237%">
            <stop offset="0%" stop-color="#002C78"/>
            <stop offset="100%" stop-color="#001443"/>
        </linearGradient>
    </defs>
    <g fill="none" fill-rule="evenodd">
        <circle cx="34" cy="34" r="34" fill="url(#a)"/>
        <use fill="#000" filter="url(#b)" xlink:href="#c"/>
        <use fill="#FAFAFA" xlink:href="#c"/>
        <g fill="url(#d)" transform="translate(17 20)">
            <path fill-rule="nonzero" d="M29.165 4.428a.891.891 0 1 1 0-1.782.891.891 0 0 1 0 1.782zM32.146.314c1.069 0 1.934.867 1.935 1.934v2.58a1.936 1.936 0 0 1-1.935 1.935H6.522a1.935 1.935 0 0 1-1.934-1.935V2.249c0-1.068.866-1.935 1.934-1.935h25.624zM7.972 5.23V1.845h-.966V5.23h.966zm2.74 0V1.845h-.966V5.23h.966zm2.74 0V1.845h-.967V5.23h.967zm2.74 0V1.845h-.967V5.23h.966zm2.82-.968a.725.725 0 1 0 0 0zm2.273 0a.725.725 0 1 0-.001-1.451.725.725 0 0 0 0 1.45zm2.272 0a.726.726 0 1 0 0-1.452.726.726 0 0 0 0 1.452zm5.608.968a1.693 1.693 0 1 0 0-3.385 1.693 1.693 0 0 0 0 3.385zm2.981 2.819c1.069 0 1.934.866 1.934 1.934v2.58a1.934 1.934 0 0 1-1.934 1.933H19.062v-4.494l-.009-.051c-.067-.83-.665-1.445-1.551-1.902h14.644zm-10.861 3.949a.725.725 0 1 0-.001-1.451.725.725 0 0 0 0 1.45zm2.272 0a.726.726 0 1 0 0-1.451.726.726 0 0 0 0 1.45zm5.608.967a1.692 1.692 0 1 0 0-3.385 1.692 1.692 0 0 0 0 3.385zm2.981 2.82c1.069 0 1.934.867 1.934 1.935v2.578a1.934 1.934 0 0 1-1.934 1.934H19.062v-6.447h13.084zm-10.861 3.948a.724.724 0 1 0 0-1.45.726.726 0 0 0 0 1.45zm2.272 0a.725.725 0 1 0 .002-1.449.725.725 0 0 0-.002 1.45zm5.608.967a1.692 1.692 0 1 0 0-3.385 1.692 1.692 0 0 0 0 3.385zm0-8.537a.891.891 0 1 1 0-1.782.891.891 0 0 1 0 1.782zm0 7.737a.892.892 0 1 1 0-1.783.892.892 0 0 1 0 1.783zM9.326 7.681c4.185 0 8.68.735 8.809 2.343.005-.012.006-.02.006-.02v3.92c0 1.169-3.947 2.116-8.815 2.116-4.87 0-8.815-.947-8.815-2.117v-3.822c-.008-.062 0-.098 0-.098v.092c0-1.659 4.57-2.413 8.815-2.413zm0 4.05c5.201 0 8.039-1.082 8.039-1.636 0-.554-2.838-1.636-8.039-1.636-5.202 0-8.039 1.082-8.039 1.636 0 .554 2.838 1.635 8.04 1.635zm0 5.653c4.868 0 8.815-.947 8.815-2.117v4.479c0 1.17-3.947 2.116-8.815 2.116-4.87 0-8.815-.947-8.815-2.116v-4.479c0 1.17 3.946 2.117 8.815 2.117zm0 5.825c4.868 0 8.815-.95 8.815-2.117v4.479c0 1.169-3.947 2.116-8.815 2.116-4.87 0-8.815-.947-8.815-2.116v-4.479c0 1.168 3.946 2.117 8.815 2.117z"/>
        </g>
    </g>
</svg>
