<svg xmlns="http://www.w3.org/2000/svg" width="120" height="120" viewBox="0 0 120 120">
    <defs>
        <linearGradient id="a" x1="100%" x2="0%" y1="60.455%" y2="38.096%">
            <stop offset="0%" stop-color="#0053F5"/>
            <stop offset="100%" stop-color="#2199FC"/>
        </linearGradient>
        <linearGradient id="b" x1="12.193%" x2="93.046%" y1="15.564%" y2="87.99%">
            <stop offset="0%" stop-color="#002C78"/>
            <stop offset="100%" stop-color="#001443"/>
        </linearGradient>
    </defs>
    <g fill="none" fill-rule="evenodd">
        <path fill="url(#a)" d="M23.002 45.175a9.992 9.992 0 0 1 9.823-10.173 9.982 9.982 0 0 1 9.159 5.605l2.234-.039c.471-.008.742.37 1.071.688.318-.33.605-.746 1.106-.726l2.028-.065c.412-.007.592.225.862.485.26-.269.462-.478.874-.485l2.176-.038c.647-.012 1.578 1.12 2.027 1.553.463-.48 1.325-1.612 1.972-1.623l.617-.04c.442.021.652.282.952.571 4.351-1.811 5.197 1.145 6.086 3.218l-19.38.309c-1.294.023-1.231 1.933.004 1.912l19.203-.365c.02 1.118-2.13 2.744-2.718 2.754l-18.967.36a9.92 9.92 0 0 1-8.956 5.922c-5.529.097-10.107-4.324-10.173-9.823zm5.51-2.774c-1.47.026-2.625 1.223-2.629 2.723a2.686 2.686 0 0 0 2.723 2.63c1.5-.056 2.655-1.253 2.63-2.723a2.686 2.686 0 0 0-2.723-2.63z" transform="matrix(1 0 0 -1 3 100)"/>
        <path fill="url(#b)" fill-rule="nonzero" d="M86.291 13.487A46.303 46.303 0 0 1 100 46.43c0 25.641-20.787 46.428-46.429 46.428v-5.952c22.355 0 40.477-18.122 40.477-40.476 0-11.011-4.422-21.291-12.04-28.806l-4.766 4.603-3.12-16.42 16.259 3.732-4.09 3.95zm-54.96 50.88l4.631-3.74a22.566 22.566 0 0 0 17.61 8.42c12.492 0 22.618-10.126 22.618-22.618 0-12.493-10.126-22.62-22.619-22.62a22.514 22.514 0 0 0-14.65 5.385l-3.857-4.533a28.465 28.465 0 0 1 18.507-6.804c15.78 0 28.572 12.792 28.572 28.572S69.35 75 53.57 75c-8.747 0-16.85-3.96-22.24-10.634zM56.615.097l-.385 5.94a41.13 41.13 0 0 0-2.659-.086c-22.354 0-40.476 18.122-40.476 40.477 0 11.24 4.6 21.738 12.585 29.332l-4.102 4.313C12.424 71.367 7.143 59.316 7.143 46.43 7.143 20.787 27.93 0 53.57 0c1.019 0 2.034.033 3.044.098zm43.341 93.354H81.548V87.5h18.408v-6.453l13.978 9.162-13.978 9.103v-5.86zm-55.313-.296H0v-5.952h44.643v5.952z" transform="translate(3 10)"/>
    </g>
</svg>
