<svg xmlns="http://www.w3.org/2000/svg" xmlns:xlink="http://www.w3.org/1999/xlink" width="68" height="69" viewBox="0 0 68 69">
    <defs>
        <linearGradient id="a" x1="84.343%" x2="10.909%" y1="86.704%" y2="17.937%">
            <stop offset="0%" stop-color="#2199FC"/>
            <stop offset="100%" stop-color="#8CCBFF"/>
        </linearGradient>
        <circle id="c" cx="34" cy="34" r="26"/>
        <filter id="b" width="148.1%" height="148.1%" x="-24%" y="-22.1%" filterUnits="objectBoundingBox">
            <feOffset dy="1" in="SourceAlpha" result="shadowOffsetOuter1"/>
            <feGaussianBlur in="shadowOffsetOuter1" result="shadowBlurOuter1" stdDeviation="4"/>
            <feColorMatrix in="shadowBlurOuter1" result="shadowMatrixOuter1" values="0 0 0 0 0 0 0 0 0 0 0 0 0 0 0 0 0 0 0.2 0"/>
            <feOffset dy="3" in="SourceAlpha" result="shadowOffsetOuter2"/>
            <feGaussianBlur in="shadowOffsetOuter2" result="shadowBlurOuter2" stdDeviation="2"/>
            <feColorMatrix in="shadowBlurOuter2" result="shadowMatrixOuter2" values="0 0 0 0 0 0 0 0 0 0 0 0 0 0 0 0 0 0 0.12 0"/>
            <feOffset dy="3" in="SourceAlpha" result="shadowOffsetOuter3"/>
            <feGaussianBlur in="shadowOffsetOuter3" result="shadowBlurOuter3" stdDeviation="1.5"/>
            <feColorMatrix in="shadowBlurOuter3" result="shadowMatrixOuter3" values="0 0 0 0 0 0 0 0 0 0 0 0 0 0 0 0 0 0 0.14 0"/>
            <feMerge>
                <feMergeNode in="shadowMatrixOuter1"/>
                <feMergeNode in="shadowMatrixOuter2"/>
                <feMergeNode in="shadowMatrixOuter3"/>
            </feMerge>
        </filter>
        <linearGradient id="e" x1="11.814%" x2="82.22%" y1="8.132%" y2="91.427%">
            <stop offset="0%" stop-color="#002C78"/>
            <stop offset="100%" stop-color="#001443"/>
        </linearGradient>
        <path id="d" d="M27.891 46.2a.376.376 0 0 0 .177-.182l.754-1.626c.27-.62.58-1.254.58-1.255.083-.17.042-.39-.104-.55a.499.499 0 0 0-.543-.165c-.02.007-1.73.581-3.56.957a18.956 18.956 0 0 1-.584-.786c5.038-.821 7.711-3.509 8.023-3.84.856-.856.74-2.364-.26-3.364s-2.508-1.115-3.375-.248c-.095.103-2.283 2.44-6.786 2.85-.129-.346-.252-.703-.37-1.07.106.078.236.12.364.107 3.604-.38 5.524-2.063 6.035-2.578 1.221-1.222 3.353-1.08 4.75.319 1.4 1.399 1.562 3.512.357 4.717-.875.928-2.494 2.815-3.503 5.03l-.587 1.256c-.084.182-.026.41.128.564a.57.57 0 0 0 .123.094c.242.14.522.073.627-.15l.587-1.26c1-2.195 2.688-4.105 3.358-4.816 1.54-1.54 1.33-4.257-.468-6.055s-4.533-1.988-6.107-.413c-.326.327-2.122 1.982-5.542 2.342a.386.386 0 0 0-.314.213c-.816-2.802-1.29-6.197-1.29-10.379l13.868-5.506 13.87 5.506c0 16.415-7.314 20.704-13.87 24.593-2.125-1.26-4.329-2.562-6.338-4.306zm-.715-.65c-.436-.413-.861-.85-1.271-1.316a33.56 33.56 0 0 0 2.127-.547l-.091.207-.75 1.618a.405.405 0 0 0-.015.038zm-3.157-3.853a19.484 19.484 0 0 1-.537-.92 14.89 14.89 0 0 0 4.654-1.36c.221-.108.284-.39.14-.63-.144-.238-.438-.349-.66-.242-1.409.685-2.955 1.124-4.608 1.311-.146-.3-.286-.61-.422-.928 4.721-.478 7.057-2.975 7.148-3.074.513-.514 1.419-.444 2.018.156.6.6.67 1.505.15 2.026-.308.325-2.923 2.946-7.883 3.661zm16.945-7.647a.52.52 0 0 0 .511.148c.239-.074.343-.338.232-.591-.673-1.533-1.724-3.022-3.125-4.422-1.411-1.411-2.9-2.463-4.425-3.126-.252-.11-.516-.005-.589.234-.072.239.075.522.329.632 1.391.606 2.759 1.575 4.064 2.88 1.296 1.297 2.265 2.664 2.88 4.067.03.067.073.128.123.178zm-11.18-6.214a.562.562 0 0 0 .35.166c2.494.177 4.77 1.23 6.584 3.043 1.82 1.82 2.875 4.098 3.048 6.586a.577.577 0 0 0 .508.516.396.396 0 0 0 .443-.434c-.19-2.748-1.358-5.269-3.378-7.288-2.012-2.012-4.531-3.18-7.283-3.375a.396.396 0 0 0-.436.441c.01.132.073.253.164.345zM36.31 43.05c.2.2.501.224.672.052 2.91-2.909 2.513-8.04-.884-11.436a10.097 10.097 0 0 0-1.69-1.363c-.236-.152-.521-.1-.638.115-.117.216-.02.513.218.666a8.975 8.975 0 0 1 1.49 1.203c2.997 2.997 3.347 7.523.78 10.09-.172.172-.148.473.052.673zM24.714 31.456c.198.198.496.224.668.057 1.277-1.23 3.003-1.835 4.862-1.7a7.685 7.685 0 0 1 1.877.375c.26.085.508-.047.555-.296.047-.25-.126-.521-.384-.607a8.72 8.72 0 0 0-2.126-.425c-2.106-.151-4.058.53-5.499 1.918-.175.169-.155.47.041.672l.006.006zm-2.272 3.315a.532.532 0 0 0 .474.157l.54-.112c1.383-.383 2.52-.994 3.303-1.783.95-.95 2.244-1.417 3.643-1.317 1.404.1 2.765.744 3.833 1.812 1.15 1.15 1.819 2.673 1.832 4.178.003.262.22.503.482.542.263.037.474-.143.473-.404-.016-1.777-.806-3.576-2.166-4.937-1.264-1.263-2.874-2.025-4.533-2.143-1.652-.118-3.174.43-4.305 1.561-.665.67-1.71 1.227-2.915 1.56l-.514.107c-.248.052-.376.303-.285.561.03.083.078.157.138.218zm9.437 11.187a.63.63 0 0 0 .119.093c.241.141.522.076.629-.146l.737-1.554c.668-1.127 1.507-2.005 2.006-2.53l.161-.169c.46-.46.822-1.003 1.075-1.612.095-.227-.028-.519-.274-.652-.246-.13-.521-.052-.617.177-.213.515-.52.973-.917 1.37l-.164.174c-.524.548-1.398 1.465-2.127 2.698l-.755 1.584c-.086.181-.028.412.127.567zm-2.727-7.584c.175.175.437.22.618.097.937-.64 1.407-1.16 1.426-1.18.164-.181.12-.463-.081-.674-.208-.193-.508-.203-.67-.023-.004.004-.438.478-1.292 1.063-.2.136-.225.43-.056.655a.655.655 0 0 0 .055.062zM18 24.897v-.4L34.229 18l16.23 6.498v.4c0 7.984-1.48 13.918-4.324 18.437-2.254 3.582-5.055 6.014-9.501 8.765-.582.36-1.007.617-2.102 1.272l-.303.18-.303-.18c-1.093-.654-1.518-.91-2.1-1.27-4.447-2.752-7.248-5.183-9.502-8.765C19.481 38.817 18 32.883 18 24.897zm1.182.4c.048 7.572 1.472 13.169 4.141 17.411 2.141 3.402 4.817 5.725 9.125 8.39.517.32.912.56 1.78 1.08.872-.522 1.266-.76 1.785-1.081 4.307-2.666 6.983-4.988 9.123-8.39 2.67-4.243 4.093-9.839 4.141-17.41L34.23 19.27l-15.047 6.025z"/>
    </defs>
    <g fill="none" fill-rule="evenodd">
        <circle cx="34" cy="34" r="34" fill="url(#a)"/>
        <use fill="#000" filter="url(#b)" xlink:href="#c"/>
        <use fill="#FAFAFA" xlink:href="#c"/>
        <use fill="url(#e)" fill-rule="nonzero" xlink:href="#d"/>
    </g>
</svg>
