<svg xmlns="http://www.w3.org/2000/svg" width="187" height="40" viewBox="0 0 187 40">
    <g fill="none" fill-rule="nonzero">
        <path fill="#737373" d="M66.007 23.039l-1.114 3.163H64.8a22.478 22.478 0 0 0-1.084-3.101L57.741 8.062h-5.852v23.969h3.87v-14.79c0-.93 0-1.985-.03-3.288-.031-.65-.093-1.147-.124-1.519h.093c.185.93.402 1.613.557 2.047l7.183 17.488h2.724l7.12-17.643c.156-.404.31-1.21.465-1.892h.093a224.007 224.007 0 0 0-.186 4.31v15.194h4.118V8h-5.635l-6.13 15.039zm15.666-8.28h4.025v17.179h-4.025V14.76zm2.044-7.255a2.41 2.41 0 0 0-1.703.682c-.465.434-.712.992-.712 1.674 0 .652.247 1.21.712 1.644.464.434 1.021.651 1.703.651.68 0 1.269-.248 1.702-.651.465-.434.712-.992.712-1.644 0-.65-.247-1.209-.712-1.674-.402-.434-.99-.682-1.702-.682zm16.254 7.1a11.21 11.21 0 0 0-2.26-.247c-1.827 0-3.499.403-4.892 1.209-1.393.806-2.508 1.922-3.22 3.318-.743 1.426-1.115 3.07-1.115 4.961 0 1.643.372 3.1 1.084 4.434.712 1.302 1.703 2.357 3.034 3.07 1.27.713 2.756 1.085 4.427 1.085 1.92 0 3.56-.403 4.861-1.147l.031-.031v-3.721l-.155.124c-.588.434-1.269.806-1.95 1.023-.712.248-1.362.372-1.92.372-1.61 0-2.879-.465-3.777-1.488-.929-.992-1.393-2.357-1.393-4.062 0-1.768.464-3.163 1.424-4.186.96-1.023 2.23-1.55 3.777-1.55 1.3 0 2.632.434 3.84 1.302l.154.124v-3.938l-.03-.031c-.527-.217-1.115-.465-1.92-.62zm13.282-.123c-.991 0-1.92.31-2.725.96-.681.559-1.145 1.365-1.548 2.326h-.03V14.76h-4.026v17.178h4.025v-8.775c0-1.489.31-2.729.99-3.628.682-.93 1.549-1.395 2.602-1.395.371 0 .743.093 1.207.155.433.124.743.248.96.403l.155.124V14.79l-.093-.031c-.279-.186-.836-.28-1.517-.28zm10.96-.093c-2.818 0-5.078.837-6.657 2.48-1.61 1.644-2.384 3.907-2.384 6.76 0 2.667.805 4.837 2.353 6.419 1.548 1.55 3.653 2.356 6.285 2.356 2.756 0 4.954-.837 6.533-2.512 1.61-1.674 2.384-3.907 2.384-6.666 0-2.729-.743-4.9-2.26-6.48-1.456-1.582-3.592-2.357-6.254-2.357zm3.22 13.209c-.744.961-1.92 1.426-3.375 1.426s-2.632-.465-3.468-1.488c-.836-.961-1.238-2.357-1.238-4.124 0-1.83.433-3.225 1.238-4.217.836-.992 1.982-1.489 3.437-1.489 1.424 0 2.539.466 3.344 1.427.804.961 1.238 2.356 1.238 4.186-.062 1.86-.403 3.318-1.177 4.279zm14.272-5.706c-1.27-.527-2.074-.93-2.446-1.27-.31-.31-.464-.745-.464-1.303 0-.465.186-.93.65-1.24.464-.31.99-.466 1.765-.466.68 0 1.393.124 2.074.31.681.187 1.3.466 1.796.838l.155.124V15.1l-.093-.031a11.158 11.158 0 0 0-1.827-.527 12.393 12.393 0 0 0-1.981-.186c-1.92 0-3.499.465-4.737 1.488-1.239.961-1.827 2.264-1.827 3.783 0 .806.124 1.52.403 2.108.278.59.68 1.148 1.238 1.613.557.434 1.362.93 2.477 1.395.929.403 1.64.713 2.074.961.434.248.712.528.929.745.155.248.248.558.248.96 0 1.148-.867 1.706-2.632 1.706-.681 0-1.393-.124-2.23-.403a8.608 8.608 0 0 1-2.26-1.147l-.154-.124v3.938l.093.03c.588.28 1.3.466 2.167.683.867.155 1.64.28 2.322.28 2.074 0 3.777-.466 4.985-1.49 1.238-.992 1.888-2.263 1.888-3.906 0-1.148-.31-2.17-.99-2.946a12.55 12.55 0 0 0-3.623-2.14zm15.233-7.503c-2.818 0-5.078.837-6.657 2.48-1.579 1.644-2.384 3.907-2.384 6.76 0 2.667.805 4.837 2.353 6.419 1.548 1.55 3.653 2.356 6.285 2.356 2.756 0 4.954-.837 6.533-2.512 1.61-1.674 2.384-3.907 2.384-6.666 0-2.729-.743-4.9-2.26-6.48-1.456-1.582-3.592-2.357-6.254-2.357zm3.188 13.209c-.743.961-1.919 1.426-3.374 1.426-1.486 0-2.632-.465-3.468-1.488-.836-.961-1.238-2.357-1.238-4.124 0-1.83.433-3.225 1.238-4.217.836-.992 1.982-1.489 3.437-1.489 1.393 0 2.539.466 3.344 1.427.805.961 1.238 2.356 1.238 4.186 0 1.86-.403 3.318-1.177 4.279zm26.843-9.52V14.76h-4.056V9.674l-.124.031-3.839 1.148-.093.03v3.877h-6.068v-2.17c0-.993.248-1.768.681-2.264.434-.497 1.084-.745 1.889-.745.557 0 1.145.124 1.796.403l.154.094V6.574l-.092-.031c-.558-.186-1.3-.31-2.26-.31-1.208 0-2.26.279-3.22.744a5.374 5.374 0 0 0-2.199 2.201c-.526.93-.805 1.985-.805 3.194v2.388h-2.817v3.287h2.817v13.891h4.056v-13.86h6.068v8.837c0 3.628 1.703 5.457 5.109 5.457.557 0 1.145-.093 1.703-.186.588-.124 1.021-.279 1.27-.403l.03-.031v-3.318l-.155.124c-.247.155-.464.28-.836.372a2.83 2.83 0 0 1-.805.124c-.805 0-1.362-.186-1.764-.65-.372-.435-.558-1.148-.558-2.202v-8.124h4.118z"/>
        <path fill="#F25022" d="M0 0h18.979v19.008H0z"/>
        <path fill="#7FBA00" d="M20.96 0H39.94v19.008H20.96z"/>
        <path fill="#00A4EF" d="M0 20.992h18.979V40H0z"/>
        <path fill="#FFB900" d="M20.96 20.992H39.94V40H20.96z"/>
    </g>
</svg>
