<svg xmlns="http://www.w3.org/2000/svg" width="120" height="120" viewBox="0 0 120 120">
    <defs>
        <linearGradient id="a" x1="6.66%" x2="93.046%" y1=".01%" y2="99.99%">
            <stop offset="0%" stop-color="#002C78"/>
            <stop offset="100%" stop-color="#001443"/>
        </linearGradient>
        <linearGradient id="b" x1="68.852%" x2="31.148%" y1="93.915%" y2="0%">
            <stop offset="0%" stop-color="#0053F5"/>
            <stop offset="100%" stop-color="#2199FC"/>
        </linearGradient>
    </defs>
    <g fill="none" fill-rule="evenodd">
        <path fill="url(#a)" fill-rule="nonzero" d="M47.004 83.539h-2v-4.884L33.26 86.35l11.742 7.647v-4.899h2c13.728-.004 26.592-6.7 34.447-17.911.024-.035.024-.08-.014-.137l-3.25-4.976A36.603 36.603 0 0 1 47.004 83.54zm2-83.528v4.883h-2c-13.728.004-26.592 6.7-34.448 17.911-.023.035-.023.08.015.138l3.25 4.975a36.603 36.603 0 0 1 31.181-17.464h2.001V15.345l11.733-7.64L49.003.011zm40.133 48.986v-2c-.007-13.73-6.707-26.594-17.922-34.447-.035-.024-.08-.024-.14.016l-4.983 3.242a36.603 36.603 0 0 1 17.525 31.186l.003 2.003h-4.896l7.637 11.735 7.637-11.735h-4.861zM22.934 81.415l4.989-3.237a36.603 36.603 0 0 1-17.462-31.18v-2.001h4.884L7.65 33.255.002 44.997h4.899v2a42.102 42.102 0 0 0 17.897 34.44c.034.02.078.017.136-.022z" transform="translate(13 13)"/>
        <path fill="url(#b)" d="M49.121 60.596H44.88l1.185-5.375a2.71 2.71 0 0 1-1.746-2.54c0-1.496 1.2-2.71 2.681-2.71s2.682 1.214 2.682 2.71a2.71 2.71 0 0 1-1.747 2.54l1.186 5.375zm10.877-16.54H34.003c0 9.663-.003 18.192-.003 18.214 0 2.34 7.342 6.042 13 6.073 5.658-.03 13-3.734 13-6.073l-.002-18.214zm-22.59-1.292v-7.071C37.407 30.34 41.701 26 47 26c5.299 0 9.594 4.34 9.594 9.693v7.071H52.54v-7.071c0-3.086-2.485-5.597-5.54-5.597s-5.54 2.51-5.54 5.597v7.071h-4.053z" transform="translate(13 13)"/>
    </g>
</svg>
