<svg xmlns="http://www.w3.org/2000/svg" width="120" height="120" viewBox="0 0 120 120">
    <defs>
        <linearGradient id="a" x1="20.102%" x2="79.898%" y1="0%" y2="100%">
            <stop offset="0%" stop-color="#002C78"/>
            <stop offset="100%" stop-color="#001443"/>
        </linearGradient>
        <linearGradient id="b" x1="95.634%" x2="4.366%" y1="93.915%" y2="0%">
            <stop offset="0%" stop-color="#0053F5"/>
            <stop offset="100%" stop-color="#2199FC"/>
        </linearGradient>
    </defs>
    <g fill="none" fill-rule="evenodd">
        <path fill="url(#a)" fill-rule="nonzero" d="M76.062 16.668c.355 0 .913-.006 1.266-.011 0 .695-.018 36.16-.018 38.492.117 10.379-4.43 30.97-38.637 44.851l-.009-.004-.008.004C4.448 86.12-.1 65.528.018 55.15.018 52.816 0 17.351 0 16.656c.354.005.911.01 1.266.01 17.035 0 31.578-6.915 37.398-16.667 5.821 9.752 20.364 16.668 37.398 16.668zM71.07 35.286l.006-12.55c-13.04-.96-24.778-5.646-32.41-12.896-7.634 7.25-19.372 11.937-32.412 12.895l.006 12.551v.669c.006 11.626.01 18.207.009 19.265-.064 5.683 1.505 11.675 5.414 17.6 5.128 7.77 13.853 14.721 26.982 20.407C51.794 87.541 60.52 80.59 65.647 72.82c3.909-5.924 5.478-11.916 5.413-17.67l.009-19.194v-.669zm-23.017 23.02c.196-.414.371-.842.524-1.282 1.567-1.869 2.672-4.441 2.672-6.912 0-1.122-.083-1.926-.4-2.77a4.758 4.758 0 0 0-.433-.873l-.028-2.013c0-.462-.048-1.073-.18-1.793a11.329 11.329 0 0 0-1.246-3.504c-1.88-3.364-5.358-5.407-10.21-5.409-4.854.003-8.332 2.045-10.212 5.409a11.328 11.328 0 0 0-1.246 3.504c-.132.72-.18 1.33-.18 1.793l-.028 2.013c-.172.271-.317.564-.434.874-.317.843-.4 1.647-.4 2.769 0 2.473 1.108 5.048 2.677 6.917.161.454.345.894.55 1.318-.823.109-1.274.244-1.184.409-1.15.676-3.065 1.6-5.237 2.337l-.255-.246-1.47-1.415c-.574-.492-.638-1.353-.19-1.968l2.426-3.323a14.422 14.422 0 0 1-1.916-4.306l-4.215-.677c-.767-.123-1.341-.8-1.15-1.66v-4.061c0-.43.128-.8.447-1.108.256-.246.575-.369.894-.43l4.152-.615a15.605 15.605 0 0 1 1.852-4.368l-2.49-3.384c-.448-.615-.384-1.415.19-1.969l1.47-1.415 1.469-1.415c.51-.553 1.405-.615 2.043-.184l3.45 2.337a16.32 16.32 0 0 1 4.598-1.845l.702-4c.064-.368.192-.614.447-.86.32-.246.703-.431 1.15-.431h4.215c.767 0 1.47.554 1.597 1.292l.702 3.999c1.597.369 3.13.984 4.535 1.784l3.449-2.338a1.684 1.684 0 0 1 2.044.123l1.469 1.415 1.469 1.415c.574.492.638 1.354.191 1.969l-2.427 3.322c.83 1.415 1.47 2.83 1.852 4.368l4.152.677c.766.123 1.341.8 1.341 1.538v4.06c0 .43-.128.8-.447 1.108-.256.246-.575.369-.894.43l-4.152.677a15.605 15.605 0 0 1-1.852 4.368l2.427 3.322c.447.615.383 1.415-.191 1.969l-1.47 1.415-.383.369c-2.363-.8-4.406-1.846-5.62-2.522.043-.076-.183-.144-.616-.205z" transform="translate(21 10)"/>
        <path fill="url(#b)" d="M2.682 27.935c2.115-2.693 6.336-3.555 9.706-5.304 1.042 5.165 2.091 9.251 5.73 13.9.354.452.505.518.633.518.13 0 .28-.066.634-.519 3.639-4.648 4.687-8.733 5.73-13.899 3.37 1.749 7.589 2.612 9.703 5.304 1.875 2.419 2.664 4.785 2.681 7.168v.244c-.002.165-.007.33-.016.495-.065 1.112-1.327 1.472-2.261 1.698-5.705 1.015-11.243 1.719-16.47 1.713-5.228.006-10.769-.698-16.474-1.713-.934-.226-2.196-.586-2.26-1.698A11.328 11.328 0 0 1 0 35.103c.017-2.383.806-4.75 2.68-7.168zm8.181-20.96S10.764.006 18.75 0c7.986.004 7.887 6.976 7.887 6.976l.052 3.71c.653-.009.81.636.81 1.926 0 1.934-1.185 3.955-2.256 5-.028.114-.07.247-.11.379-.948 3.073-3.415 5.34-6.378 5.428-2.963-.088-5.437-2.357-6.39-5.428-.033-.114-.076-.246-.108-.38-1.072-1.044-2.255-3.065-2.255-4.999 0-1.29.156-1.935.81-1.926l.051-3.71zm6.292 18.513h3.185c.182-.003.342.19.306.37l-.48 2.453a.32.32 0 0 1-.307.249h-2.223a.32.32 0 0 1-.306-.25l-.48-2.452c-.034-.18.123-.373.305-.37zm.237 3.94a.314.314 0 0 1 .27-.24H19.8c.137 0 .273.106.303.24l.6 2.6a37.597 37.597 0 0 1-1.96 3.622 39.23 39.23 0 0 1-1.946-3.626l.595-2.596z" transform="translate(41 47.5)"/>
    </g>
</svg>
