<svg xmlns="http://www.w3.org/2000/svg" width="120" height="120" viewBox="0 0 120 120">
    <defs>
        <linearGradient id="a" x1="11.332%" x2="93.046%" y1="12.678%" y2="87.322%">
            <stop offset="0%" stop-color="#002C78"/>
            <stop offset="100%" stop-color="#001443"/>
        </linearGradient>
        <linearGradient id="b" x1="0%" y1="84.499%" y2="15.501%">
            <stop offset="0%" stop-color="#0053F5"/>
            <stop offset="100%" stop-color="#2199FC"/>
        </linearGradient>
    </defs>
    <g fill="none" fill-rule="nonzero">
        <path fill="url(#a)" d="M64.426 26.083V55.25H7.709V20.667c0-2.084 1.67-3.75 3.759-3.75h32.994v5.333H13.055V50H59.08V26.083h5.346zm0 31.917l7.267 15.833c1.17 2.5-.668 5.334-3.425 5.334H3.783c-2.757 0-4.594-2.834-3.425-5.334L7.708 58h56.718zM44.212 73.333c.5 0 .919-.416.751-.916l-.918-3.584a.802.802 0 0 0-.752-.583h-14.45a.802.802 0 0 0-.753.583l-.919 3.584c-.083.416.251.916.752.916h16.289z" transform="translate(21 20)"/>
        <path fill="url(#b)" d="M77.04 0c.5 0 .918.417.918.917v9.25c0 .5-.418.916-.919.916h-9.272a.926.926 0 0 1-.919-.916V.917c0-.5.418-.917.92-.917h9.271zM55.99 13.5a.926.926 0 0 1-.92-.917V5c0-.5.418-.917.92-.917h7.6c.502 0 .92.417.92.917v7.583c0 .5-.418.917-.92.917h-7.6zm17.958 0c.502 0 .92.417.92.917v6.166c0 .5-.418.917-.92.917h-6.18a.926.926 0 0 1-.92-.917v-6.166c0-.5.418-.917.92-.917h6.18zm-10.44 2.417c.5 0 .918.416.918.916V23c0 .5-.418.917-.919.917h-6.181a.926.926 0 0 1-.919-.917v-6.167c0-.5.418-.916.919-.916h6.181zm-15.537 8c-.502 0-.92-.417-.92-.834v-5.166c0-.5.418-.917.92-.917h5.178c.502 0 .92.417.92.917V23c0 .5-.418.917-.92.917h-5.178zm-1.086 8.416a.926.926 0 0 1-.92-.916V27.25c0-.5.418-.917.92-.917h4.176c.501 0 .919.417.919.917v4.167c0 .5-.418.916-.919.916h-4.176zm-6.933-4.5h2.673c.5 0 .918.417.918.917v2.667c0 .5-.417.916-.918.916h-2.673a.926.926 0 0 1-.92-.916V28.75c0-.5.418-.917.92-.917z" transform="translate(21 20)"/>
    </g>
</svg>
