<svg xmlns="http://www.w3.org/2000/svg" width="120" height="120" viewBox="0 0 120 120">
    <defs>
        <linearGradient id="a" x1="30.365%" x2="69.501%" y1="0%" y2="100%">
            <stop offset="0%" stop-color="#002C78"/>
            <stop offset="100%" stop-color="#001443"/>
        </linearGradient>
        <linearGradient id="b" x1="59.184%" x2="40.816%" y1="20.033%" y2="93.915%">
            <stop offset="0%" stop-color="#0053F5"/>
            <stop offset="100%" stop-color="#2199FC"/>
        </linearGradient>
    </defs>
    <g fill="none" fill-rule="nonzero">
        <path fill="url(#a)" d="M51.699 33.689c-.265.677-.972 1.1-1.767 1.185H33.59c-1.943 0-3.621 1.524-3.621 3.471l-1.944 38.353C27.847 78.561 26.257 80 24.314 80h-11.22c-1.943 0-3.621-1.44-3.71-3.302L8.06 54.347c-2.12-.254-4.24-.508-5.83-.847-1.414-.338-2.386-1.608-2.21-2.963l1.59-14.054c.62-5.927 5.743-10.33 11.927-10.33h38.515c1.237 0 2.12 1.186 1.679 2.287l-2.032 5.249zm-33.237-12.15c-5.948 0-10.77-4.822-10.77-10.77C7.692 4.822 12.514 0 18.462 0 24.409 0 29.23 4.822 29.23 10.77c0 5.947-4.822 10.768-10.77 10.768z" transform="translate(25 20)"/>
        <path fill="url(#b)" d="M70.77 49.645h-7.544V26.154L47.692 56.509h7.545V80z" transform="translate(25 20)"/>
    </g>
</svg>
