<svg xmlns="http://www.w3.org/2000/svg" xmlns:xlink="http://www.w3.org/1999/xlink" width="40" height="40" viewBox="0 0 40 40">
    <defs>
        <path id="a" d="M6.691 8.62v14.883H1.737V8.619h4.954zm.326-4.605c0 1.43-1.075 2.573-2.803 2.573h-.031c-1.663 0-2.739-1.144-2.739-2.573 0-1.46 1.108-2.57 2.803-2.57 1.695 0 2.738 1.11 2.77 2.57zM24.556 14.97v8.534h-4.954V15.54c0-2-.717-3.365-2.51-3.365-1.369 0-2.184.92-2.542 1.809-.13.319-.163.762-.163 1.207v8.312H9.433s.065-13.487 0-14.883h4.954v2.108c.658-1.014 1.835-2.458 4.465-2.458 3.26 0 5.704 2.128 5.704 6.7z"/>
    </defs>
    <g fill="none" fill-rule="evenodd">
        <circle cx="20" cy="20" r="20" fill="#0176B5"/>
        <use fill="#FFF" transform="translate(7.143 7.143)" xlink:href="#a"/>
    </g>
</svg>
