<svg xmlns="http://www.w3.org/2000/svg" width="200" height="108" viewBox="0 0 200 108">
    <g fill="none" fill-rule="evenodd">
        <path d="M0 0h201v108H0z"/>
        <g fill-rule="nonzero">
            <path fill="#17458A" d="M48.431 62.237h-.039l-2.154 6.132h4.345l-2.152-6.132zm-1.638-2.98h3.363l5.836 14.864h-3.3l-1.278-3.406h-6.026l-1.302 3.406H41l5.793-14.865zM58.142 58.146h2.855v15.975h-2.855zM65.363 65.241h-2.107v-2.09h2.107v-2.193l2.853-.916v3.11h2.535v2.09h-2.535v5.107c0 .939.256 1.81 1.34 1.81.512 0 1.004-.101 1.303-.295l.082 2.257c-.594.169-1.256.255-2.108.255-2.234 0-3.47-1.386-3.47-3.556V65.24zM83.208 74.12h-2.702v-1.493h-.044c-.872 1.066-2.108 1.75-3.598 1.75-2.6 0-3.728-1.833-3.728-4.304V63.15h2.853v5.857c0 1.341.019 3.15 1.853 3.15 2.065 0 2.513-2.234 2.513-3.639v-5.368h2.853v10.97zM93.09 65.454c-.872-.3-1.512-.47-2.556-.47-.765 0-1.681.276-1.681 1.212 0 1.748 4.964.638 4.964 4.599 0 2.558-2.28 3.581-4.603 3.581-1.088 0-2.193-.19-3.24-.468l.172-2.344c.895.446 1.834.727 2.814.727.722 0 1.871-.281 1.871-1.343 0-2.155-4.96-.681-4.96-4.642 0-2.367 2.063-3.408 4.3-3.408 1.343 0 2.218.212 3.111.404l-.192 2.152z"/>
            <path fill="#7599D7" d="M109.597 62.13c-1.151-.53-2.643-.79-3.835-.79-3.473 0-5.387 2.346-5.387 5.39 0 3.025 1.875 5.303 5.042 5.303.813 0 1.452-.087 1.964-.213v-3.876h-3.155v-2.342h6.008v8.007c-1.576.425-3.216.767-4.817.767-4.811 0-8.151-2.407-8.151-7.435 0-5.09 3.109-7.943 8.15-7.943 1.73 0 3.094.238 4.368.62l-.187 2.512zM113.49 63.151h2.528v2.495h.048c.13-1.026 1.302-2.748 3.004-2.748.272 0 .574 0 .875.082v2.876c-.26-.149-.77-.233-1.281-.233-2.321 0-2.321 2.896-2.321 4.475v4.023h-2.854V63.15zM126.832 72.158c2.198 0 2.771-1.957 2.771-3.787 0-1.681-.895-3.26-2.77-3.26-1.85 0-2.746 1.62-2.746 3.26 0 1.81.575 3.787 2.745 3.787m0-9.26c3.26 0 5.752 2.19 5.752 5.811 0 3.155-2.108 5.667-5.752 5.667-3.616 0-5.724-2.512-5.724-5.667 0-3.62 2.492-5.811 5.724-5.811M144.767 74.12h-2.705v-1.493h-.04c-.876 1.066-2.11 1.75-3.601 1.75-2.595 0-3.728-1.833-3.728-4.304V63.15h2.858v5.857c0 1.341.018 3.15 1.855 3.15 2.06 0 2.512-2.234 2.512-3.639v-5.368h2.849v10.97zM150.453 68.604c0 1.556.621 3.554 2.52 3.554 1.872 0 2.402-2.044 2.402-3.554 0-1.469-.511-3.493-2.366-3.493-1.825 0-2.556 1.962-2.556 3.493zm-2.872-5.453h2.73v1.558h.037c.644-1.069 1.724-1.811 3.412-1.811 3.365 0 4.596 2.681 4.596 5.706 0 3.004-1.23 5.772-4.662 5.772-1.213 0-2.216-.299-3.219-1.514h-.04v5.73h-2.854v-15.44z"/>
            <path fill="#17458A" d="M82.345 40.707l-3.75 3.288-5.504 4.845 7.127.002 11.513-.002-.05-.014-9.336-8.119zm26.756.04c-1.126.059-6.773.406-10.796 1.612-6.6 1.98-6.72 5.272-6.57 6.48h26.581l-9.215-8.093zM95.703 29L92.5 31.798 82.363 40.69h26.677L95.703 29z"/>
        </g>
    </g>
</svg>
