<svg xmlns="http://www.w3.org/2000/svg" xmlns:xlink="http://www.w3.org/1999/xlink" width="68" height="69" viewBox="0 0 68 69">
    <defs>
        <linearGradient id="a" x1="84.343%" x2="10.909%" y1="86.704%" y2="17.937%">
            <stop offset="0%" stop-color="#2199FC"/>
            <stop offset="100%" stop-color="#8CCBFF"/>
        </linearGradient>
        <circle id="c" cx="34" cy="34" r="26"/>
        <filter id="b" width="148.1%" height="148.1%" x="-24%" y="-22.1%" filterUnits="objectBoundingBox">
            <feOffset dy="1" in="SourceAlpha" result="shadowOffsetOuter1"/>
            <feGaussianBlur in="shadowOffsetOuter1" result="shadowBlurOuter1" stdDeviation="4"/>
            <feColorMatrix in="shadowBlurOuter1" result="shadowMatrixOuter1" values="0 0 0 0 0 0 0 0 0 0 0 0 0 0 0 0 0 0 0.2 0"/>
            <feOffset dy="3" in="SourceAlpha" result="shadowOffsetOuter2"/>
            <feGaussianBlur in="shadowOffsetOuter2" result="shadowBlurOuter2" stdDeviation="2"/>
            <feColorMatrix in="shadowBlurOuter2" result="shadowMatrixOuter2" values="0 0 0 0 0 0 0 0 0 0 0 0 0 0 0 0 0 0 0.12 0"/>
            <feOffset dy="3" in="SourceAlpha" result="shadowOffsetOuter3"/>
            <feGaussianBlur in="shadowOffsetOuter3" result="shadowBlurOuter3" stdDeviation="1.5"/>
            <feColorMatrix in="shadowBlurOuter3" result="shadowMatrixOuter3" values="0 0 0 0 0 0 0 0 0 0 0 0 0 0 0 0 0 0 0.14 0"/>
            <feMerge>
                <feMergeNode in="shadowMatrixOuter1"/>
                <feMergeNode in="shadowMatrixOuter2"/>
                <feMergeNode in="shadowMatrixOuter3"/>
            </feMerge>
        </filter>
        <linearGradient id="d" x1="21.697%" x2="78.303%" y1="10.306%" y2="100%">
            <stop offset="0%" stop-color="#002C78"/>
            <stop offset="100%" stop-color="#001443"/>
        </linearGradient>
    </defs>
    <g fill="none" fill-rule="evenodd">
        <g>
            <circle cx="34" cy="34" r="34" fill="url(#a)"/>
            <use fill="#000" filter="url(#b)" xlink:href="#c"/>
            <use fill="#FAFAFA" xlink:href="#c"/>
        </g>
        <path fill="url(#d)" fill-rule="nonzero" d="M45.287 47.451h-.822V31.74a.884.884 0 0 0-.885-.885h-2.087v-10.97a.884.884 0 0 0-.885-.885h-6.386a.884.884 0 0 0-.885.885V47.42h-1.075V23.173a.75.75 0 0 0-.948-.727l-6.67 1.928a.75.75 0 0 0-.538.727v22.35h-.821a.283.283 0 0 0-.285.285v.98c0 .158.126.284.285.284h22.002a.283.283 0 0 0 .284-.285v-.98a.283.283 0 0 0-.284-.284zM25.972 26.555c0-.095.063-.158.158-.158h4.14c.096 0 .159.063.159.158v.822c0 .095-.063.158-.158.158h-4.173c-.095 0-.158-.063-.158-.158v-.822h.032zm0 2.593c0-.095.063-.159.158-.159h4.14c.096 0 .159.064.159.159v.821c0 .095-.063.159-.158.159h-4.173c-.095 0-.158-.064-.158-.159v-.821h.032zm0 2.592c0-.095.063-.158.158-.158h4.14c.096 0 .159.063.159.158v.822c0 .094-.063.158-.158.158h-4.173c-.095 0-.158-.064-.158-.158v-.822h.032zm0 2.592c0-.095.063-.158.158-.158h4.14c.096 0 .159.063.159.158v.822c0 .095-.063.158-.158.158h-4.173c-.095 0-.158-.063-.158-.158v-.822h.032zm0 2.592c0-.095.063-.158.158-.158h4.14c.096 0 .159.063.159.158v.822c0 .095-.063.158-.158.158h-4.173c-.095 0-.158-.063-.158-.158v-.822h.032zm0 2.624c0-.095.063-.158.158-.158h4.14c.096 0 .159.063.159.158v.79c0 .095-.063.158-.158.158h-4.173c-.095 0-.158-.063-.158-.158v-.79h.032zm0 2.592c0-.095.063-.158.158-.158h4.14c.096 0 .159.063.159.158v.822c0 .095-.063.158-.158.158h-4.173c-.095 0-.158-.063-.158-.158v-.822h.032zm0 2.592c0-.094.063-.158.158-.158h4.14c.096 0 .159.064.159.158v.822c0 .095-.063.158-.158.158h-4.173c-.095 0-.158-.063-.158-.158v-.822h.032zm15.142-11.728c0-.158.126-.284.284-.284h.885c.159 0 .285.126.285.284v.885a.283.283 0 0 1-.285.285h-.885a.283.283 0 0 1-.284-.285v-.885zm0 2.972c0-.158.126-.285.284-.285h.885c.159 0 .285.127.285.285v.885a.283.283 0 0 1-.285.284h-.885a.283.283 0 0 1-.284-.284v-.885zm0 2.971c0-.158.126-.284.284-.284h.885c.159 0 .285.126.285.284v.885a.283.283 0 0 1-.285.285h-.885a.283.283 0 0 1-.284-.285v-.885zm0 2.972c0-.158.126-.285.284-.285h.885c.159 0 .285.127.285.285v.885a.283.283 0 0 1-.285.285h-.885a.283.283 0 0 1-.284-.285v-.885zm-.285 2.655c.158 0 .285.127.285.285v2.56h-1.929v-2.876h1.644v.031zM38.174 21.15c0-.158.126-.285.284-.285h.886c.158 0 .284.127.284.285v.885a.283.283 0 0 1-.284.284h-.886a.283.283 0 0 1-.284-.284v-.885zm0 2.971c0-.158.126-.284.284-.284h.886c.158 0 .284.126.284.284v.885a.283.283 0 0 1-.284.285h-.886a.283.283 0 0 1-.284-.285v-.885zm0 2.972c0-.158.126-.285.284-.285h.886c.158 0 .284.127.284.285v.885a.283.283 0 0 1-.284.284h-.886a.283.283 0 0 1-.284-.284v-.885zm0 2.971c0-.158.126-.284.284-.284h.886c.158 0 .284.126.284.284v.885a.283.283 0 0 1-.284.285h-.886a.283.283 0 0 1-.284-.285v-.885zm0 2.94c0-.158.126-.284.284-.284h.886c.158 0 .284.126.284.284v.885a.283.283 0 0 1-.284.285h-.886a.283.283 0 0 1-.284-.285v-.885zm0 2.972c0-.158.126-.285.284-.285h.886c.158 0 .284.127.284.285v.885a.283.283 0 0 1-.284.284h-.886a.283.283 0 0 1-.284-.284v-.885zm0 2.971c0-.158.126-.284.284-.284h.886c.158 0 .284.126.284.284v.885a.283.283 0 0 1-.284.285h-.886a.283.283 0 0 1-.284-.285v-.885zm0 2.972c0-.158.126-.285.284-.285h.886c.158 0 .284.127.284.285v.885a.283.283 0 0 1-.284.285h-.886a.283.283 0 0 1-.284-.285v-.885zm-2.972-20.77c0-.157.127-.284.285-.284h.885c.158 0 .284.127.284.285v.885a.283.283 0 0 1-.284.284h-.885a.283.283 0 0 1-.285-.284v-.885zm0 2.972c0-.158.127-.284.285-.284h.885c.158 0 .284.126.284.284v.885a.283.283 0 0 1-.284.285h-.885a.283.283 0 0 1-.285-.285v-.885zm0 2.972c0-.158.127-.285.285-.285h.885c.158 0 .284.127.284.285v.885a.283.283 0 0 1-.284.284h-.885a.283.283 0 0 1-.285-.284v-.885zm0 2.971c0-.158.127-.284.285-.284h.885c.158 0 .284.126.284.284v.885a.283.283 0 0 1-.284.285h-.885a.283.283 0 0 1-.285-.285v-.885zm0 2.94c0-.158.127-.284.285-.284h.885c.158 0 .284.126.284.284v.885a.283.283 0 0 1-.284.285h-.885a.283.283 0 0 1-.285-.285v-.885zm0 2.972c0-.158.127-.285.285-.285h.885c.158 0 .284.127.284.285v.885a.283.283 0 0 1-.284.284h-.885a.283.283 0 0 1-.285-.284v-.885zm0 2.971c0-.158.127-.284.285-.284h.885c.158 0 .284.126.284.284v.885a.283.283 0 0 1-.284.285h-.885a.283.283 0 0 1-.285-.285v-.885zm0 2.972c0-.158.127-.285.285-.285h.885c.158 0 .284.127.284.285v.885a.283.283 0 0 1-.284.285h-.885a.283.283 0 0 1-.285-.285v-.885zm1.486 2.971c0-.158.127-.284.285-.284h1.643v2.877h-1.928V44.89z"/>
    </g>
</svg>
