<svg xmlns="http://www.w3.org/2000/svg" width="200" height="108" viewBox="0 0 200 108">
    <g fill="none" fill-rule="evenodd">
        <path d="M0 0h201v108H0z"/>
        <g fill="#F80000" fill-rule="nonzero">
            <path d="M88.11 56.581h9.034l-4.776-7.685L83.6 62.791h-3.99l10.663-16.69a2.52 2.52 0 0 1 2.094-1.082c.828 0 1.601.393 2.05 1.054l10.706 16.718h-3.99l-1.882-3.105h-9.147l-1.995-3.105zm41.446 3.105V45.187h-3.386v15.918c0 .436.169.857.492 1.18a1.73 1.73 0 0 0 1.236.506h15.44l1.996-3.105h-15.778zm-56.015-2.599c3.288 0 5.957-2.655 5.957-5.943a5.96 5.96 0 0 0-5.957-5.957H58.73v17.604h3.384V48.292h11.203a2.842 2.842 0 0 1 2.838 2.852 2.842 2.842 0 0 1-2.838 2.852l-9.545-.014 10.107 8.81h4.918l-6.8-5.705h1.545zm-35.647 5.704c-4.86 0-8.804-3.934-8.804-8.795 0-4.86 3.944-8.809 8.804-8.809h10.232c4.86 0 8.802 3.948 8.802 8.81 0 4.86-3.941 8.794-8.802 8.794H37.894zm10.004-3.105a5.69 5.69 0 0 0 5.699-5.69 5.702 5.702 0 0 0-5.699-5.704H38.12a5.703 5.703 0 0 0-5.699 5.704 5.691 5.691 0 0 0 5.699 5.69h9.778zm64.293 3.105c-4.86 0-8.809-3.934-8.809-8.795 0-4.86 3.948-8.809 8.81-8.809h12.152l-1.981 3.105h-9.947a5.708 5.708 0 0 0-5.704 5.704c0 3.147 2.557 5.69 5.704 5.69h12.209l-1.995 3.105H112.19zm41.404-3.105a5.69 5.69 0 0 1-5.48-4.144h14.472l1.995-3.105h-16.466a5.706 5.706 0 0 1 5.479-4.145h9.933l2.009-3.105H153.37c-4.861 0-8.809 3.948-8.809 8.81 0 4.86 3.948 8.794 8.81 8.794h10.438l1.995-3.105h-12.21zM167.35 47.056a1.54 1.54 0 0 1 1.545-1.545c.87 0 1.56.688 1.56 1.545 0 .871-.69 1.56-1.56 1.56a1.544 1.544 0 0 1-1.546-1.56zm1.545 1.995a1.979 1.979 0 0 0 1.98-1.981 1.979 1.979 0 0 0-1.98-1.98 1.976 1.976 0 0 0-1.967 1.98c0 1.096.885 1.981 1.967 1.981zm-.183-3.161c.31 0 .436.014.576.07.393.127.436.478.436.618 0 .028 0 .099-.028.183a.57.57 0 0 1-.267.38c-.028.013-.043.027-.099.055l.506.914h-.492l-.45-.843h-.308v.843h-.436v-2.22h.562zm.155 1.011c.14-.014.28-.014.365-.14a.298.298 0 0 0 .056-.197c0-.112-.07-.21-.168-.267-.099-.042-.197-.042-.408-.042h-.126v.646h.28z"/>
        </g>
    </g>
</svg>
