<svg xmlns="http://www.w3.org/2000/svg" width="52" height="52" viewBox="0 0 52 52">
    <defs>
        <linearGradient id="a" x1="16.055%" x2="84.276%" y1="14.723%" y2="85.852%">
            <stop offset="0%" stop-color="#002C78"/>
            <stop offset="100%" stop-color="#001443"/>
        </linearGradient>
    </defs>
    <g fill="none" fill-rule="evenodd">
        <circle cx="26" cy="26" r="26" fill="url(#a)"/>
        <g fill-rule="nonzero">
            <path fill="#C1E3FF" d="M13.004 29.267c0 1.417 4.787 2.567 10.694 2.567.461 0 .916-.007 1.362-.02a15.753 15.753 0 0 0 2.29 5.298c-1.139.1-2.37.155-3.652.155-5.793 0-10.51-1.105-10.689-2.486l-.005-.082v-5.432zm0-7.066c0 1.419 4.787 2.568 10.694 2.568.422 0 .839-.006 1.248-.018-.18.353-.28.751-.28 1.175v2.39c0 .63.038 1.255.112 1.871-.355.01-.715.014-1.08.014-5.793 0-10.51-1.105-10.689-2.486l-.005-.081V22.2zM23.698 13c5.076 0 10.529.89 10.685 2.841l.005-.018.002-.007v4.218a2.622 2.622 0 0 0-2.272.727l-.414.414a7.446 7.446 0 0 1-2.322 1.571c-1.647.249-3.596.392-5.684.392-5.793 0-10.51-1.105-10.689-2.485l-.005-.082v-4.636a.454.454 0 0 1-.001-.111l.001-.008v.11c0-2.011 5.543-2.926 10.694-2.926zm0 .943c-6.31 0-9.752 1.312-9.752 1.984 0 .672 3.442 1.984 9.752 1.984 6.308 0 9.75-1.312 9.75-1.984 0-.672-3.442-1.984-9.75-1.984z"/>
            <path fill="#2198FC" d="M40.754 24.714a8.644 8.644 0 0 1-5.511-2.55l-.415-.413a1.23 1.23 0 0 0-1.72 0l-.414.414a8.807 8.807 0 0 1-5.512 2.55 1.214 1.214 0 0 0-1.115 1.21v2.39c0 5.196 2.803 9.976 7.328 12.526.19.095.382.159.605.159.223 0 .414-.064.605-.16a14.376 14.376 0 0 0 7.328-12.524v-2.39c-.063-.638-.541-1.18-1.179-1.212zm-3.44 5.227l-3.441 3.442a1.112 1.112 0 0 1-.765.319c-.287 0-.542-.128-.765-.319l-1.752-1.753a1.058 1.058 0 1 1 1.497-1.498l1.02 1.02 2.708-2.709a1.058 1.058 0 1 1 1.497 1.498z"/>
        </g>
    </g>
</svg>
