<svg xmlns="http://www.w3.org/2000/svg" xmlns:xlink="http://www.w3.org/1999/xlink" width="68" height="69" viewBox="0 0 68 69">
    <defs>
        <linearGradient id="a" x1="84.343%" x2="10.909%" y1="86.704%" y2="17.937%">
            <stop offset="0%" stop-color="#2199FC"/>
            <stop offset="100%" stop-color="#8CCBFF"/>
        </linearGradient>
        <circle id="c" cx="34" cy="34" r="26"/>
        <filter id="b" width="148.1%" height="148.1%" x="-24%" y="-22.1%" filterUnits="objectBoundingBox">
            <feOffset dy="1" in="SourceAlpha" result="shadowOffsetOuter1"/>
            <feGaussianBlur in="shadowOffsetOuter1" result="shadowBlurOuter1" stdDeviation="4"/>
            <feColorMatrix in="shadowBlurOuter1" result="shadowMatrixOuter1" values="0 0 0 0 0 0 0 0 0 0 0 0 0 0 0 0 0 0 0.2 0"/>
            <feOffset dy="3" in="SourceAlpha" result="shadowOffsetOuter2"/>
            <feGaussianBlur in="shadowOffsetOuter2" result="shadowBlurOuter2" stdDeviation="2"/>
            <feColorMatrix in="shadowBlurOuter2" result="shadowMatrixOuter2" values="0 0 0 0 0 0 0 0 0 0 0 0 0 0 0 0 0 0 0.12 0"/>
            <feOffset dy="3" in="SourceAlpha" result="shadowOffsetOuter3"/>
            <feGaussianBlur in="shadowOffsetOuter3" result="shadowBlurOuter3" stdDeviation="1.5"/>
            <feColorMatrix in="shadowBlurOuter3" result="shadowMatrixOuter3" values="0 0 0 0 0 0 0 0 0 0 0 0 0 0 0 0 0 0 0.14 0"/>
            <feMerge>
                <feMergeNode in="shadowMatrixOuter1"/>
                <feMergeNode in="shadowMatrixOuter2"/>
                <feMergeNode in="shadowMatrixOuter3"/>
            </feMerge>
        </filter>
        <linearGradient id="d" x1="11.247%" x2="87.925%" y1="29.85%" y2="70.978%">
            <stop offset="0%" stop-color="#002C78"/>
            <stop offset="100%" stop-color="#001443"/>
        </linearGradient>
    </defs>
    <g fill="none" fill-rule="evenodd">
        <circle cx="34" cy="34" r="34" fill="url(#a)"/>
        <use fill="#000" filter="url(#b)" xlink:href="#c"/>
        <use fill="#FAFAFA" xlink:href="#c"/>
        <path fill="url(#d)" fill-rule="nonzero" d="M35.622 22s-8.497 4.381-8.515 4.394a.852.852 0 0 0-.36.703c0 .489.387.866.886.866.075 0 6.771-2.542 6.771-2.542a.924.924 0 0 1 .97.23l11.768 12.682c.238-.114.46-.29.706-.338.482-.092.94-.081 1.496-.081h2.215V26.232H45.05a.908.908 0 0 1-.373-.081L35.622 22zM17 26.232v11.682h2.52a3.132 3.132 0 0 1 4.361-1.312c.099.057 9.462 7.514 9.526 7.572a2.595 2.595 0 0 1 .734 2.664.943.943 0 0 0 .581.162c.907 0 3.495-.66 5.996-1.568 2.5-.909 6.386-2.976 6.438-3.016.284-.215.544-.544.305-1.068-.072-.157-12.988-14.102-12.988-14.102s-6.091 2.34-6.12 2.353a2.75 2.75 0 0 1-.72.094c-1.457 0-2.658-1.172-2.658-2.596 0-.313.144-.585.25-.865H17zm5.275 11.682c-.726.023-1.287.584-1.287 1.298 0 .343.127.634.346.865l9.65 6.734a.963.963 0 0 0 1.33-.203c.32-.412.236-.937-.195-1.244-3.031-2.356-5.959-4.859-9.013-7.193a1.365 1.365 0 0 0-.83-.257z"/>
    </g>
</svg>
