<svg xmlns="http://www.w3.org/2000/svg" xmlns:xlink="http://www.w3.org/1999/xlink" width="58" height="58" viewBox="0 0 58 58">
    <defs>
        <linearGradient id="c" x1="0%" y1="0%" y2="100%">
            <stop offset="0%" stop-color="#002C78"/>
            <stop offset="100%" stop-color="#001443"/>
        </linearGradient>
        <circle id="b" cx="25" cy="25" r="25"/>
        <filter id="a" width="128%" height="128%" x="-14%" filterUnits="objectBoundingBox">
            <feOffset dy="2" in="SourceAlpha" result="shadowOffsetOuter1"/>
            <feGaussianBlur in="shadowOffsetOuter1" result="shadowBlurOuter1" stdDeviation="2"/>
            <feColorMatrix in="shadowBlurOuter1" values="0 0 0 0 0 0 0 0 0 0 0 0 0 0 0 0 0 0 0.5 0"/>
        </filter>
        <linearGradient id="d" x1="50%" x2="50%" y1="0%" y2="100%">
            <stop offset="0%" stop-color="#E2F3FF"/>
            <stop offset="100%" stop-color="#C1E3FF"/>
        </linearGradient>
    </defs>
    <g fill="none" fill-rule="evenodd">
        <g transform="translate(4 2.03)">
            <use fill="#000" filter="url(#a)" xlink:href="#b"/>
            <use fill="url(#c)" xlink:href="#b"/>
        </g>
        <path fill="url(#d)" fill-rule="nonzero" d="M23 21.284V16h-9v11.457h2.228c-.201 1.397-.944 2.483-2.228 3.258V35a12.698 12.698 0 0 0 5.01-2.519 10.503 10.503 0 0 0 3.071-4.435c.613-1.789.919-4.043.919-6.762zm13 0V16h-9v11.457h2.215c-.16 1.397-.898 2.483-2.215 3.258V35a12.704 12.704 0 0 0 4.997-2.519c1.486-1.223 2.513-2.701 3.084-4.435.613-1.789.919-4.043.919-6.762z" transform="translate(4 2.03)"/>
    </g>
</svg>
