<svg xmlns="http://www.w3.org/2000/svg" width="340" height="80" viewBox="0 0 340 80">
    <g fill="none" fill-rule="evenodd">
        <path d="M0 0h340v80H0z"/>
        <path fill="#000" d="M33.3 37.49c3.845 1.27 7.295 2.802 7.295 7.531 0 4.305-3.41 6.979-8.9 6.979-2.706 0-5.464-.504-7.378-1.347L24 50.514l1.05-4.679.451.166c2.147.789 4.164 1.19 5.996 1.19 2.288 0 3.448-.72 3.448-2.138 0-1.649-1.164-2.165-4.242-3.115-3.416-1.12-6.57-2.753-6.57-7.087 0-4.354 3.084-6.851 8.464-6.851 2.684 0 5.086.612 6.439 1.186l.33.139-1.132 4.616-.445-.168c-1.755-.658-3.308-.963-4.89-.963-2.764 0-3.084 1.091-3.084 1.912 0 1.362.785 1.839 3.485 2.767zm36.229-8.747l.052-.36h5.736l-.083.493c-.711 4.175-2.751 14.725-6.34 22.496l-.115.244h-5.792l-.107-.262c-1.479-3.615-2.806-7.758-3.952-12.335-1.226 4.823-2.532 8.872-3.978 12.338l-.11.26h-5.797l-.11-.255c-2.569-5.908-4.984-14.526-6.304-22.488l-.082-.491h5.7l.055.358c.984 6.424 2.639 13.129 3.869 16.882 1.292-3.618 3.29-10.27 4.208-16.876l.05-.364h5.005l.052.362c.883 6.155 2.714 12.78 4.2 16.879 1.26-3.898 2.92-10.668 3.843-16.881zm9.562 22.873V28.383h5.616v23.233H79.09zM98.648 37.49c3.845 1.27 7.295 2.804 7.295 7.532 0 4.305-3.41 6.979-8.9 6.979-2.706 0-5.465-.504-7.379-1.347l-.317-.139 1.05-4.679.452.166c2.146.789 4.163 1.19 5.995 1.19 2.289 0 3.449-.72 3.449-2.138 0-1.649-1.164-2.165-4.241-3.115-3.417-1.12-6.573-2.753-6.573-7.087 0-4.354 3.086-6.851 8.465-6.851 2.684 0 5.086.612 6.44 1.186l.33.139-1.133 4.616-.444-.168c-1.755-.658-3.309-.963-4.892-.963-2.763 0-3.082 1.091-3.082 1.912 0 1.362.785 1.839 3.485 2.767zm20.071 0c3.846 1.27 7.296 2.804 7.296 7.532 0 4.305-3.41 6.979-8.9 6.979-2.706 0-5.464-.504-7.378-1.347l-.317-.139 1.05-4.679.451.166c2.147.789 4.164 1.19 5.996 1.19 2.287 0 3.448-.72 3.448-2.138 0-1.649-1.164-2.165-4.242-3.115-3.415-1.12-6.571-2.753-6.571-7.087 0-4.354 3.085-6.851 8.465-6.851 2.684 0 5.086.612 6.439 1.186l.33.139-1.132 4.616-.445-.168c-1.755-.658-3.308-.963-4.891-.963-2.763 0-3.083 1.091-3.083 1.912 0 1.362.786 1.839 3.484 2.767zm24.73-4.36v6.705h1.815c2.933 0 4.184-1.002 4.184-3.353 0-2.35-1.251-3.352-4.184-3.352h-1.815zm1.915-4.746c6.158 0 9.833 3.028 9.833 8.098 0 5.051-3.675 8.067-9.833 8.067h-1.915v7.068h-5.616V28.383h7.531zm19.19 4.746v5.49h1.415c3.649 0 4.116-1.485 4.116-2.778 0-1.952-1.153-2.712-4.116-2.712h-1.415zm7.294 8.42c.743.54 1.384 1.377 2.069 2.667l3.715 7.4h-6.083l-3.288-6.566c-.68-1.272-1.412-1.75-2.692-1.75h-1.015v8.316h-5.648V28.383h7.296c6.122 0 9.633 2.58 9.633 7.076 0 3.024-1.373 5.112-3.987 6.09zm9.123 10.067V28.383h5.616v23.233h-5.616zm30.876-22.976l.109-.257h5.605v23.233h-5.215V40.512c0-.683.014-1.33.045-1.945a90.31 90.31 0 0 1-5.348 8.993l-.125.186h-4.188l-.125-.186a98.045 98.045 0 0 1-5.395-9.028c.04.656.059 1.32.059 1.98v11.104h-5.248V28.383h5.605l.11.257c2.122 4.96 4.259 8.985 7.088 13.34 2.73-4.21 4.789-8.123 7.023-13.34zm10.796 22.976V28.383h15.395v4.746h-9.778v4.339h8.344v4.744h-8.344v4.66h9.778v4.744h-15.395zm36.848-14.127c3.844 1.27 7.295 2.804 7.295 7.532 0 4.305-3.41 6.979-8.9 6.979-2.707 0-5.466-.504-7.377-1.347l-.318-.139 1.048-4.679.451.166c2.149.789 4.166 1.19 5.997 1.19 2.288 0 3.448-.72 3.448-2.138 0-1.649-1.163-2.165-4.242-3.115-3.415-1.12-6.57-2.753-6.57-7.087 0-4.354 3.083-6.851 8.464-6.851 2.685 0 5.087.612 6.439 1.186l.331.139-1.133 4.616-.445-.168c-1.753-.658-3.308-.963-4.89-.963-2.764 0-3.083 1.091-3.083 1.912 0 1.362.785 1.839 3.485 2.767zm10.84 14.127V28.383h5.615v23.233h-5.615zm9.421-18.487v-4.746h18.031v4.746h-6.208v18.487h-5.616V33.13h-6.207zm36.756 0h-9.779v4.339h8.344v4.744h-8.344v4.66h9.78v4.744h-15.396V28.383h15.395v4.746z"/>
    </g>
</svg>
