<svg xmlns="http://www.w3.org/2000/svg" xmlns:xlink="http://www.w3.org/1999/xlink" width="34" height="34" viewBox="0 0 34 34">
    <defs>
        <path id="a" d="M0 0h34v34H0z"/>
        <linearGradient id="b" x1="21.697%" x2="78.303%" y1="10.306%" y2="100%">
            <stop offset="0%" stop-color="#002C78"/>
            <stop offset="100%" stop-color="#001443"/>
        </linearGradient>
    </defs>
    <g fill="none" fill-rule="evenodd">
        <mask id="c" fill="#fff">
            <use xlink:href="#a"/>
        </mask>
        <path fill="url(#b)" fill-rule="nonzero" d="M28.287 30.451h-.822V14.74a.884.884 0 0 0-.885-.885h-2.087V2.885A.884.884 0 0 0 23.608 2h-6.386a.884.884 0 0 0-.885.885V30.42h-1.075V6.173a.75.75 0 0 0-.948-.727l-6.67 1.928a.75.75 0 0 0-.538.727v22.35h-.821a.283.283 0 0 0-.285.285v.98c0 .158.126.284.285.284h22.002a.283.283 0 0 0 .284-.285v-.98a.283.283 0 0 0-.284-.284zM8.972 9.555c0-.095.063-.158.158-.158h4.14c.096 0 .159.063.159.158v.822c0 .095-.063.158-.158.158H9.098c-.095 0-.158-.063-.158-.158v-.822h.032zm0 2.593c0-.095.063-.159.158-.159h4.14c.096 0 .159.064.159.159v.821c0 .095-.063.159-.158.159H9.098c-.095 0-.158-.064-.158-.159v-.821h.032zm0 2.592c0-.095.063-.158.158-.158h4.14c.096 0 .159.063.159.158v.822c0 .094-.063.158-.158.158H9.098c-.095 0-.158-.064-.158-.158v-.822h.032zm0 2.592c0-.095.063-.158.158-.158h4.14c.096 0 .159.063.159.158v.822c0 .095-.063.158-.158.158H9.098c-.095 0-.158-.063-.158-.158v-.822h.032zm0 2.592c0-.095.063-.158.158-.158h4.14c.096 0 .159.063.159.158v.822c0 .095-.063.158-.158.158H9.098c-.095 0-.158-.063-.158-.158v-.822h.032zm0 2.624c0-.095.063-.158.158-.158h4.14c.096 0 .159.063.159.158v.79c0 .095-.063.158-.158.158H9.098c-.095 0-.158-.063-.158-.158v-.79h.032zm0 2.592c0-.095.063-.158.158-.158h4.14c.096 0 .159.063.159.158v.822c0 .095-.063.158-.158.158H9.098c-.095 0-.158-.063-.158-.158v-.822h.032zm0 2.592c0-.094.063-.158.158-.158h4.14c.096 0 .159.064.159.158v.822c0 .095-.063.158-.158.158H9.098c-.095 0-.158-.063-.158-.158v-.822h.032zm15.142-11.728c0-.158.126-.284.284-.284h.885c.159 0 .285.126.285.284v.885a.283.283 0 0 1-.285.285h-.885a.283.283 0 0 1-.284-.285v-.885zm0 2.972c0-.158.126-.285.284-.285h.885c.159 0 .285.127.285.285v.885a.283.283 0 0 1-.285.284h-.885a.283.283 0 0 1-.284-.284v-.885zm0 2.971c0-.158.126-.284.284-.284h.885c.159 0 .285.126.285.284v.885a.283.283 0 0 1-.285.285h-.885a.283.283 0 0 1-.284-.285v-.885zm0 2.972c0-.158.126-.285.284-.285h.885c.159 0 .285.127.285.285v.885a.283.283 0 0 1-.285.285h-.885a.283.283 0 0 1-.284-.285v-.885zm-.285 2.655c.158 0 .285.127.285.285v2.56h-1.929v-2.876h1.644v.031zM21.174 4.15c0-.158.126-.285.284-.285h.886c.158 0 .284.127.284.285v.885a.283.283 0 0 1-.284.284h-.886a.283.283 0 0 1-.284-.284V4.15zm0 2.971c0-.158.126-.284.284-.284h.886c.158 0 .284.126.284.284v.885a.283.283 0 0 1-.284.285h-.886a.283.283 0 0 1-.284-.285v-.885zm0 2.972c0-.158.126-.285.284-.285h.886c.158 0 .284.127.284.285v.885a.283.283 0 0 1-.284.284h-.886a.283.283 0 0 1-.284-.284v-.885zm0 2.971c0-.158.126-.284.284-.284h.886c.158 0 .284.126.284.284v.885a.283.283 0 0 1-.284.285h-.886a.283.283 0 0 1-.284-.285v-.885zm0 2.94c0-.158.126-.284.284-.284h.886c.158 0 .284.126.284.284v.885a.283.283 0 0 1-.284.285h-.886a.283.283 0 0 1-.284-.285v-.885zm0 2.972c0-.158.126-.285.284-.285h.886c.158 0 .284.127.284.285v.885a.283.283 0 0 1-.284.284h-.886a.283.283 0 0 1-.284-.284v-.885zm0 2.971c0-.158.126-.284.284-.284h.886c.158 0 .284.126.284.284v.885a.283.283 0 0 1-.284.285h-.886a.283.283 0 0 1-.284-.285v-.885zm0 2.972c0-.158.126-.285.284-.285h.886c.158 0 .284.127.284.285v.885a.283.283 0 0 1-.284.285h-.886a.283.283 0 0 1-.284-.285v-.885zm-2.972-20.77c0-.157.127-.284.285-.284h.885c.158 0 .284.127.284.285v.885a.283.283 0 0 1-.284.284h-.885a.283.283 0 0 1-.285-.284V4.15zm0 2.972c0-.158.127-.284.285-.284h.885c.158 0 .284.126.284.284v.885a.283.283 0 0 1-.284.285h-.885a.283.283 0 0 1-.285-.285v-.885zm0 2.972c0-.158.127-.285.285-.285h.885c.158 0 .284.127.284.285v.885a.283.283 0 0 1-.284.284h-.885a.283.283 0 0 1-.285-.284v-.885zm0 2.971c0-.158.127-.284.285-.284h.885c.158 0 .284.126.284.284v.885a.283.283 0 0 1-.284.285h-.885a.283.283 0 0 1-.285-.285v-.885zm0 2.94c0-.158.127-.284.285-.284h.885c.158 0 .284.126.284.284v.885a.283.283 0 0 1-.284.285h-.885a.283.283 0 0 1-.285-.285v-.885zm0 2.972c0-.158.127-.285.285-.285h.885c.158 0 .284.127.284.285v.885a.283.283 0 0 1-.284.284h-.885a.283.283 0 0 1-.285-.284v-.885zm0 2.971c0-.158.127-.284.285-.284h.885c.158 0 .284.126.284.284v.885a.283.283 0 0 1-.284.285h-.885a.283.283 0 0 1-.285-.285v-.885zm0 2.972c0-.158.127-.285.285-.285h.885c.158 0 .284.127.284.285v.885a.283.283 0 0 1-.284.285h-.885a.283.283 0 0 1-.285-.285v-.885zm1.486 2.971c0-.158.127-.284.285-.284h1.643v2.877h-1.928V27.89z" mask="url(#c)"/>
    </g>
</svg>
