<svg xmlns="http://www.w3.org/2000/svg" xmlns:xlink="http://www.w3.org/1999/xlink" width="34" height="34" viewBox="0 0 34 34">
    <defs>
        <path id="a" d="M0 0h34v34H0z"/>
        <linearGradient id="b" x1="35.853%" x2="61.223%" y1="40.091%" y2="64.297%">
            <stop offset="0%" stop-color="#002C78"/>
            <stop offset="100%" stop-color="#001443"/>
        </linearGradient>
    </defs>
    <g fill="none" fill-rule="evenodd">
        <mask id="c" fill="#fff">
            <use xlink:href="#a"/>
        </mask>
        <path fill="url(#b)" fill-rule="nonzero" d="M13.74 20.45l2.409 2.409c.204.201.268.566.16.865l-.049.109-1.705 3.153a1.117 1.117 0 0 1-.407.44l-.092.047.003.003L2.189 32l6.447-6.447a1.264 1.264 0 0 0 1.856-1.667l-.08-.11 3.328-3.326zm-2.685-2.67l.083.068 2.412 2.412-3.324 3.328a1.266 1.266 0 0 0-1.86 1.67l.08.11L2 31.813 6.512 19.96l.009-.019.046-.092c.072-.123.184-.24.329-.338l.115-.07 3.153-1.705a.896.896 0 0 1 .891.043zm1.29-1.662l5.534 5.535a.372.372 0 0 1 0 .527l-.75.75a.375.375 0 0 1-.527.003l-5.535-5.538a.372.372 0 0 1 0-.527l.75-.75a.372.372 0 0 1 .527 0zm2.712-3.228l6.05 6.05c.381.38.313.924-.13 1.193L18.87 21.42c-.331.205-.85.109-1.16-.201l-4.933-4.934c-.31-.31-.406-.828-.201-1.16l1.287-2.105c.27-.443.815-.511 1.193-.13zm2.594-2.094a5.56 5.56 0 0 1 5.554 5.553 1.155 1.155 0 0 1-2.31 0 3.247 3.247 0 0 0-3.244-3.243 1.155 1.155 0 0 1 0-2.31zm0-4.398c5.487 0 9.95 4.464 9.95 9.95a1.155 1.155 0 0 1-2.31 0c0-4.212-3.427-7.64-7.64-7.64a1.155 1.155 0 0 1 0-2.31zm0-4.398c7.912 0 14.35 6.437 14.35 14.349a1.155 1.155 0 0 1-2.311 0c0-6.638-5.4-12.039-12.039-12.039a1.155 1.155 0 0 1 0-2.31z" mask="url(#c)"/>
    </g>
</svg>
