<svg xmlns="http://www.w3.org/2000/svg" width="35" height="28" viewBox="0 0 35 28">
    <defs>
        <linearGradient id="a" x1="16.055%" x2="84.276%" y1="26.549%" y2="73.833%">
            <stop offset="0%" stop-color="#002C78"/>
            <stop offset="100%" stop-color="#001443"/>
        </linearGradient>
    </defs>
    <path fill="url(#a)" fill-rule="nonzero" d="M35.14 41.092v4.479c0 1.169-3.946 2.116-8.814 2.116-4.763 0-8.643-.906-8.81-2.04l-.005-.076v-4.479c0 1.168 3.946 2.117 8.815 2.117 4.868 0 8.815-.95 8.815-2.117zm14.006-5.307c1.018 0 1.851.787 1.928 1.785l.006.15v2.58c0 1.016-.786 1.85-1.783 1.927l-.151.006H36.062v-6.448h13.084zm-14.005-.518v4.479c0 1.17-3.947 2.116-8.815 2.116-4.763 0-8.643-.906-8.81-2.04l-.005-.076v-4.479c0 1.17 3.946 2.117 8.815 2.117 4.868 0 8.815-.947 8.815-2.117zm11.024 2.05a1.693 1.693 0 1 0 0 3.385 1.693 1.693 0 0 0 0-3.386zm0 .8a.892.892 0 1 1 0 1.784.892.892 0 0 1 0-1.783zm-7.88.166a.726.726 0 1 0 0 1.451.726.726 0 0 0 0-1.45zm2.272 0a.726.726 0 1 0 .001 1.452.726.726 0 0 0 0-1.452zm-14.23-10.601c4.184 0 8.68.734 8.808 2.342l.005-.015v-.006 3.92c0 1.17-3.946 2.117-8.814 2.117-4.763 0-8.643-.906-8.81-2.04l-.005-.077v-3.822a.374.374 0 0 1-.001-.091v-.007.092c0-1.659 4.57-2.413 8.816-2.413zm22.82.368c1.017 0 1.85.785 1.927 1.783l.006.15v2.58c0 1.018-.786 1.852-1.783 1.929l-.151.005H36.062v-4.494l-.009-.051c-.062-.775-.588-1.362-1.378-1.808l-.173-.094h14.644zm-2.982 1.53a1.693 1.693 0 1 0 0 3.387 1.693 1.693 0 0 0 0-3.386zm0 .802a.891.891 0 1 1 0 1.782.891.891 0 0 1 0-1.782zm-7.88.166a.726.726 0 1 0 0 1.451.726.726 0 0 0 0-1.451zm2.272 0A.726.726 0 1 0 40.558 32a.726.726 0 0 0 0-1.452zm-14.23-2.089c-5.203 0-8.04 1.082-8.04 1.636 0 .554 2.838 1.635 8.04 1.635 5.2 0 8.038-1.08 8.038-1.635 0-.554-2.838-1.636-8.039-1.636zm22.82-8.145c1.017 0 1.85.786 1.928 1.783l.006.151v2.58a1.936 1.936 0 0 1-1.783 1.929l-.152.006H23.522a1.935 1.935 0 0 1-1.928-1.784l-.006-.151v-2.579c0-1.017.786-1.852 1.782-1.93l.152-.005h25.624zm-24.175 1.53h-.966v3.387h.966v-3.386zm2.74 0h-.966v3.387h.966v-3.386zm2.74 0h-.967v3.387h.967v-3.386zm2.74 0h-.967v3.387h.966v-3.386zm12.973 0a1.693 1.693 0 1 0 0 3.387 1.693 1.693 0 0 0 0-3.386zm0 .802a.891.891 0 1 1 0 1.782.891.891 0 0 1 0-1.782zm-10.153.167a.723.723 0 1 0 0 1.45.725.725 0 1 0 0-1.45zm2.273 0a.724.724 0 1 0-.003 1.449.724.724 0 0 0 .003-1.449zm2.272 0a.725.725 0 1 0-.002 1.45.725.725 0 0 0 .002-1.45z" transform="translate(-17 -20)"/>
</svg>
