<svg xmlns="http://www.w3.org/2000/svg" xmlns:xlink="http://www.w3.org/1999/xlink" width="34" height="34" viewBox="0 0 34 34">
    <defs>
        <path id="a" d="M0 0h34v34H0z"/>
        <linearGradient id="b" x1="11.247%" x2="87.925%" y1="29.85%" y2="70.978%">
            <stop offset="0%" stop-color="#002C78"/>
            <stop offset="100%" stop-color="#001443"/>
        </linearGradient>
    </defs>
    <g fill="none" fill-rule="evenodd">
        <mask id="c" fill="#fff">
            <use xlink:href="#a"/>
        </mask>
        <path fill="url(#b)" fill-rule="nonzero" d="M18.244 7s-7.868 4.057-7.885 4.069a.789.789 0 0 0-.333.65c0 .453.357.802.82.802.07 0 6.27-2.354 6.27-2.354a.856.856 0 0 1 .897.213L28.91 22.124c.22-.106.427-.27.654-.313.446-.085.87-.075 1.385-.075H33V10.919h-6.026a.84.84 0 0 1-.346-.075L18.244 7zM1 10.919v10.817h2.333a2.9 2.9 0 0 1 4.039-1.215c.09.053 8.761 6.958 8.82 7.011.696.633.94 1.605.68 2.467.19.126.346.15.538.15.84 0 3.236-.611 5.552-1.452 2.315-.841 5.913-2.756 5.961-2.792.263-.2.504-.504.282-.99-.067-.145-12.026-13.057-12.026-13.057l-5.666 2.178a2.546 2.546 0 0 1-.667.088c-1.35 0-2.461-1.086-2.461-2.404 0-.29.133-.542.23-.801H1zm4.885 10.817c-.673.02-1.193.54-1.193 1.202 0 .317.118.587.32.8l8.937 6.236c.395.281.93.2 1.23-.188.297-.381.22-.868-.179-1.152-2.807-2.181-5.518-4.499-8.346-6.66a1.264 1.264 0 0 0-.77-.238z" mask="url(#c)"/>
    </g>
</svg>
