<svg xmlns="http://www.w3.org/2000/svg" width="34" height="34" viewBox="0 0 34 34">
    <defs>
        <path id="a" d="M0 0h34v34H0z"/>
        <linearGradient id="b" x1="16.055%" x2="84.276%" y1="14.723%" y2="85.852%">
            <stop offset="0%" stop-color="#002C78"/>
            <stop offset="100%" stop-color="#001443"/>
        </linearGradient>
    </defs>
    <g fill="none" fill-rule="evenodd">
        <path fill="url(#b)" fill-rule="nonzero" d="M13.757 2a.81.81 0 0 0-.811.81v6.487a.81.81 0 1 0 1.622 0V2.811A.81.81 0 0 0 13.757 2zM6.016 5.205a.805.805 0 0 0-.57.24.803.803 0 0 0 0 1.141l4.016 4.016a.803.803 0 0 0 1.14 0 .803.803 0 0 0 0-1.14L6.586 5.446a.804.804 0 0 0-.57-.24zm15.481 0a.804.804 0 0 0-.57.24l-4.016 4.017a.803.803 0 0 0 0 1.14.803.803 0 0 0 1.14 0l4.017-4.016a.803.803 0 0 0 0-1.14.805.805 0 0 0-.57-.24zm-8.994 7.298l7.17 18.636 2.534-5.499L28.554 32 32 28.554l-6.36-6.347 5.499-2.534-18.636-7.17zm-9.692.443a.81.81 0 1 0 0 1.622h6.461a.81.81 0 1 0 0-1.622H2.811zm7.221 3.725a.804.804 0 0 0-.57.24l-4.016 4.016a.803.803 0 0 0 0 1.14.803.803 0 0 0 1.14 0l4.016-4.015a.803.803 0 0 0 0-1.14.805.805 0 0 0-.57-.241z"/>
    </g>
</svg>
