<svg xmlns="http://www.w3.org/2000/svg" xmlns:xlink="http://www.w3.org/1999/xlink" width="34" height="34" viewBox="0 0 34 34">
    <defs>
        <path id="a" d="M0 0h34v34H0z"/>
        <linearGradient id="b" x1="24.023%" x2="75.8%" y1="0%" y2="100%">
            <stop offset="0%" stop-color="#002C78"/>
            <stop offset="100%" stop-color="#001443"/>
        </linearGradient>
    </defs>
    <g fill="none" fill-rule="evenodd">
        <mask id="c" fill="#fff">
            <use xlink:href="#a"/>
        </mask>
        <path fill="url(#b)" fill-rule="nonzero" d="M20.514 5.75v5.315c0 1.2.972 2.171 2.17 2.171H28v17.08c0 .607-.493 1.1-1.102 1.1H9.852a1.102 1.102 0 0 1-1.102-1.1V6.851c0-.609.493-1.102 1.102-1.102h10.662zM17.764 3l-.001 1.649-8.852.001c-1.17 0-1.256 0-1.26 1.392l-.001.166-.001 22.458h-.547A1.102 1.102 0 0 1 6 27.567V4.101C6 3.493 6.493 3 7.102 3h10.662zm3.358 24.139h-8.765c-.22 0-.399.24-.399.535 0 .295.179.534.399.534h8.765c.22 0 .398-.24.398-.534 0-.296-.178-.535-.398-.535zm3.135-3.712H12.493a.535.535 0 1 0 0 1.07h11.764a.535.535 0 1 0 0-1.07zm0-3.774H12.493a.535.535 0 1 0 0 1.07h11.764a.535.535 0 1 0 0-1.07zm0-3.712H12.493a.535.535 0 1 0 0 1.07h11.764a.535.535 0 1 0 0-1.07zm-5.124-3.711H12.27c-.172 0-.312.239-.312.534 0 .296.14.535.312.535h6.863c.172 0 .311-.24.311-.535 0-.295-.14-.534-.311-.534zm2.45-6.48L28 12.167h-5.315a1.102 1.102 0 0 1-1.102-1.102V5.75z" mask="url(#c)"/>
    </g>
</svg>
