<svg xmlns="http://www.w3.org/2000/svg" width="34" height="34" viewBox="0 0 34 34">
    <defs>
        <path id="a" d="M0 0h34v34H0z"/>
        <linearGradient id="b" x1="16.055%" x2="84.276%" y1="15.082%" y2="85.487%">
            <stop offset="0%" stop-color="#002C78"/>
            <stop offset="100%" stop-color="#001443"/>
        </linearGradient>
    </defs>
    <g fill="none" fill-rule="evenodd">
        <path fill="url(#b)" fill-rule="nonzero" d="M4.618 8.714l4.135 7.19c-.334.305-.66.62-.98.941-.257.26-.253.58-.1.876.279.541.587 1.069.891 1.598a16.451 16.451 0 0 0 1.78 2.504c.598.698 1.242 1.357 1.978 1.914.611.463 1.227.922 1.871 1.338.607.392 1.246.735 1.882 1.08.416.225.798.12 1.103-.226l.435-.499.431-.501 7.177 4.12c-.111.298-.265.574-.518.788-.365.307-.743.602-1.137.867a6.665 6.665 0 0 1-2.256.977l-.424.086-.425.08H19.44c-.03-.011-.057-.025-.087-.032-.612-.142-1.241-.235-1.833-.436a50.632 50.632 0 0 1-3.212-1.215c-.589-.245-1.153-.563-1.699-.898a17.035 17.035 0 0 1-2.403-1.76c-.665-.587-1.333-1.172-1.965-1.794a26.393 26.393 0 0 1-2.78-3.181c-.615-.84-1.197-1.7-1.622-2.651a42.063 42.063 0 0 1-.986-2.45c-.24-.648-.447-1.31-.642-1.973-.075-.255-.118-.521-.163-.786L2 14.407v-1.02c.011-.036.03-.07.034-.106.144-1.299.689-2.431 1.423-3.491.32-.46.695-.832 1.161-1.076zm15.92 14.687c.476.28.928.603 1.409.878.929.53 1.873 1.033 2.804 1.56.267.15.515.336.758.523.06.045.095.12.133.193l.039.071v.53c-.009.022-.022.045-.027.069l-.115.555-.12.555-6.893-3.959.087-.1c.269-.296.565-.571.869-.833.33-.285.705-.249 1.056-.042zM14.907 2a16.98 16.98 0 0 1 12.086 5.008A16.975 16.975 0 0 1 32 19.094a.99.99 0 1 1-1.98 0c0-4.038-1.571-7.832-4.426-10.687a15.009 15.009 0 0 0-10.687-4.426.992.992 0 0 1 0-1.981zm.334 10.522a6.2 6.2 0 0 1 4.412 1.827 6.198 6.198 0 0 1 1.827 4.412.99.99 0 1 1-1.98-.001 4.229 4.229 0 0 0-1.248-3.01 4.225 4.225 0 0 0-3.01-1.248.99.99 0 1 1-.001-1.98zm0-4.954c2.988 0 5.8 1.163 7.914 3.278a11.123 11.123 0 0 1 3.279 7.915.99.99 0 1 1-1.98 0c0-2.46-.96-4.774-2.7-6.514a9.153 9.153 0 0 0-6.513-2.7.989.989 0 1 1 0-1.979zm-8.02.597c.418.187.59.585.796.948.63 1.111 1.249 2.229 1.88 3.339.153.268.344.512.502.777.38.64.205.976-.162 1.343-.198.197-.405.386-.615.571l-.318.277-3.999-6.953.023-.007.682-.145.68-.15h.53z"/>
    </g>
</svg>
