<svg xmlns="http://www.w3.org/2000/svg" xmlns:xlink="http://www.w3.org/1999/xlink" width="34" height="34" viewBox="0 0 34 34">
    <defs>
        <path id="a" d="M0 0h34v34H0z"/>
        <linearGradient id="b" x1="0%" x2="95.144%" y1="25.459%" y2="87.07%">
            <stop offset="0%" stop-color="#002C78"/>
            <stop offset="100%" stop-color="#001443"/>
        </linearGradient>
    </defs>
    <g fill="none" fill-rule="evenodd">
        <mask id="c" fill="#fff">
            <use xlink:href="#a"/>
        </mask>
        <path fill="url(#b)" fill-rule="nonzero" d="M27.476 5c.013 0 .025.006.038.007.021.003.042.006.062.013.019.007.035.018.051.03l.018.01.019.01.006.008c.015.013.025.03.036.047.01.014.022.028.03.044.005.013.006.03.011.044.005.021.012.042.013.064v.005l.001.004V28.72c-.001.027-.008.047-.013.068-.004.015-.006.03-.012.044-.007.016-.02.03-.03.044l-.016.024-.02.023-.006.008c-.013.012-.031.018-.047.028-.012.007-.022.016-.036.02a.292.292 0 0 1-.105.022.288.288 0 0 1-.113-.024c-.009-.004-.016-.011-.024-.016l-.037-.024-.033-.028-.008-.006a21.503 21.503 0 0 0-1.741-1.79l-.396-.35V7.238c.675-.58 1.273-1.18 1.817-1.78l.32-.36.008-.006c.013-.014.03-.025.046-.036.015-.01.029-.022.044-.03.013-.006.029-.007.043-.011.022-.006.043-.013.065-.013l.01-.002zm-2.885 2.72v18.572c-2.467-1.94-5.946-3.593-11.473-4.236L12.61 22l.726 6.684v.023l.002.007-.008.041c-.003.02-.004.038-.011.056l-.012.024-.028.047-.016.021c-.012.015-.027.024-.041.035a.274.274 0 0 1-.045.031l-.027.01-.028.007-.04.012-.015.002H10.19l-.055-.006-.051-.015c-.012-.005-.021-.013-.033-.02a.265.265 0 0 1-.056-.037c-.01-.01-.018-.023-.027-.035a.247.247 0 0 1-.035-.05c-.006-.015-.01-.03-.014-.045l-.007-.022-.006-.022-.826-6.96-.492-.012-.5-.008v-9.526c8.576-.044 13.36-2.05 16.503-4.523zM7.496 12.211v9.517C4.992 21.58 3 19.505 3 16.971c0-2.536 1.993-4.61 4.496-4.76zm20.9 1.677c1.39.16 2.477 1.495 2.477 3.111 0 1.617-1.087 2.95-2.476 3.111z" mask="url(#c)"/>
    </g>
</svg>
