<svg xmlns="http://www.w3.org/2000/svg" xmlns:xlink="http://www.w3.org/1999/xlink" width="34" height="34" viewBox="0 0 34 34">
    <defs>
        <path id="a" d="M0 0h34v34H0z"/>
        <linearGradient id="b" x1="16.055%" x2="84.276%" y1="22.305%" y2="78.146%">
            <stop offset="0%" stop-color="#002C78"/>
            <stop offset="100%" stop-color="#001443"/>
        </linearGradient>
    </defs>
    <g fill="none" fill-rule="evenodd">
        <mask id="c" fill="#fff">
            <use xlink:href="#a"/>
        </mask>
        <path fill="url(#b)" fill-rule="nonzero" d="M5.207 9.533c.674-.097 1.35.265 1.614.891l1.567 3.615c.313.747-.024 1.59-.747 1.952-.747.362-1.253.627-1.398.7-1.157.65-.482 2.795.988 5.325 1.47 2.53 3.133 4.482 4.29 3.808.12-.073.602-.386 1.301-.868a1.517 1.517 0 0 1 2.073.338l2.361 3.156c.41.53.386 1.302-.024 1.832-.578.723-1.398 1.398-1.88 1.687-2.747 1.566-8-1.783-11.447-7.736-3.47-5.976-3.831-12.339-1.084-13.93.482-.264 1.47-.626 2.386-.77zM24.133 4c1.574 0 2.86 1.23 2.95 2.782l.006.174v14.778a3.497 3.497 0 0 0 1.97 2.955c.588.343 1.208.566 1.97.566.346 0 .773-.069 1.192-.285.3-.155.475-.299.779-.59-.151.338-.274.612-.62.875-.311.237-.848.387-1.492.415l-.218.004H17.935l-1.273-1.702c-1.184-1.599-3.43-1.961-5.08-.842-.202.14-.398.273-.57.39-.53-.518-1.188-1.433-1.873-2.613-.621-1.07-1.032-1.972-1.2-2.603.213-.106.431-.214.663-.326 1.781-.89 2.587-2.966 1.821-4.792l-1.577-3.64C8.264 8.17 6.888 7.307 5.415 7.31v-.354c0-1.574 1.23-2.861 2.781-2.951L8.37 4h15.763zm6.897 5.911a1.97 1.97 0 0 1 1.97 1.97v9.853a1.97 1.97 0 0 1-1.97 1.97c-1.488.089-1.97-.985-1.97-2.05V9.912h1.97zM22.4 16.69h-7.882a.985.985 0 0 0-.115 1.964l.115.007h7.881a.985.985 0 1 0 0-1.97zm0-3.94h-7.882a.985.985 0 0 0-.115 1.963l.115.007h7.881a.985.985 0 1 0 0-1.97zm0-3.941h-7.882a.985.985 0 0 0-.115 1.964l.115.006h7.881a.985.985 0 1 0 0-1.97z" mask="url(#c)"/>
    </g>
</svg>
