<svg xmlns="http://www.w3.org/2000/svg" xmlns:xlink="http://www.w3.org/1999/xlink" width="34" height="34" viewBox="0 0 34 34">
    <defs>
        <path id="a" d="M0 0h34v34H0z"/>
        <linearGradient id="b" x1="0%" y1="19.492%" y2="88.001%">
            <stop offset="0%" stop-color="#002C78"/>
            <stop offset="100%" stop-color="#001443"/>
        </linearGradient>
    </defs>
    <g fill="none" fill-rule="evenodd">
        <mask id="c" fill="#fff">
            <use xlink:href="#a"/>
        </mask>
        <path fill="url(#b)" fill-rule="nonzero" d="M15.114 22.912c.31.522.876.87 1.53.87h1.77c.655 0 1.22-.348 1.53-.87h9.085v4.349c0 .956-.796 1.739-1.769 1.739H7.8c-.973 0-1.77-.783-1.77-1.74v-4.348zm3.092-4.736v3.383h-2.03v-3.383h2.03zM13.674 6h7.035a2.642 2.642 0 0 1 2.633 2.46l.005.166v1.751h5.277c.919 0 1.679.711 1.752 1.608l.006.143v6.128c0 1.138-.738 2.11-1.758 2.469a2.396 2.396 0 0 1-.696.151l-.184.006H19.83v-2.626a1.76 1.76 0 0 0-1.615-1.745l-.143-.006h-1.76c-.918 0-1.678.711-1.752 1.608l-.006.143v2.626H6.638c-.308 0-.607-.052-.88-.157a2.631 2.631 0 0 1-1.751-2.28L4 18.255v-6.128a1.76 1.76 0 0 1 1.615-1.745l.144-.006h5.276v-1.75a2.64 2.64 0 0 1 2.472-2.622L13.674 6h7.035zm7.035 1.75h-7.035a.881.881 0 0 0-.873.767l-.007.11v1.75h8.794v-1.75a.88.88 0 0 0-.88-.876z" mask="url(#c)"/>
    </g>
</svg>
