<svg xmlns="http://www.w3.org/2000/svg" width="33" height="35" viewBox="0 0 33 35">
    <defs>
        <linearGradient id="a" x1="19.832%" x2="80.462%" y1="14.723%" y2="85.852%">
            <stop offset="0%" stop-color="#002C78"/>
            <stop offset="100%" stop-color="#001443"/>
        </linearGradient>
    </defs>
    <path fill="url(#a)" fill-rule="nonzero" d="M35.282 39.224c2.185 1.133 4.92 1.693 6.291 3.439 1.216 1.567 1.727 3.102 1.738 4.647v.158a7.334 7.334 0 0 1-.01.32c-.042.722-.86.955-1.466 1.102-3.699.658-7.29 1.114-10.678 1.11-3.39.004-6.982-.452-10.68-1.11-.606-.147-1.424-.38-1.466-1.102l-.007-.16-.004-.16v-.158c.011-1.545.522-3.08 1.738-4.647 1.371-1.746 4.108-2.305 6.293-3.44.676 3.35 1.356 5.998 3.715 9.012.23.293.327.336.41.336.084 0 .182-.043.412-.336 2.358-3.014 3.038-5.662 3.714-9.011zm-4.831 4.251h1.386c.07 0 .141.044.177.106l.02.05.388 1.685a24.375 24.375 0 0 1-1.271 2.348 24.739 24.739 0 0 1-.969-1.75l-.292-.6.385-1.684a.205.205 0 0 1 .127-.144l.049-.01h1.386zm-.33-2.399h2.066c.1-.002.191.09.2.19l-.002.05-.312 1.59a.208.208 0 0 1-.144.153l-.054.009h-1.442a.21.21 0 0 1-.18-.11l-.018-.052-.312-1.59c-.018-.1.054-.206.15-.233l.049-.007h2.065zm1.035-16.525c4.884.003 5.103 4.026 5.113 4.481v.042l.034 2.405c.423-.005.524.413.524 1.25 0 1.253-.767 2.563-1.462 3.24-.018.075-.045.161-.071.246-.615 1.993-2.214 3.463-4.135 3.52-1.92-.057-3.525-1.528-4.143-3.52-.021-.073-.049-.159-.07-.245-.695-.678-1.462-1.988-1.462-3.242 0-.78.088-1.197.444-1.244l.08-.005.035-2.405v-.042c.009-.455.228-4.478 5.113-4.48zm19.537-3.473c.718 0 1.302.616 1.302 1.373v5.036c0 .757-.584 1.373-1.302 1.373a.448.448 0 0 0-.434.458v1.311l-1.893-1.664a.419.419 0 0 0-.278-.105h-5.21c-.718 0-1.302-.616-1.302-1.373V22.45c0-.757.584-1.373 1.302-1.373h7.815zM42.878 15c.719 0 1.303.616 1.303 1.373v4.12h-1.737v.002c-1.196 0-2.17 1.028-2.17 2.29h-2.606c-.102 0-.2.036-.277.105l-1.893 1.661V23.24a.448.448 0 0 0-.434-.458c-.719 0-1.303-.616-1.303-1.373v-5.036c0-.757.584-1.373 1.303-1.373h7.814z" transform="translate(-19 -15)"/>
</svg>
