<svg xmlns="http://www.w3.org/2000/svg" xmlns:xlink="http://www.w3.org/1999/xlink" width="34" height="34" viewBox="0 0 34 34">
    <defs>
        <path id="a" d="M0 0h34v34H0z"/>
        <linearGradient id="b" x1="23.428%" x2="73.508%" y1="18.992%" y2="70.186%">
            <stop offset="0%" stop-color="#002C78"/>
            <stop offset="100%" stop-color="#001443"/>
        </linearGradient>
    </defs>
    <g fill="none" fill-rule="evenodd">
        <mask id="c" fill="#fff">
            <use xlink:href="#a"/>
        </mask>
        <path fill="url(#b)" d="M27.798 7.202c-2.906-2.936-7.686-2.936-10.622 0a7.45 7.45 0 0 0-1.75 7.873l-10.06 10.09c-.312.313-.624 2.313-.03 2.906L15.52 17.855c.656-.656 1.687.344 1 1.031L6.21 29.164c1.562.657 3.562 1.812 4.968-1.437.312 0 .562.032.812-.187l.312-.344c.344-.343.219-1.405.219-1.905.469 0 1.562.125 1.906-.219l1.156-1.156c.218-.219.218-.437.218-.718.281 0 .5.03.719-.188l1.062-1.093c.281-.25.219-.625.219-.969.343 0 .687.063.937-.187l1.187-1.187c2.75 1 5.81.312 7.873-1.75a7.504 7.504 0 0 0 0-10.622zm-1.531 4.374a2.018 2.018 0 0 1-2.843 0c-.781-.78-.781-2.03 0-2.843a2.018 2.018 0 0 1 2.843 0c.78.812.78 2.062 0 2.843z" mask="url(#c)"/>
    </g>
</svg>
