<svg xmlns="http://www.w3.org/2000/svg" xmlns:xlink="http://www.w3.org/1999/xlink" width="18" height="18" viewBox="0 0 18 18">
    <defs>
        <path id="a" d="M4.632 5.967v10.304h-3.43V5.967h3.43zm.226-3.187c0 .99-.745 1.78-1.94 1.78h-.022C1.744 4.56 1 3.77 1 2.78 1 1.77 1.767 1 2.94 1s1.896.77 1.918 1.78zM17 10.363v5.908h-3.43V10.76c0-1.385-.496-2.33-1.737-2.33-.948 0-1.512.637-1.76 1.252-.09.22-.113.528-.113.836v5.754H6.53s.046-9.337 0-10.303h3.43v1.459c.455-.702 1.27-1.702 3.091-1.702 2.257 0 3.949 1.473 3.949 4.638z"/>
    </defs>
    <use fill="#2199FC" fill-rule="evenodd" xlink:href="#a"/>
</svg>
