<svg xmlns="http://www.w3.org/2000/svg" width="117" height="30" viewBox="0 0 117 30">
    <g fill="none" fill-rule="nonzero">
        <path fill="#E42412" d="M51.66 25.693c-2.513 2.611-5.872 3.916-10.078 3.916-4.258 0-7.643-1.298-10.156-3.896-1.476-1.526-2.518-3.39-3.128-5.59h6.269c.34.773.77 1.452 1.293 2.035 1.497 1.673 3.398 2.51 5.703 2.51 2.304 0 4.196-.83 5.674-2.49a7.49 7.49 0 0 0 1.283-2.055l6.249-.001c-.612 2.197-1.648 4.054-3.109 5.571zm-28.945-5.572v9h-5.8l-5.565-9h11.365zm-17.344 0v9H.001l-.001-9h5.371zm71.27 0l-3.223 9h-6.172l-3.217-9h5.965l.534 1.559.515-1.559h5.598zm32.196 0l3.605 9h-6.29l-2.5-6.504H92.208l-2.363 6.504h-6.133l3.505-9h21.621z"/>
        <path fill="#02899A" d="M41.504 0c4.219 0 7.595 1.309 10.127 3.926 2.533 2.617 3.799 6.256 3.799 10.918 0 .97-.055 1.896-.166 2.778h-6.035c.15-.887.224-1.86.224-2.915 0-3.281-.719-5.73-2.158-7.344-1.439-1.614-3.35-2.422-5.732-2.422-2.383 0-4.304.817-5.762 2.452-1.458 1.634-2.187 4.098-2.187 7.392 0 1.024.074 1.97.224 2.838l-6.028-.002c-.102-.84-.153-1.72-.153-2.64 0-2.917.436-5.365 1.308-7.344a13.476 13.476 0 0 1 2.666-3.926c1.126-1.159 2.36-2.018 3.701-2.578C37.116.378 39.173 0 41.504 0zM5.625.488l10.501 17.133H9.805l-4.434-7.172v7.172H0V.488h5.625zm17.09 0v17.133h-5.371V.488h5.371zm40.567 0l5.857 17.133h-6.004L57.012.488h6.27zm20.39 0l-6.136 17.133H71.87L77.54.488h6.132zm18.061 17.133L97.852 7.168l-3.806 10.453H88.19L94.864.488h6.113l5.424 13.549.046.024c1.448.739 2.206.744 3.077.744.87 0 1.72-.219 2.377-.744.54-.433.91-1.073.91-1.971 0-.819-.302-1.587-1.055-2.098-1.076-.732-3.14-.645-4.775-.645.519-1.08 1.446-2.951 2.78-5.615h-5.493V.122h11.104L111.756 7c1.512 0 2.608.633 3.311 1.58.65.873.965 2.013.965 3.168 0 1.569-.604 3.138-1.836 4.26-1.074.976-2.625 1.613-4.672 1.613h-7.791z"/>
    </g>
</svg>
