<svg xmlns="http://www.w3.org/2000/svg" width="113" height="36" viewBox="0 0 113 36">
    <path fill="#0070DC" fill-rule="nonzero" d="M18.989 36h-1.654c-1.38-.004-2.757-.11-4.129-.255-1.237-.13-2.47-.31-3.69-.559-1.701-.347-3.378-.775-4.99-1.433-.925-.377-1.818-.814-2.632-1.398-.653-.468-1.24-1.001-1.608-1.731-.39-.774-.384-1.545.039-2.31.322-.582.784-1.036 1.297-1.444.824-.655 1.752-1.131 2.707-1.56.153-.069.023-.013.497-.208.474-.195.476-.195.476.345v.378c0 .503 0 .503-.443.74-.49.263-.946.553-1.327.957-.529.561-.55 1.18-.032 1.74.205.223.448.42.7.59.715.478 1.514.78 2.328 1.037 2.028.638 4.114.99 6.222 1.203 1.285.13 2.577.223 3.868.278.395.017 1.383.025 2.37.025.988 0 1.976-.008 2.371-.025a65.855 65.855 0 0 0 3.869-.278c2.108-.214 4.194-.565 6.221-1.203.815-.257 1.613-.56 2.328-1.037a3.92 3.92 0 0 0 .7-.59c.52-.56.497-1.179-.031-1.74-.382-.404-.837-.694-1.328-.957-.443-.237-.443-.237-.443-.74v-.378c0-.54.003-.54.476-.345.474.195.344.14.498.208.954.429 1.883.905 2.706 1.56.513.408.976.862 1.298 1.444.423.765.429 1.536.038 2.31-.368.73-.955 1.263-1.607 1.73-.815.585-1.708 1.022-2.633 1.4-1.611.657-3.289 1.085-4.99 1.432-1.22.25-2.452.429-3.69.56-1.372.143-2.748.25-4.129.253L18.989 36zM29.534 2.017c.495.129.495.129.499.628.008.998.001 1.683 0 2.455 0 .528 0 .528-.494.431-3.79-.749-6.24-1.24-8.33-1.42-.495-.043-.495-.043-.495.437v22.8c0 .521 0 .521-.498.55-.415.024-.822.035-1.228.035s-.812-.01-1.227-.035c-.498-.029-.498-.029-.498-.55v-22.8c0-.48 0-.48-.494-.437-2.09.18-4.54.671-8.33 1.42-.495.097-.495.097-.495-.431 0-.772-.007-1.457 0-2.455.004-.499.004-.499.5-.628C13.626.665 16.303-.005 18.987 0c2.684-.005 5.361.664 10.546 2.017zm.499 7.611c.008 1.003.001 1.686 0 2.463 0 .51 0 .51-.5.473-2.615-.191-4.592-.336-6.252-.427-.495-.027-.495-.027-.495-.565V8.73c0-.52 0-.52.498-.469 1.662.17 3.64.436 6.254.794.491.067.491.067.495.572zm-22.089 0c.004-.505.004-.505.495-.572 2.615-.358 4.592-.625 6.255-.794.497-.05.497-.05.497.469v2.84c0 .539 0 .539-.494.566-1.661.091-3.638.236-6.253.427-.5.037-.5.037-.5-.473 0-.777-.007-1.46 0-2.463zm22.092 6.957c-.004 1-.004 1.686 0 2.457.002.515.002.515-.497.538-2.615.125-4.592.22-6.253.28-.5.018-.5.018-.5-.476v-2.866c0-.473 0-.472.5-.47 1.652.008 3.624.032 6.25.062.502.006.502.006.5.475zm-22.095 0c-.002-.469-.002-.469.5-.475 2.626-.03 4.599-.054 6.25-.062.5-.002.5-.003.5.47v2.866c0 .494 0 .494-.5.476-1.66-.06-3.637-.155-6.252-.28-.5-.023-.5-.023-.497-.538.004-.77.003-1.458-.001-2.457zm22.095 6.967c-.004 1.01-.004 1.695 0 2.478.002.506 0 .506-.491.592-2.618.457-4.596.803-6.26 1.02-.499.066-.499.066-.499-.46v-2.897c0-.496 0-.496.498-.538 1.662-.14 3.636-.372 6.256-.65.498-.052.498-.052.496.455zm-22.095 0c-.002-.507-.002-.507.497-.455 2.62.278 4.593.51 6.255.65.498.042.498.042.498.538v2.897c0 .526 0 .526-.498.46-1.664-.217-3.642-.563-6.26-1.02-.491-.086-.494-.086-.492-.592.004-.783.004-1.468 0-2.478zm33.368-9.672v-1.458c0-.312.155-.468.466-.468h5.386c.31 0 .466.156.466.468v1.458c0 .3-.155.45-.466.45h-1.398v9.404c0 .312-.156.468-.466.468h-1.675c-.299 0-.449-.156-.449-.468v-9.403h-1.398c-.31 0-.466-.15-.466-.451zm11.1-2.1c.679 0 1.246.093 1.7.278.455.185.855.509 1.2.971.345.463.595 1.108.75 1.935.156.827.234 1.865.234 3.114 0 1.654-.153 2.947-.458 3.878-.305.93-.725 1.564-1.26 1.9-.535.335-1.257.503-2.166.503-.91 0-1.634-.168-2.175-.504-.541-.335-.964-.968-1.27-1.9-.304-.93-.457-2.223-.457-3.877s.153-2.946.458-3.878c.305-.93.728-1.567 1.269-1.908.54-.341 1.266-.512 2.175-.512zm0 10.254c.322 0 .567-.101.733-.304.167-.202.294-.587.38-1.154.087-.566.13-1.4.13-2.498 0-1.099-.043-1.931-.13-2.498-.086-.567-.213-.952-.38-1.154-.166-.202-.411-.304-.733-.304-.334 0-.584.102-.751.304-.167.202-.294.587-.38 1.154-.086.567-.13 1.4-.13 2.498 0 1.099.044 1.932.13 2.498.086.567.213.952.38 1.154.167.203.417.304.75.304zm10.323-10.08h1.709c.299 0 .466.15.5.45l.829 5.917.293 2.602h.035l.31-2.602.881-5.916c.058-.3.224-.451.5-.451h1.848c.322 0 .454.167.397.503L68.1 23.63c-.069.382-.276.572-.621.572h-2.261c-.346 0-.553-.19-.622-.572l-.639-3.886-.345-2.88h-.034l-.363 2.88-.639 3.886c-.069.382-.27.572-.604.572h-2.278c-.346 0-.553-.19-.622-.572l-1.916-11.173c-.058-.336.075-.503.397-.503H59.4c.265 0 .426.15.483.45l.88 5.917.312 2.602h.034l.294-2.602.828-5.916c.035-.3.202-.451.5-.451zm13.706 7.165H73.59v2.69h3.073c.31 0 .466.155.466.468v1.457c0 .312-.156.468-.466.468h-5.18c-.298 0-.448-.156-.448-.468V12.422c0-.312.15-.468.449-.468h5.11c.31 0 .466.156.466.468v1.458c0 .3-.156.45-.467.45H73.59v2.482h2.848c.31 0 .466.156.466.468v1.37c0 .313-.155.469-.466.469zm4.506-1.006h.69c.564 0 .938-.133 1.122-.4.184-.265.276-.763.276-1.491 0-.74-.095-1.244-.284-1.51-.19-.266-.573-.399-1.148-.399h-.656v3.8zm-2.14-6.16h2.813c1.496 0 2.546.31 3.15.929.604.619.907 1.732.907 3.34 0 1.052-.15 1.873-.45 2.463a2.53 2.53 0 0 1-1.38 1.25l1.691 3.695c.173.382.07.572-.31.572h-1.692c-.31 0-.524-.133-.639-.399l-1.467-3.435h-.483v3.366c0 .312-.156.468-.466.468h-1.675c-.3 0-.449-.156-.449-.468V12.422c0-.312.15-.468.45-.468zm14.569 5.327h.742c1.093 0 1.64-.74 1.64-2.22 0-.683-.138-1.19-.414-1.519-.277-.33-.737-.494-1.381-.494-.576 0-1.192.098-1.848.295-.172.023-.259-.04-.259-.191v-.66c0-.127.075-.22.225-.277.564-.22 1.208-.33 1.933-.33 2.026 0 3.038 1.03 3.038 3.089 0 1.399-.46 2.307-1.38 2.723 1.081.37 1.622 1.342 1.622 2.915 0 1.307-.279 2.256-.837 2.845-.558.59-1.424.885-2.598.885-.771 0-1.439-.098-2.003-.295-.15-.046-.224-.133-.224-.26v-.729c0-.173.092-.237.276-.19.829.208 1.427.312 1.796.312.805 0 1.39-.203 1.752-.607.362-.405.543-1.053.543-1.944 0-1.468-.615-2.203-1.847-2.203h-.776c-.173 0-.26-.075-.26-.225v-.694c0-.15.087-.226.26-.226zm10.288-3.99a4.485 4.485 0 0 0-1.364-.226c-.863 0-1.461.359-1.795 1.076-.334.717-.512 1.931-.535 3.643a2.07 2.07 0 0 1 .803-1.04c.385-.267.843-.4 1.372-.4 1.899 0 2.848 1.313 2.848 3.938 0 1.25-.253 2.239-.76 2.967-.506.729-1.242 1.093-2.209 1.093-1.185 0-2.04-.497-2.563-1.492-.524-.995-.786-2.527-.786-4.597 0-2.256.262-3.88.786-4.876.523-.994 1.441-1.492 2.753-1.492.564 0 1.059.081 1.485.243.15.046.224.139.224.278v.694c0 .185-.086.248-.259.19zm-1.674 9.889c.575 0 1.007-.258 1.294-.772.288-.515.432-1.212.432-2.09 0-1.886-.581-2.829-1.744-2.829-.552 0-.995.217-1.329.65-.334.435-.5 1.126-.5 2.074 0 .463.054.908.163 1.336.11.428.311.807.605 1.136.293.33.653.495 1.079.495zm7.681-11.295c1.105 0 1.937.489 2.495 1.466.558.978.837 2.565.837 4.763 0 2.197-.28 3.785-.837 4.762-.558.978-1.39 1.466-2.495 1.466-1.104 0-1.936-.488-2.494-1.466-.558-.977-.837-2.565-.837-4.762 0-2.198.279-3.785.837-4.763.558-.977 1.39-1.466 2.494-1.466zm0 11.277c.668 0 1.171-.393 1.51-1.18.34-.786.51-2.075.51-3.868 0-1.793-.17-3.083-.51-3.87-.339-.786-.842-1.179-1.51-1.179-.667 0-1.17.393-1.51 1.18-.34.786-.51 2.076-.51 3.869 0 1.793.17 3.082.51 3.869.34.786.843 1.18 1.51 1.18z"/>
</svg>
