<svg xmlns="http://www.w3.org/2000/svg" xmlns:xlink="http://www.w3.org/1999/xlink" width="18" height="18" viewBox="0 0 18 18">
    <defs>
        <path id="a" d="M8.769 5.517l.035.572-.578-.07C6.12 5.751 4.283 4.84 2.723 3.311l-.763-.758-.197.56c-.416 1.249-.15 2.568.717 3.455.462.49.358.56-.44.268-.277-.093-.52-.163-.543-.128-.08.082.197 1.144.416 1.564.3.583.914 1.155 1.584 1.494l.567.268-.67.012c-.648 0-.671.012-.602.257.231.758 1.144 1.564 2.162 1.914l.717.245-.625.373a6.509 6.509 0 0 1-3.098.864c-.52.012-.948.058-.948.093 0 .117 1.41.77 2.231 1.027 2.463.76 5.388.432 7.584-.863 1.56-.922 3.122-2.755 3.85-4.529.393-.945.786-2.672.786-3.501 0-.537.035-.607.682-1.249.382-.373.74-.782.81-.899.115-.221.104-.221-.486-.023-.983.35-1.122.303-.636-.222.358-.373.786-1.05.786-1.249 0-.035-.173.024-.37.129-.208.116-.67.292-1.017.397l-.624.198-.567-.385c-.312-.21-.751-.444-.983-.514-.59-.163-1.49-.14-2.023.047-1.445.525-2.358 1.88-2.254 3.361z"/>
    </defs>
    <use fill="#2199FC" fill-rule="evenodd" xlink:href="#a"/>
</svg>
