<svg xmlns="http://www.w3.org/2000/svg" width="18" height="18" viewBox="0 0 18 18">
    <path fill="#2199FC" fill-rule="evenodd" d="M4.764 13H2.362c-.141 0-.245-.054-.312-.163-.067-.109-.067-.224 0-.346l2.543-4.303c.006 0 .006-.003 0-.01L2.975 5.5c-.08-.14-.084-.259-.01-.355.06-.096.167-.144.321-.144H5.69c.267 0 .489.144.663.432L8 8.18l-2.583 4.38c-.18.294-.399.441-.653.441zm10.86-12c.15 0 .257.048.32.145.075.104.075.223 0 .358l-5.447 9.035v.01l3.466 5.949c.075.129.078.248.01.358-.069.097-.18.145-.33.145h-2.466c-.288 0-.515-.145-.68-.435L7 10.548l5.478-9.113c.171-.29.391-.435.66-.435h2.485z"/>
</svg>
