<svg xmlns="http://www.w3.org/2000/svg" width="52" height="52" viewBox="0 0 52 52">
    <defs>
        <linearGradient id="a" x1="16.055%" x2="84.276%" y1="14.723%" y2="85.852%">
            <stop offset="0%" stop-color="#002C78"/>
            <stop offset="100%" stop-color="#001443"/>
        </linearGradient>
    </defs>
    <g fill="none" fill-rule="evenodd">
        <circle cx="26" cy="26" r="26" fill="url(#a)"/>
        <path fill="#C1E3FF" fill-rule="nonzero" d="M38.355 32.631a.61.61 0 0 0-1.038.031A13.15 13.15 0 0 1 26 39.125v-1.93a.309.309 0 0 0-.478-.26l-5.737 3.761a.309.309 0 0 0 0 .517l5.733 3.733a.309.309 0 0 0 .482-.258v-1.93a16.759 16.759 0 0 0 13.72-7.143.8.8 0 0 0 0-.891l-1.366-2.093zM26.48 7.051a.309.309 0 0 0-.479.259v1.93a16.759 16.759 0 0 0-13.72 7.142.8.8 0 0 0 0 .892l1.366 2.092a.61.61 0 0 0 1.039-.03A13.15 13.15 0 0 1 26 12.872v1.93a.309.309 0 0 0 .479.259l5.733-3.734a.309.309 0 0 0 0-.517l-5.733-3.76z"/>
        <path fill="#2199FC" fill-rule="nonzero" d="M11.045 19.643c.105 0 .202.053.259.14l3.76 5.737a.309.309 0 0 1-.258.479h-1.93a13.15 13.15 0 0 0 6.462 11.315.61.61 0 0 1 .03 1.039l-2.1 1.362a.8.8 0 0 1-.891 0A16.759 16.759 0 0 1 9.242 26h-1.93a.309.309 0 0 1-.258-.483l3.733-5.733a.309.309 0 0 1 .258-.14zm24.58-7.365a16.759 16.759 0 0 1 7.147 13.72h1.93a.309.309 0 0 1 .247.48l-3.733 5.736a.309.309 0 0 1-.517 0l-3.734-5.737a.309.309 0 0 1 .259-.478h1.93a13.15 13.15 0 0 0-6.49-11.32.61.61 0 0 1-.03-1.034l2.1-1.367a.8.8 0 0 1 .892 0z"/>
        <path fill="#C1E3FF" fill-rule="nonzero" d="M26 20a6 6 0 1 1 0 12 6 6 0 0 1 0-12zm2.435 3.6l-3.087 3.087-1.491-1.492-.857.857 2.348 2.348 3.944-3.943-.857-.857z"/>
    </g>
</svg>
