<svg xmlns="http://www.w3.org/2000/svg" width="52" height="52" viewBox="0 0 52 52">
    <defs>
        <linearGradient id="a" x1="16.055%" x2="84.276%" y1="14.723%" y2="85.852%">
            <stop offset="0%" stop-color="#002C78"/>
            <stop offset="100%" stop-color="#001443"/>
        </linearGradient>
    </defs>
    <g fill="none" fill-rule="evenodd">
        <circle cx="26" cy="26" r="26" fill="url(#a)"/>
        <g fill-rule="nonzero">
            <path fill="#2199FC" d="M27.763 14v4.863c0 1.097.89 1.986 1.987 1.986h4.863v7.087c-.312 0-.623.105-.876.316A1.374 1.374 0 0 0 32.364 27l-.734-.001a.49.49 0 0 0-.442-.279H20.425a.49.49 0 0 0 0 .979l9.092-.002a1.383 1.383 0 0 0-.169.555 1.372 1.372 0 0 0-1.844.083l-1.153 1.153a1.359 1.359 0 0 0-.37.685h-5.556a.49.49 0 0 0 0 .98h5.716c.037.062.079.122.126.178A1.374 1.374 0 0 0 25 32.706v.863h-4.7c-.201 0-.365.22-.365.49s.164.49.365.49h4.716a1.359 1.359 0 0 0 1.229 1.156c-.444.49-.42 1.269.028 1.78l-8.265-.001A1.008 1.008 0 0 1 17 36.476V15.008c0-.557.451-1.008 1.008-1.008h9.755zm3.425 9.324H20.425a.49.49 0 1 0 0 .979h10.763a.49.49 0 1 0 0-.979zM26.5 19.93h-6.28c-.157 0-.285.219-.285.489s.128.489.286.489H26.5c.157 0 .285-.219.285-.49 0-.27-.128-.488-.285-.488zM28.742 14l5.87 5.871H29.75a1.008 1.008 0 0 1-1.008-1.008V14z"/>
            <path fill="#C1E3FF" d="M29.885 38.66l2.416 2.415-.632.632a.457.457 0 0 1-.253.142l-2.195.505a.522.522 0 0 1-.615-.615l.505-2.195a.659.659 0 0 1 .142-.253l.632-.632zm6.523-6.538l2.423 2.423-5.627 5.627-2.423-2.423 5.627-5.627zM32.364 28c.18 0 .335.12.371.3l.008.079v.853a4.2 4.2 0 0 1 .77.286l.24.124.6-.6a.373.373 0 0 1 .456-.052l.066.052 1.232 1.232-2.574 2.574a2.119 2.119 0 0 0-1.99-1.421 2.116 2.116 0 0 0-2.116 2.116c0 .858.513 1.606 1.267 1.904l.154.054-2.574 2.574-1.232-1.232a.364.364 0 0 1-.05-.464l.05-.057.6-.6a4.567 4.567 0 0 1-.33-.744l-.08-.267h-.853a.362.362 0 0 1-.372-.299l-.007-.08v-1.626c0-.18.12-.335.3-.371l.079-.008h.869a4.2 4.2 0 0 1 .286-.77l.124-.24-.6-.6a.373.373 0 0 1-.052-.456l.052-.066 1.153-1.153a.373.373 0 0 1 .455-.052l.066.052.6.6c.237-.13.483-.242.744-.33l.267-.08v-.853c0-.193.12-.339.299-.372l.08-.007h1.642zm6.718 2.055l.072.061 1.69 1.706c.182.168.203.449.072.653l-.056.073-1.106 1.105-2.432-2.432 1.106-1.105a.504.504 0 0 1 .654-.06z"/>
        </g>
    </g>
</svg>
