<svg xmlns="http://www.w3.org/2000/svg" width="52" height="52" viewBox="0 0 52 52">
    <defs>
        <linearGradient id="a" x1="16.055%" x2="84.276%" y1="14.723%" y2="85.852%">
            <stop offset="0%" stop-color="#002C78"/>
            <stop offset="100%" stop-color="#001443"/>
        </linearGradient>
    </defs>
    <g fill="none" fill-rule="evenodd">
        <circle cx="26" cy="26" r="26" fill="url(#a)"/>
        <g fill-rule="nonzero">
            <path fill="#C1E3FF" d="M21.967 22.758h-8.508c-.707 0-1.28.578-1.28 1.28V38.61c0 .702.573 1.28 1.28 1.28h8.508c.706 0 1.279-.578 1.279-1.28V24.038c0-.702-.573-1.28-1.28-1.28zm-5.519 1.366h2.732v.862h-2.732v-.862zm1.385 13.543a.7.7 0 1 1 0 1.4.7.7 0 0 1 0-1.4zm4.134-11.747l-.013 10.813h-8.495l.013-10.813h8.495z"/>
            <path fill="#2199FC" d="M38.283 12.11H23.21c-.844 0-1.533.69-1.533 1.533v8.254h.288c.888 0 1.646.538 1.973 1.31V15.69H37.56v16.713H24.106v3.74h14.177c.848 0 1.538-.69 1.538-1.534V13.643c0-.844-.69-1.533-1.538-1.533zM30.9 33.467a.7.7 0 1 1 0 1.4.7.7 0 0 1 0-1.4zm1.167-20.078a.43.43 0 0 1 .43.431.43.43 0 0 1-.43.43h-2.64a.432.432 0 0 1-.432-.43c0-.237.194-.43.431-.43h2.64z"/>
        </g>
    </g>
</svg>
